<svg width="137" height="137" viewBox="0 0 137 137" fill="none" xmlns="http://www.w3.org/2000/svg">

<circle cx="68.5" cy="68.5" r="68.5" fill="#FAF4F4"/>


<path d="M84.9 110.25V108.2V104.1H52.1001V108.2V110.25L68.5002 126.65L84.9 110.25Z" fill="#F9F5F2"/>
<path d="M84.9 110.25L68.5001 126.65L52.1001 110.25H48L52.1001 138.95H84.9L89.0964 110.25H84.9Z" fill="#FDCA6E"/>
<path d="M120.488 123.206C118.846 115.652 112.167 110.26 104.436 110.25H89.0963L84.8999 138.95H123.85L120.488 123.206Z" fill="#F08AB7"/>
<path d="M32.5635 110.25C24.833 110.26 18.154 115.652 16.512 123.206L13.1499 138.95H52.0998L48 110.25H32.5635Z" fill="#F08AB7"/>
<path d="M101.3 77.4502C101.3 72.9218 97.6285 69.2502 93.1001 69.2502V85.6501C97.6285 85.6501 101.3 81.9786 101.3 77.4502Z" fill="#F9F5F2"/>
<path d="M93.1001 95.9001V54.9H43.9001V95.9001C43.9001 100.429 47.5716 104.1 52.1001 104.1H84.9C89.4284 104.1 93.1001 100.429 93.1001 95.9001ZM56.2001 73.35C55.0686 73.35 54.1502 72.4316 54.1502 71.3001C54.1502 70.1686 55.0686 69.2502 56.2001 69.2502C57.3316 69.2502 58.2501 70.1686 58.2501 71.3001C58.2501 72.4316 57.3316 73.35 56.2001 73.35ZM80.8001 73.35C79.6686 73.35 78.7502 72.4316 78.7502 71.3001C78.7502 70.1686 79.6686 69.2502 80.8001 69.2502C81.9316 69.2502 82.8501 70.1686 82.8501 71.3001C82.8501 72.4316 81.9316 73.35 80.8001 73.35Z" fill="#F9F5F2"/>
<path d="M93.1002 85.65V95.9001C93.1002 100.429 89.4287 104.1 84.9003 104.1V108.2L107.45 102.05L101.3 73.7601V52.8501C101.3 34.7343 86.6163 20.0502 68.5004 20.0502C50.3846 20.0502 35.7 34.7343 35.7 52.8501V73.7601L29.55 102.05L52.1001 108.2V104.1C47.5717 104.1 43.9002 100.429 43.9002 95.9001V85.65C39.3718 85.65 35.7003 81.9785 35.7003 77.4501C35.7003 72.9217 39.3718 69.2502 43.9002 69.2502V54.9H93.1002V69.2499C97.6286 69.2499 101.3 72.9214 101.3 77.4498C101.3 81.9783 97.6286 85.65 93.1002 85.65Z" fill="#A05D35"/>
<path d="M35.7 77.45C35.7 81.9785 39.3715 85.65 43.8999 85.65V69.2499C39.3717 69.2499 35.7 72.9216 35.7 77.45Z" fill="#F9F5F2"/>
<path d="M80.7999 73.3501C81.9321 73.3501 82.8499 72.4323 82.8499 71.3002C82.8499 70.168 81.9321 69.2502 80.7999 69.2502C79.6678 69.2502 78.75 70.168 78.75 71.3002C78.75 72.4323 79.6678 73.3501 80.7999 73.3501Z" fill="#F9F5F2"/>
<path d="M56.2001 73.3501C57.3322 73.3501 58.25 72.4323 58.25 71.3002C58.25 70.168 57.3322 69.2502 56.2001 69.2502C55.0679 69.2502 54.1501 70.168 54.1501 71.3002C54.1501 72.4323 55.0679 73.3501 56.2001 73.3501Z" fill="#F9F5F2"/>
<path d="M122.493 122.769C120.614 114.295 113.119 108.247 104.437 108.2H92.6904L107.989 104.028C109.043 103.741 109.687 102.682 109.455 101.616L103.35 73.5367V52.8501C103.35 33.6025 87.7478 18 68.5005 18C49.2532 18 33.6504 33.6025 33.6504 52.8501V73.5367L27.5456 101.622C27.314 102.687 27.9576 103.747 29.0112 104.034L44.3103 108.2H32.5638C23.8801 108.247 16.3831 114.299 14.5073 122.778L11.1453 138.522C10.9096 139.629 11.6147 140.717 12.7217 140.955C12.8632 140.986 13.0066 141 13.15 141H123.85C124.982 141 125.9 140.082 125.9 138.95C125.9 138.807 125.886 138.663 125.855 138.522L122.493 122.769ZM37.8653 76.3205C37.8857 76.2057 37.9187 76.0971 37.9472 75.9844C38.0087 75.7322 38.0847 75.4862 38.1769 75.2442C38.2221 75.1294 38.267 75.0146 38.3184 74.9038C38.4292 74.6641 38.5541 74.4323 38.6956 74.2088C38.7489 74.1248 38.796 74.0347 38.8515 73.9525C39.0545 73.6594 39.2841 73.3868 39.5342 73.1326C39.5772 73.0896 39.6286 73.0526 39.6736 73.0096C39.8888 72.8047 40.1185 72.6161 40.3604 72.4438C40.4567 72.3761 40.5653 72.3146 40.6576 72.2531C40.8707 72.1198 41.0902 72.0008 41.3177 71.8944C41.4285 71.8433 41.5392 71.7899 41.6519 71.7448C41.7156 71.7202 41.7852 71.7078 41.8568 71.6833V83.2556C39.3968 82.3843 37.7526 80.0597 37.7507 77.4501C37.7524 77.0707 37.7913 76.6914 37.8653 76.3205ZM45.9504 56.9499H91.0503V95.8998C91.0503 99.2968 88.2972 102.05 84.9003 102.05H52.1004C48.7035 102.05 45.9504 99.2968 45.9504 95.8998V56.9499ZM95.6835 71.8884C95.911 71.9951 96.1303 72.114 96.3437 72.2471C96.4441 72.3086 96.5486 72.3701 96.6408 72.4378C96.8827 72.6101 97.1124 72.7987 97.3277 73.0036C97.3728 73.0466 97.424 73.0836 97.467 73.1266C97.7171 73.3807 97.9467 73.6534 98.1497 73.9465C98.205 74.0284 98.2523 74.1187 98.3056 74.2028C98.445 74.4263 98.5721 74.6578 98.6828 74.8957C98.734 75.0083 98.7813 75.1232 98.8243 75.2402C98.9187 75.4799 98.9944 75.7281 99.054 75.9782C99.0826 76.0908 99.1155 76.1997 99.1359 76.3143C99.2875 77.0585 99.2875 77.8251 99.1359 78.5693C99.1155 78.6842 99.0826 78.7927 99.054 78.9054C98.9946 79.1555 98.9166 79.4037 98.8243 79.6434C98.7791 79.7602 98.7342 79.875 98.6828 79.9858C98.5721 80.2255 98.4471 80.4573 98.3056 80.6808C98.2523 80.7648 98.2052 80.8549 98.1497 80.9371C97.9467 81.2302 97.7171 81.5028 97.467 81.757C97.424 81.8 97.3726 81.837 97.3277 81.88C97.1124 82.0849 96.8827 82.2735 96.6408 82.4458C96.5445 82.5135 96.4359 82.575 96.3437 82.6365C96.1306 82.7698 95.911 82.8887 95.6835 82.9952C95.5727 83.0463 95.462 83.0997 95.3493 83.1448C95.2857 83.1693 95.216 83.1818 95.1444 83.2063V71.6772C95.21 71.7018 95.2777 71.7142 95.3493 71.7387C95.462 71.7839 95.5727 71.837 95.6835 71.8884ZM54.1503 108.2V106.15H82.8504V109.401L68.5005 123.751L54.1506 109.401V108.2H54.1503ZM51.2517 112.3L67.0509 128.099C67.8504 128.899 69.1501 128.899 69.9496 128.099L85.7488 112.3H86.7247L83.1291 136.9H53.8798L50.364 112.3H51.2517ZM90.3205 104.598C90.3882 104.555 90.4476 104.502 90.5132 104.459C90.6136 104.393 90.7058 104.32 90.8043 104.254C91.2245 103.957 91.6223 103.629 91.9932 103.272C92.0588 103.209 92.1307 103.151 92.1982 103.085C92.6001 102.673 92.9669 102.229 93.297 101.757C93.3708 101.648 93.4385 101.54 93.5019 101.429C93.7991 100.974 94.0576 100.496 94.2769 100C94.3014 99.9449 94.3322 99.8935 94.3548 99.8382C94.5803 99.291 94.7567 98.7272 94.8816 98.1492C94.9123 98.0117 94.939 97.8724 94.9635 97.7391C95.0824 97.1322 95.1439 96.5172 95.1502 95.9003V87.495C95.2239 87.4787 95.2895 87.4457 95.3551 87.4294C95.9208 87.3043 96.4765 87.1322 97.0134 86.9129C97.2183 86.8269 97.4091 86.708 97.6121 86.6013C97.9893 86.425 98.3563 86.2261 98.7109 86.0048C98.9303 85.8592 99.121 85.6851 99.3259 85.5251C99.6293 85.2995 99.9205 85.0597 100.197 84.8056C100.402 84.6129 100.566 84.3955 100.749 84.1906C100.931 83.9857 101.144 83.7805 101.314 83.5592L105.017 100.591L90.3205 104.598ZM37.7505 52.8501C37.7505 35.8679 51.5183 22.1001 68.5005 22.1001C85.4827 22.1001 99.2505 35.8679 99.2505 52.8501V69.2502C99.152 69.1783 99.0456 69.1168 98.9452 69.0452C98.8447 68.9734 98.771 68.9263 98.6806 68.867C98.199 68.5513 97.6926 68.2765 97.1636 68.0471C97.0877 68.0142 97.0077 67.9877 96.9279 67.957C96.3641 67.7232 95.782 67.5409 95.1855 67.4138L95.1506 67.4056V46.7006H91.0506V52.8506H82.8506V42.6H78.7506V52.8501H70.5507V38.4999H66.4506V52.8498H58.2507V42.6H54.1506V52.8501H45.9506V46.7001H41.8506V67.4052H41.822C41.7401 67.4215 41.6641 67.4503 41.5822 67.4688C41.41 67.5077 41.2399 67.5548 41.0717 67.6041C40.8524 67.6677 40.635 67.7374 40.4219 67.809C40.2826 67.8582 40.1411 67.9075 40.0118 67.9649L39.8518 68.0327C39.6736 68.1105 39.5013 68.1987 39.3291 68.2849C39.1568 68.3709 39.0216 68.4386 38.87 68.5247C38.6876 68.6292 38.5113 68.7421 38.335 68.8567L38.1176 68.9941C38.0376 69.0493 37.9576 69.1048 37.8797 69.1622C37.8427 69.1889 37.8019 69.2115 37.7649 69.2381L37.7505 52.8501ZM35.6777 83.5098C37.1722 85.5556 39.3699 86.9763 41.8503 87.495V95.9001C41.8566 96.5192 41.9181 97.1363 42.037 97.7451C42.0615 97.8844 42.0882 98.024 42.1189 98.1552C42.246 98.7312 42.4223 99.297 42.6457 99.8423C42.6683 99.8976 42.6991 99.949 42.7236 100.004C42.9429 100.496 43.1992 100.972 43.4945 101.423C43.5663 101.534 43.6338 101.642 43.6994 101.751C44.0295 102.222 44.3944 102.667 44.7961 103.079C44.8617 103.145 44.9335 103.202 45.001 103.266C45.3722 103.623 45.7698 103.951 46.1899 104.248C46.2884 104.315 46.3807 104.389 46.4811 104.453C46.5467 104.496 46.6063 104.549 46.6738 104.592L31.9608 100.578L35.6777 83.5098ZM18.5152 123.641C19.9767 117.044 25.807 112.337 32.5638 112.3H46.2209L49.7367 136.9H36.0693L37.7217 126.988L33.679 126.312L31.914 136.9H15.6842L18.5152 123.641ZM105.087 136.9L103.322 126.312L99.2791 126.988L100.931 136.9H87.2722L90.8677 112.3H104.437C111.191 112.337 117.022 117.042 118.485 123.634L121.316 136.9H105.087Z" fill="#231F20"/>
<path d="M80.8005 75.4001C83.0649 75.4001 84.9006 73.5644 84.9006 71.3C84.9006 69.0356 83.0649 67.2 80.8005 67.2C78.5361 67.2 76.7004 69.0356 76.7004 71.3C76.7004 73.5644 78.5361 75.4001 80.8005 75.4001Z" fill="#231F20"/>
<path d="M56.2007 75.4001C58.4651 75.4001 60.3007 73.5644 60.3007 71.3C60.3007 69.0356 58.4651 67.2 56.2007 67.2C53.9363 67.2 52.1006 69.0356 52.1006 71.3C52.1006 73.5644 53.9363 75.4001 56.2007 75.4001Z" fill="#231F20"/>


</svg>
