<svg width="14" height="14" viewBox="0 0 14 14" fill="none" xmlns="http://www.w3.org/2000/svg">
<path d="M7 0C3.13996 0 0 3.14027 0 7C0 10.8597 3.13996 14 7 14C10.86 14 14 10.8597 14 7C14 3.14027 10.86 0 7 0ZM9.83117 9.41877L9.41883 9.83117C9.30489 9.94506 9.12026 9.94506 9.00632 9.83117L6.58746 7.41232C6.47812 7.30294 6.41668 7.15463 6.41668 7V2.33332C6.41668 2.17221 6.54727 2.04165 6.70835 2.04165H7.29168C7.45276 2.04165 7.58335 2.17221 7.58335 2.33332V6.75845L9.8312 9.00629C9.94511 9.12021 9.94511 9.30489 9.83117 9.41877Z" fill="#C4C4C4"/>
</svg>
