<?xml version="1.0" encoding="UTF-8" standalone="no"?>
<svg
   xmlns:dc="http://purl.org/dc/elements/1.1/"
   xmlns:cc="http://creativecommons.org/ns#"
   xmlns:rdf="http://www.w3.org/1999/02/22-rdf-syntax-ns#"
   xmlns:svg="http://www.w3.org/2000/svg"
   xmlns="http://www.w3.org/2000/svg"
   viewBox="0 0 307.90652 222.37444"
   height="222.37444"
   width="307.90652"
   id="svg70"
   version="1.1">
  <metadata
     id="metadata76">
    <rdf:RDF>
      <cc:Work
         rdf:about="">
        <dc:format>image/svg+xml</dc:format>
        <dc:type
           rdf:resource="http://purl.org/dc/dcmitype/StillImage" />
        <dc:title></dc:title>
      </cc:Work>
    </rdf:RDF>
  </metadata>
  <defs
     id="defs74" />
  <path
     id="path80"
     d="m 7.9436762,221.91519 c -3.56236,-0.92129 -6.49377,-3.21175 -7.53508997,-5.88755 -0.36969,-0.94995 -0.47096,-18.7212 -0.37396,-65.62529 l 0.13301,-64.322551 1.08683997,-1.53622 c 1.30772,-1.8484 2.74372,-2.87326 5.45031,-3.88981 l 2.02877,-0.76197 H 117.16007 225.58658 l 2.12655,0.78514 c 2.55871,0.94468 3.9774,1.98204 5.38459,3.93728 1.03942,1.44423 1.05806,1.64838 1.2802,14.017029 l 0.22542,12.551452 26.82485,-14.764012 c 14.75367,-8.120199 27.7378,-15.160649 28.85363,-15.645449 1.75512,-0.76254 2.51526,-0.88144 5.63547,-0.88144 3.1205,0 3.89028,0.12043 5.71033,0.89334 2.63535,1.11913 5.03156,3.11542 5.71365,4.76003 0.75822,1.82818 0.75145,129.205251 -0.007,131.033911 -0.7372,1.7775 -3.73628,4.11924 -6.44062,5.02896 -2.88443,0.9703 -6.86182,1.0249 -9.58588,0.13159 -1.04745,-0.3435 -14.18383,-7.37505 -29.19193,-15.62567 -15.0081,-8.25062 -27.38882,-15.00113 -27.5127,-15.00113 -0.12387,0 -0.22523,5.39653 -0.22523,11.99228 0,13.19304 -0.1029,13.79591 -2.7508,16.11651 -0.75522,0.66187 -2.32185,1.60629 -3.48141,2.09871 l -2.10829,0.8953 -108.20109,0.0685 C 28.229246,222.34083 9.3445362,222.27713 7.9436662,221.91517 Z M 210.48351,151.05372 V 96.990198 H 117.16007 23.836626 v 54.063522 54.06351 h 93.323444 93.32344 z m 73.48658,0 c 0,-24.7194 -0.15216,-44.93466 -0.33813,-44.9228 -0.18597,0.0119 -11.29349,6.05882 -24.68338,13.43768 l -24.34524,13.4161 -0.10158,18.07224 -0.10158,18.07223 24.44683,13.41259 c 13.44575,7.37693 24.59898,13.42243 24.78495,13.43446 0.18597,0.012 0.33813,-20.2031 0.33813,-44.9225 z M 111.97544,63.676289 c -4.76872,-1.65151 -7.26808,-4.81482 -6.88224,-8.71048 0.42086,-4.24915 3.62161,-6.43174 14.77228,-10.07316 11.37901,-3.716 21.25799,-5.22754 34.09574,-5.21683 14.80382,0.0123 27.31461,2.29109 39.99709,7.28518 4.96949,1.95688 6.38327,2.83809 7.83411,4.883 2.58123,3.63814 1.08233,8.37938 -3.39125,10.727 -4.91073,2.57703 -8.50192,2.49409 -15.95412,-0.36848 -10.21907,-3.92539 -19.299,-5.45778 -30.57246,-5.15959 -10.93196,0.28916 -16.65743,1.49372 -28.81252,6.06174 -3.9613,1.4887 -7.85837,1.68963 -11.08663,0.57162 z M 57.915786,47.950929 c -2.64508,-0.7001 -4.63653,-1.9422 -6.13004,-3.82339 -1.14169,-1.43805 -1.34185,-2.03473 -1.34546,-4.01081 -0.005,-2.85538 0.64614,-4.03501 3.69553,-6.69288 11.90996,-10.380823 28.53636,-19.421734 46.323164,-25.1890787 28.03103,-9.0890208 60.07666,-10.7201488 89.68028,-4.56474 16.69379,3.471101 32.68385,9.5090367 46.56519,17.5832837 6.08636,3.540202 17.77217,12.218535 19.44572,14.441135 4.40153,5.84556 -1.19164,12.75516 -10.33354,12.76568 -4.41408,0.005 -5.55677,-0.52685 -13.24206,-6.1643 -8.36106,-6.13316 -12.472,-8.68294 -19.18121,-11.897 -18.36173,-8.796232 -37.29319,-12.903496 -59.49681,-12.908094 -16.02809,-0.0033 -29.41142,2.03689 -43.98822,6.705744 -12.979914,4.15738 -26.816744,11.55344 -36.243824,19.37304 -4.69993,3.89851 -7.02926,4.9064 -11.25705,4.87085 -1.50107,-0.0126 -3.52232,-0.23287 -4.49167,-0.48944 z"
     style="fill:#000000;stroke-width:0.38318482" />
</svg>
