<svg width="137" height="137" viewBox="0 0 137 137" fill="none" xmlns="http://www.w3.org/2000/svg">
<mask id="mask0" mask-type="alpha" maskUnits="userSpaceOnUse" x="0" y="0" width="137" height="137">
<circle cx="68.5" cy="68.5" r="68.5" fill="#FAF4F4"/>
</mask>
<g mask="url(#mask0)">
<g clip-path="url(#clip0)">
<path d="M113.237 59.9636C110.477 57.1952 107.125 55.0905 103.433 53.8066V50.1168C103.433 30.8227 87.7942 15.1836 68.5001 15.1836C49.206 15.1836 33.5666 30.8227 33.5666 50.1168V53.8066C19.9296 58.6426 12.7944 73.618 17.6284 87.2553C21.3335 97.7049 31.2153 104.691 42.3001 104.7V85.0501C37.4772 85.0501 33.5669 81.1398 33.5669 76.3168C33.5669 71.4939 37.4772 67.5836 42.3001 67.5836V52.3001H51.2519C60.8279 67.3346 76.9279 76.9782 94.7001 78.3253C96.1411 78.4346 97.6039 78.5001 99.0669 78.5001H103.15C102.16 82.3579 98.6826 85.0524 94.7001 85.0501V104.7C109.178 104.691 120.909 92.9472 120.9 78.4696C120.896 71.5287 118.14 64.8738 113.237 59.9636Z" fill="#FDCA6E"/>
<path d="M33.5667 76.3165C33.5667 81.1395 37.477 85.0498 42.2999 85.0498V67.583C37.4772 67.583 33.5667 71.4936 33.5667 76.3165Z" fill="#F9F5F2"/>
<path d="M103.15 78.4999H99.0669C97.6042 78.4999 96.1412 78.4344 94.7002 78.3252V85.0499C98.6824 85.0522 102.161 82.3578 103.15 78.4999Z" fill="#F9F5F2"/>
<path d="M51.2516 52.2998H42.2998V95.9666C42.2998 100.79 46.2101 104.7 51.0331 104.7H85.9663C90.7892 104.7 94.6995 100.79 94.6995 95.9666V78.3253C76.9276 76.978 60.8279 67.3344 51.2516 52.2998Z" fill="#F9F5F2"/>
<path d="M85.9667 111.25V104.7H51.0334V111.25L68.5002 128.717L85.9667 111.25Z" fill="#F9F5F2"/>
<path d="M123.87 125.049C122.121 117.003 115.007 111.261 106.774 111.25H90.4361L85.9668 141.817H127.45L123.87 125.049Z" fill="#787D82"/>
<path d="M85.9667 111.25L68.5003 128.717L51.0335 111.25H46.6667L51.0335 141.817H85.9667L90.4361 111.25H85.9667Z" fill="#F08AB7"/>
<path d="M46.6666 111.25H30.2261C21.9928 111.261 14.8794 117.003 13.1306 125.049L9.5498 141.817H51.0331L46.6666 111.25Z" fill="#787D82"/>
<path d="M55.4002 74.1337C57.8119 74.1337 59.7669 72.1786 59.7669 69.7669C59.7669 67.3552 57.8119 65.4001 55.4002 65.4001C52.9885 65.4001 51.0334 67.3552 51.0334 69.7669C51.0334 72.1786 52.9885 74.1337 55.4002 74.1337Z" fill="#231F20"/>
<path d="M126.003 124.584C124.003 115.556 116.02 109.115 106.774 109.067H88.1502V106.665C89.7396 106.329 91.231 105.639 92.517 104.646V104.7C92.517 105.905 93.4951 106.883 94.7002 106.883C110.376 106.883 123.083 94.1762 123.083 78.5C123.083 67.0419 116.193 56.7082 105.617 52.3V50.1168C105.617 29.6173 88.9994 13 68.5002 13C48.001 13 31.3835 29.6173 31.3835 50.1168V52.3264C16.919 58.3414 10.0699 74.9456 16.0849 89.4104C20.4887 99.9973 30.8334 106.895 42.3002 106.883C43.5053 106.883 44.4835 105.905 44.4835 104.7V104.643C45.7694 105.637 47.2606 106.327 48.8502 106.663V109.067H30.2265C20.9779 109.115 12.9933 115.562 10.9956 124.593L7.41481 141.361C7.16381 142.54 7.91476 143.699 9.09376 143.952C9.24446 143.985 9.39721 144 9.54995 144H127.45C128.655 144 129.633 143.022 129.633 141.817C129.633 141.664 129.618 141.511 129.585 141.361L126.003 124.584ZM50.1295 113.433L66.9564 130.26C67.8079 131.112 69.1921 131.112 70.0435 130.26L86.8704 113.433H87.9097L84.0803 139.633H52.9263L49.1841 113.433H50.1295ZM83.7835 110.346L68.5002 125.629L53.217 110.346V106.883H83.7837V110.346H83.7835ZM99.0667 80.6832H99.5864C99.2479 81.0565 98.8659 81.3907 98.4488 81.6745C98.3155 81.766 98.1715 81.8359 98.0318 81.9191C97.7347 82.1002 97.4249 82.2552 97.1017 82.3842C97.0296 82.4126 96.9554 82.4323 96.8835 82.4584V80.6375C97.6301 80.6682 98.3549 80.6832 99.0667 80.6832ZM35.7502 50.1168C35.7502 32.0301 50.4135 17.3668 68.5002 17.3668C86.5869 17.3668 101.25 32.0301 101.25 50.1168V53.8065C101.25 54.7389 101.842 55.5663 102.722 55.8698C112.326 59.243 118.743 68.3214 118.717 78.5C118.701 90.9122 109.243 101.274 96.8835 102.419V87.015C97.2742 86.9298 97.6585 86.8229 98.0364 86.6942C98.128 86.6657 98.2262 86.6484 98.3181 86.6176C98.8444 86.4322 99.3551 86.2073 99.8463 85.9453C99.9817 85.8731 100.104 85.7836 100.237 85.7073C100.582 85.5065 100.916 85.2882 101.237 85.0523C101.396 84.9323 101.545 84.799 101.7 84.6723C101.97 84.4431 102.232 84.2072 102.481 83.9541C102.63 83.8035 102.772 83.6484 102.918 83.489C103.15 83.2247 103.355 82.9476 103.573 82.6616C103.695 82.4912 103.818 82.3254 103.929 82.1486C104.13 81.8234 104.313 81.4869 104.479 81.142C104.56 80.9806 104.65 80.8276 104.721 80.6595C104.951 80.1355 105.139 79.5918 105.283 79.0373C105.58 77.8693 104.872 76.6816 103.704 76.3846C103.523 76.3388 103.337 76.3147 103.149 76.3167H99.0665C97.7434 76.3167 96.3679 76.2623 94.8634 76.1487C77.7897 74.8082 62.3297 65.5487 53.0918 51.1254C52.6901 50.4964 51.998 50.1168 51.2512 50.1168H42.2994C41.3082 50.1234 40.317 50.1799 39.3302 50.2892C39.0464 50.3176 38.7647 50.3591 38.483 50.3961C37.7341 50.4987 36.9939 50.6298 36.2627 50.7892C36.0923 50.8263 35.9178 50.8393 35.7497 50.8807L35.7502 50.1168ZM39.5513 82.2422C39.309 82.1286 39.0731 81.9999 38.8461 81.8579C38.7392 81.7924 38.6279 81.7269 38.5296 81.6547C38.272 81.4713 38.0274 81.2704 37.7981 81.0522C37.75 81.0064 37.6955 80.967 37.6497 80.9212C37.3834 80.6505 37.1388 80.3601 36.9226 80.0479C36.8637 79.9607 36.8133 79.8645 36.7565 79.7749C36.6058 79.537 36.4728 79.2904 36.3548 79.0347C36.3003 78.9168 36.2522 78.7945 36.2041 78.6722C36.1059 78.4145 36.023 78.1505 35.9575 77.8839C35.9291 77.7639 35.8943 77.6459 35.8723 77.5259C35.7108 76.7333 35.7108 75.9168 35.8723 75.1242C35.894 75.0019 35.9291 74.8862 35.9595 74.7662C36.025 74.4976 36.1059 74.2356 36.2041 73.9779C36.2522 73.8556 36.3001 73.7333 36.3548 73.6154C36.4728 73.36 36.6058 73.1131 36.7565 72.8752C36.8133 72.7856 36.8635 72.6897 36.9226 72.6022C37.1388 72.29 37.3834 71.9996 37.6497 71.7289C37.6955 71.6831 37.7503 71.6437 37.7981 71.5979C38.0274 71.3797 38.272 71.1788 38.5296 70.9954C38.6322 70.9232 38.7479 70.8577 38.8461 70.7922C39.0731 70.6502 39.3069 70.5236 39.5492 70.4102C39.6672 70.3557 39.7851 70.2989 39.9051 70.2508C39.9729 70.2247 40.0471 70.2114 40.1234 70.1853V82.4819C40.0535 82.4558 39.9793 82.4425 39.9051 82.4141C39.7849 82.3515 39.6669 82.2947 39.5513 82.2422ZM40.1167 102.421C26.9075 101.209 17.183 89.5193 18.3925 76.3101C19.2483 66.972 25.4621 58.9854 34.3046 55.8611C35.1364 55.5707 35.9836 55.3304 36.8417 55.1382C37.06 55.0837 37.2936 55.0356 37.5208 54.9899C38.3178 54.8238 39.1232 54.6995 39.9333 54.6186L40.1167 54.5858V65.6182C40.0773 65.6182 40.0425 65.6443 40.0031 65.6533C39.3809 65.7887 38.774 65.9765 38.1845 66.2188C37.977 66.304 37.7871 66.4176 37.5863 66.5158C37.1846 66.7036 36.7959 66.9132 36.4203 67.1491C36.2021 67.2888 36.0076 67.4461 35.8004 67.6009C35.4752 67.8412 35.1607 68.0988 34.8637 68.3739C34.6695 68.5573 34.4881 68.7472 34.3069 68.9436C34.0362 69.2361 33.7829 69.5442 33.547 69.865C33.3876 70.0833 33.2349 70.3018 33.0908 70.52C32.8746 70.8693 32.6804 71.2275 32.5057 71.5984C32.3921 71.83 32.2741 72.0569 32.1782 72.2972C32.0167 72.7206 31.8834 73.1531 31.7742 73.5942C31.7197 73.8124 31.6432 74.0176 31.5994 74.2492C31.32 75.618 31.32 77.0285 31.5994 78.3974C31.6432 78.6156 31.7194 78.8342 31.7742 79.0524C31.8834 79.4935 32.0165 79.9256 32.1782 80.3493C32.2741 80.5896 32.3964 80.8166 32.5057 81.0481C32.6804 81.4194 32.8746 81.7773 33.0908 82.1266C33.2349 82.3448 33.3879 82.5633 33.547 82.7816C33.7829 83.1024 34.036 83.4105 34.3069 83.7029C34.4881 83.8994 34.6695 84.0892 34.8637 84.2727C35.1607 84.5478 35.4749 84.8054 35.8004 85.0457C36.0079 85.2007 36.2044 85.3578 36.4203 85.4975C36.7959 85.7334 37.1846 85.9429 37.5863 86.1308C37.7871 86.229 37.977 86.349 38.1845 86.4278C38.774 86.6701 39.3809 86.8579 40.0031 86.9933C40.0425 86.9933 40.0773 87.0193 40.1167 87.0283V102.436V102.421ZM44.4835 95.9668V54.4832H50.0707C59.7406 68.9042 75.2641 78.3427 92.517 80.2903V95.9665C92.517 99.5843 89.5848 102.516 85.967 102.516H51.0335C47.4156 102.517 44.4835 99.5844 44.4835 95.9668ZM15.2638 125.512C16.8205 118.486 23.0299 113.473 30.2262 113.434H44.7739L48.5161 139.633H33.9597L35.7195 129.077L31.4139 128.357L29.5341 139.633H12.2488L15.2638 125.512ZM107.466 139.633L105.586 128.356L101.281 129.077L103.04 139.633H88.4928L92.3223 113.433H106.774C113.968 113.473 120.177 118.481 121.734 125.505L124.751 139.633H107.466Z" fill="#231F20"/>
</g>
</g>
<defs>
<clipPath id="clip0">
<rect x="3" y="13" width="131" height="131" fill="white"/>
</clipPath>
</defs>
</svg>
