<svg width="16" height="16" viewBox="0 0 16 16" fill="none" xmlns="http://www.w3.org/2000/svg">
<path d="M14.6562 7.25467C14.2882 7.25467 13.9896 6.95609 13.9896 6.58804C13.9896 4.71805 13.2616 2.96072 11.9396 1.63797C11.679 1.37735 11.679 0.956085 11.9396 0.695343C12.2002 0.434723 12.6216 0.434723 12.8822 0.695343C14.4563 2.26932 15.3229 4.36209 15.3229 6.58804C15.3229 6.95609 15.0243 7.25467 14.6562 7.25467Z" fill="#656565"/>
<path d="M1.32288 7.25467C0.954956 7.25467 0.65625 6.95609 0.65625 6.58804C0.65625 4.36209 1.52295 2.26932 3.09692 0.695343C3.35754 0.434723 3.77893 0.434723 4.03955 0.695343C4.30029 0.956085 4.30029 1.37735 4.03955 1.63797C2.71753 2.95999 1.98962 4.71805 1.98962 6.58804C1.98962 6.95609 1.69092 7.25467 1.32288 7.25467Z" fill="#656565"/>
<path d="M14.2423 11.2754C13.2343 10.4233 12.6562 9.17798 12.6562 7.85864V6C12.6562 3.65405 10.9136 1.71204 8.65625 1.38672V0.666626C8.65625 0.297974 8.35754 0 7.98962 0C7.62158 0 7.32288 0.297974 7.32288 0.666626V1.38672C5.06494 1.71204 3.32288 3.65405 3.32288 6V7.85864C3.32288 9.17798 2.74487 10.4233 1.73096 11.2806C1.47156 11.5027 1.32288 11.8253 1.32288 12.1666C1.32288 12.8101 1.84619 13.3334 2.48962 13.3334H13.4896C14.1329 13.3334 14.6562 12.8101 14.6562 12.1666C14.6562 11.8253 14.5076 11.5027 14.2423 11.2754Z" fill="#656565"/>
<path d="M7.98962 16C9.1969 16 10.2069 15.1393 10.439 14H5.54028C5.77222 15.1393 6.78223 16 7.98962 16Z" fill="#656565"/>
</svg>
