<svg width="34" height="34" viewBox="0 0 34 34" fill="none" xmlns="http://www.w3.org/2000/svg">

<path d="M14.5715 28.232H19.4286C20.768 28.2278 21.8529 27.1428 21.8572 25.8035V22.7678H12.1429V25.8035C12.1472 27.1434 13.2321 28.2284 14.5715 28.232Z" fill="#F9F5F2"/>
<path d="M32.3971 28.4265C31.9108 26.1892 29.9327 24.5924 27.6432 24.5894H21.8571V25.8037C21.8529 27.143 20.7679 28.2279 19.4286 28.2322H14.5715C13.2321 28.2279 12.1472 27.143 12.1429 25.8037V24.5894H6.35682C4.06727 24.5924 2.08923 26.1891 1.60287 28.4265L0.607178 33.0893H33.3928L32.3971 28.4265Z" fill="#24537E"/>
<path d="M7.28577 14.8749C7.28577 16.2161 8.37317 17.3034 9.7143 17.3034V12.4463C8.37317 12.4463 7.28577 13.5337 7.28577 14.8749Z" fill="#F9F5F2"/>
<path d="M26.7143 14.8751C26.7143 13.5339 25.6269 12.4465 24.2858 12.4465V17.3037C25.6269 17.3036 26.7143 16.2162 26.7143 14.8751Z" fill="#F9F5F2"/>
<path d="M13.685 8.19632H13.849C14.8514 9.93636 17.0741 10.535 18.8147 9.53261C19.3703 9.21267 19.8311 8.75181 20.151 8.19632H20.315C20.913 10.0876 22.3944 11.569 24.2857 12.167V8.19632C24.2911 4.17763 21.0381 0.91609 17.0194 0.910645C17.0127 0.910645 17.0066 0.910645 16.9999 0.910645C13.6776 0.910645 10.7755 3.15769 9.94494 6.37494C9.79075 6.96994 9.71299 7.58193 9.71425 8.19639V12.1671C11.6062 11.5702 13.0882 10.0882 13.685 8.19632Z" fill="#787D82"/>
<path d="M20.315 8.19629H20.1511C19.1487 9.93633 16.9259 10.535 15.1853 9.53258C14.6297 9.21264 14.1689 8.75178 13.849 8.19629H13.685C13.0882 10.0881 11.6062 11.5702 9.71436 12.167V20.3391C9.71436 21.6803 10.8018 22.7677 12.1429 22.7677H21.8572C23.1984 22.7677 24.2857 21.6803 24.2857 20.3391V12.167C22.3945 11.569 20.9131 10.0875 20.315 8.19629Z" fill="#F9F5F2"/>
<path d="M32.9903 28.2975C32.4348 25.787 30.2145 23.9953 27.6432 23.982H22.4643V23.3141C23.8765 23.0239 24.891 21.7811 24.8928 20.3391V17.8498C26.5358 17.5159 27.5976 15.9136 27.2637 14.2707C27.0215 13.0765 26.0877 12.1427 24.8928 11.8998V8.1963C24.8928 3.837 21.3593 0.303467 17 0.303467C12.6407 0.303467 9.10716 3.837 9.10716 8.19623V11.8998C7.46421 12.2337 6.40238 13.836 6.73627 15.4789C6.97911 16.6737 7.91232 17.6069 9.10716 17.8498V20.3391C9.10896 21.781 10.1235 23.0239 11.5357 23.3141V23.9819H6.35682C3.78498 23.9952 1.56462 25.7881 1.00914 28.2993L0.0134429 32.9622C-0.05635 33.2901 0.152497 33.6124 0.480344 33.6829C0.522247 33.692 0.564747 33.6963 0.607247 33.6963H33.3929C33.728 33.6963 34 33.4243 34 33.0891C34 33.0466 33.9958 33.0041 33.9867 32.9622L32.9903 28.2975ZM12.75 23.3748H21.25V25.8034C21.25 26.8094 20.4346 27.6248 19.4285 27.6248H14.5715C13.5654 27.6248 12.75 26.8094 12.75 25.8034V23.3748ZM26.1071 14.8748C26.1059 15.6465 25.6202 16.3344 24.8928 16.5924V13.1572C25.6202 13.4158 26.1065 14.1031 26.1071 14.8748ZM10.5334 6.52599C11.455 2.9548 15.0973 0.806759 18.6691 1.72834C21.6185 2.48969 23.6792 5.15019 23.6786 8.19623V11.2599C23.5802 11.2113 23.4831 11.1609 23.3884 11.1063C23.3386 11.0777 23.287 11.0522 23.2385 11.0219C23.0654 10.9156 22.8991 10.7997 22.7388 10.6752C22.7169 10.6582 22.6974 10.6381 22.6781 10.6205C22.5427 10.5112 22.4121 10.3959 22.2882 10.2745C22.2403 10.2277 22.1959 10.1773 22.1505 10.1294C22.057 10.0304 21.9683 9.92963 21.8797 9.82584C21.8323 9.76515 21.7873 9.70804 21.7425 9.64854C21.6642 9.54408 21.5895 9.43663 21.5184 9.32613C21.4784 9.26544 21.4377 9.20043 21.3969 9.13608C21.3265 9.01462 21.2627 8.89323 21.2014 8.76573C21.1729 8.70504 21.1408 8.65098 21.1153 8.59148C21.0303 8.40389 20.9568 8.21078 20.8943 8.01468C20.8147 7.76147 20.5804 7.58968 20.3151 7.58968H20.1511C19.9338 7.58968 19.7334 7.70503 19.6247 7.89322C18.7899 9.34307 16.9375 9.84091 15.4883 9.00612C15.0256 8.73957 14.6419 8.35587 14.3754 7.89322C14.2667 7.70503 14.0663 7.58968 13.849 7.58968H13.685C13.4197 7.58968 13.1853 7.76147 13.1058 8.01468C12.8405 8.85372 12.3779 9.61633 11.7561 10.2386C11.5666 10.4256 11.3639 10.5981 11.149 10.7553C11.0883 10.8009 11.0239 10.8421 10.9608 10.8853C10.795 10.9982 10.6226 11.102 10.4453 11.1961C10.4046 11.2174 10.364 11.2398 10.3239 11.2605V8.19623C10.3227 7.63284 10.3931 7.07185 10.5334 6.52599ZM7.89293 14.8748C7.89412 14.1031 8.37989 13.4153 9.10723 13.1572V16.5924C8.38042 16.3344 7.89412 15.6465 7.89293 14.8748ZM10.3215 20.3391V12.5962C10.3822 12.5719 10.4429 12.5398 10.5036 12.5137C10.5953 12.4748 10.6858 12.4347 10.7738 12.3922C10.9159 12.3242 11.0543 12.2502 11.1909 12.1724C11.2735 12.1251 11.3555 12.0795 11.4338 12.0291C11.5777 11.9387 11.7155 11.8403 11.8527 11.7395C11.9183 11.691 11.9857 11.6466 12.0494 11.5956C12.2461 11.4402 12.4344 11.2738 12.6122 11.0972C13.1404 10.5684 13.577 9.95513 13.9036 9.28304C15.5053 10.9933 18.1894 11.0814 19.8998 9.47973C19.9678 9.41658 20.0333 9.35044 20.0964 9.28304C20.1924 9.48099 20.2987 9.67224 20.4127 9.85798C20.4492 9.91868 20.491 9.97333 20.5293 10.0322C20.6106 10.1537 20.692 10.2787 20.7812 10.3965C20.8316 10.4633 20.8875 10.5265 20.9403 10.5914C21.0247 10.6946 21.1085 10.7972 21.1983 10.895C21.259 10.9612 21.3246 11.0237 21.389 11.088C21.4776 11.1773 21.5675 11.2659 21.6622 11.3497C21.732 11.4104 21.8049 11.4712 21.8771 11.5319C21.9724 11.6102 22.0684 11.6861 22.1673 11.7589C22.245 11.816 22.3246 11.8706 22.4053 11.9241C22.5061 11.9915 22.6087 12.0558 22.7131 12.1184C22.7969 12.1682 22.8819 12.2161 22.9681 12.2623C23.0756 12.323 23.1849 12.3734 23.296 12.425C23.3852 12.4663 23.4739 12.5075 23.5649 12.5464C23.6038 12.5622 23.6402 12.5822 23.6797 12.5974V20.3391C23.6797 21.3452 22.8643 22.1606 21.8582 22.1606H12.1429C11.1369 22.1605 10.3215 21.3451 10.3215 20.3391ZM27.8357 32.482L27.3129 29.3467L26.1156 29.5458L26.605 32.482H7.39502L7.88436 29.5458L6.68706 29.3467L6.16431 32.482H1.35764L2.19608 28.555C2.62898 26.6012 4.35567 25.2072 6.35682 25.1963H11.5358V25.8034C11.5376 27.4791 12.8958 28.8373 14.5715 28.8391H19.4286C21.1043 28.8373 22.4625 27.4791 22.4643 25.8034V25.1963H27.6432C29.6438 25.2072 31.3705 26.6 31.8034 28.5532L32.6424 32.482H27.8357Z" fill="#231F20"/>
<path d="M20.6429 14.2677C21.3135 14.2677 21.8572 13.7241 21.8572 13.0534C21.8572 12.3828 21.3135 11.8391 20.6429 11.8391C19.9723 11.8391 19.4286 12.3828 19.4286 13.0534C19.4286 13.7241 19.9723 14.2677 20.6429 14.2677Z" fill="#231F20"/>
<path d="M13.3571 14.2677C14.0278 14.2677 14.5714 13.7241 14.5714 13.0534C14.5714 12.3828 14.0278 11.8391 13.3571 11.8391C12.6865 11.8391 12.1428 12.3828 12.1428 13.0534C12.1428 13.7241 12.6865 14.2677 13.3571 14.2677Z" fill="#231F20"/>


</svg>
