<svg width="41" height="41" viewBox="0 0 41 41" fill="none" xmlns="http://www.w3.org/2000/svg">

<path d="M27.1441 42.7044H9.62341V35.2918C9.62341 30.8257 13.2438 27.2053 17.7099 27.2053L16.3622 29.2269L17.7099 32.5963L20.4054 38.6612L23.1009 32.5963L24.4486 29.2269L23.1009 27.2053C27.567 27.2053 31.1874 30.8257 31.1874 35.2918V42.7044H27.1441Z" fill="#787680"/>
<path d="M27.1441 14.4018V18.4451C27.1418 17.7018 26.5397 17.0996 25.7964 17.0973H25.1225V15.0757C23.7747 14.4018 23.1009 12.3802 23.1009 12.3802C21.0792 15.0757 15.6882 15.7496 15.6882 15.7496V17.0973H15.0144C14.2711 17.0996 13.6689 17.7018 13.6666 18.4451V14.4018C13.6666 10.6801 16.6836 7.66309 20.4054 7.66309C24.1271 7.66309 27.1441 10.6801 27.1441 14.4018Z" fill="#CC7400"/>
<path d="M25.7964 17.0972C26.5397 17.0995 27.1419 17.7016 27.1442 18.4449C27.1386 19.1869 26.5384 19.7871 25.7964 19.7927H25.1226V17.0972H25.7964Z" fill="#6D4A2F"/>
<path d="M25.1226 17.0972V21.1405C25.1196 22.4807 24.327 23.6929 23.101 24.2335C22.6749 24.4154 22.2165 24.5095 21.7532 24.5099H19.0577C18.5944 24.5095 18.1361 24.4154 17.71 24.2335C16.484 23.6929 15.6913 22.4807 15.6884 21.1405V15.7495C15.6884 15.7495 21.0793 15.0756 23.101 12.3801C23.101 12.3801 23.7748 14.4017 25.1226 15.0756V17.0972Z" fill="#6D4A2F"/>
<path d="M23.1009 27.2053L24.4486 29.2269L23.1009 32.5963L20.4054 30.5747L23.1009 27.2053Z" fill="#D1D3D4"/>
<path d="M23.7749 6.98912C23.7772 7.47577 23.6712 7.95683 23.4649 8.39741C21.543 7.41819 19.268 7.41819 17.3461 8.39741C17.1398 7.95683 17.0339 7.47577 17.0362 6.98912C17.0362 5.1284 18.5448 3.61975 20.4055 3.61975C22.2662 3.61975 23.7749 5.1284 23.7749 6.98912Z" fill="#AA6100"/>
<path d="M23.101 24.2334V27.2053L20.4055 30.5747L17.71 27.2053V24.2334C18.1361 24.4154 18.5944 24.5095 19.0577 24.5098H21.7532C22.2165 24.5095 22.6748 24.4154 23.101 24.2334Z" fill="#6D4A2F"/>
<path d="M23.101 32.5963L20.4055 38.6612L17.71 32.5963L20.4055 30.5747L23.101 32.5963Z" fill="#E6E7E8"/>
<path d="M17.7099 27.2053L20.4054 30.5747L17.7099 32.5963L16.3622 29.2269L17.7099 27.2053Z" fill="#D1D3D4"/>
<path d="M15.6882 17.0972V19.7927H15.0144C14.2724 19.7871 13.6722 19.1869 13.6666 18.4449C13.6689 17.7016 14.2711 17.0995 15.0144 17.0972H15.6882Z" fill="#6D4A2F"/>
<path d="M23.101 24.2334V25.5812C22.6748 25.7631 22.2165 25.8572 21.7532 25.8576H19.0577C18.5944 25.8572 18.1361 25.7631 17.71 25.5812V24.2334C18.1361 24.4154 18.5944 24.5095 19.0577 24.5098H21.7532C22.2165 24.5095 22.6748 24.4154 23.101 24.2334Z" fill="#6D4A2F"/>
<path d="M23.7748 26.5657V24.6366C25.0242 23.9153 25.7945 22.583 25.7964 21.1405V20.4666C26.9129 20.4666 27.8181 19.5615 27.8181 18.445V14.4018C27.8148 11.831 26.4789 9.44545 24.2884 8.09968C24.3937 7.73905 24.4477 7.36493 24.4487 6.98917C24.4487 4.7563 22.6383 2.94592 20.4054 2.94592C18.1726 2.94592 16.3622 4.7563 16.3622 6.98917C16.3632 7.36493 16.4171 7.73905 16.5224 8.09968C14.332 9.44545 12.9961 11.831 12.9928 14.4018V18.445C12.9928 19.5615 13.898 20.4666 15.0145 20.4666V21.1405C15.0164 22.583 15.7867 23.9153 17.0361 24.6366V26.5657C12.4772 26.9204 8.95682 30.7195 8.94958 35.2919V42.7045C8.94958 43.0766 9.25131 43.3784 9.62346 43.3784H31.1874C31.5596 43.3784 31.8613 43.0766 31.8613 42.7045V35.2919C31.8541 30.7195 28.3337 26.9204 23.7748 26.5657ZM17.7593 28.3462L19.444 30.4527L18.0084 31.5309L17.119 29.3073L17.7593 28.3462ZM20.4054 31.4171L22.2675 32.8126L20.4054 37.0022L18.5434 32.8126L20.4054 31.4171ZM22.8018 31.5296L21.3662 30.4514L23.0509 28.3448L23.6906 29.3047L22.8018 31.5296ZM25.7964 19.1189V17.7711C26.1686 17.7711 26.4703 18.0729 26.4703 18.445C26.4703 18.8172 26.1686 19.1189 25.7964 19.1189ZM17.7099 6.98917C17.6961 5.95795 18.2716 5.009 19.1929 4.54506C20.1142 4.08111 21.2195 4.18377 22.0398 4.80928C22.8598 5.43478 23.2513 6.47323 23.0476 7.48437C21.3481 6.82399 19.4627 6.82399 17.7633 7.48437C17.73 7.3215 17.7123 7.15566 17.7099 6.98917ZM20.4054 8.33691C23.7534 8.34053 26.4667 11.0538 26.4703 14.4018V16.5474C26.2545 16.4675 26.0264 16.4257 25.7964 16.4234V15.0757C25.7964 14.8203 25.6523 14.5867 25.4236 14.4725C24.5296 14.0257 23.9048 12.6529 23.7389 12.1666C23.6593 11.9294 23.455 11.756 23.2079 11.7158C22.9611 11.6757 22.7123 11.776 22.562 11.9758C20.7378 14.4084 15.6554 15.0757 15.6041 15.0809C15.2672 15.1234 15.0145 15.41 15.0145 15.7495V16.4234C14.7845 16.4257 14.5564 16.4675 14.3406 16.5474V14.4018C14.3442 11.0538 17.0575 8.34053 20.4054 8.33691ZM14.3406 18.445C14.3406 18.0729 14.6423 17.7711 15.0145 17.7711V19.1189C14.6423 19.1189 14.3406 18.8172 14.3406 18.445ZM16.3622 16.3257C17.6919 16.0917 20.9283 15.3642 22.8989 13.5871C23.2638 14.3218 23.7942 14.9621 24.4487 15.457V21.1405C24.4487 22.6291 23.2418 23.836 21.7532 23.836H19.0577C17.5691 23.836 16.3622 22.6291 16.3622 21.1405V16.3257ZM19.0577 25.1838H21.7532C21.9792 25.1824 22.2046 25.162 22.4271 25.1232V26.9681L20.4054 29.4965L18.3838 26.9695V25.1232C18.6063 25.162 18.8316 25.1824 19.0577 25.1838ZM30.5136 42.0306H27.8181V41.6578C29.6153 39.5408 29.6153 36.434 27.8181 34.3169V33.2702H26.4703V34.618C26.4703 34.8302 26.5703 35.0299 26.7398 35.157C27.3462 35.6147 27.8181 37.0542 27.8181 37.9874C27.8181 38.9205 27.3462 40.3607 26.7398 40.8178C26.5703 40.9448 26.4703 41.1445 26.4703 41.3567V42.0306H14.3406V41.3567C14.3406 41.1445 14.2405 40.9448 14.0711 40.8178C13.4647 40.3601 12.9928 38.9205 12.9928 37.9874C12.9928 37.0542 13.4647 35.614 14.0711 35.157C14.2405 35.0299 14.3406 34.8302 14.3406 34.618V33.2702H12.9928V34.3169C11.1956 36.434 11.1956 39.5408 12.9928 41.6578V42.0306H10.2973V35.2919C10.3029 31.7208 12.8513 28.6601 16.3622 28.0073L15.7982 28.8529C15.6742 29.0371 15.6492 29.2708 15.7308 29.4771L19.7842 38.9347C19.8921 39.1785 20.1337 39.3354 20.4002 39.3354C20.6664 39.3354 20.9079 39.1785 21.0158 38.9347L25.0693 29.4771C25.1509 29.2708 25.1259 29.0371 25.0018 28.8529L24.4378 28.0073C27.9533 28.6555 30.507 31.7175 30.5136 35.2919V42.0306Z" fill="black"/>
<path d="M22.1711 17.7172C22.3784 17.806 22.6163 17.7843 22.8038 17.6593C22.9914 17.5342 23.1033 17.3227 23.101 17.0973C23.0983 16.9189 23.0286 16.7478 22.9055 16.6188L22.8045 16.5379C22.767 16.5126 22.7262 16.4922 22.6831 16.4774C22.6429 16.457 22.5992 16.4431 22.5544 16.4369C22.4254 16.4092 22.2912 16.4234 22.1711 16.4774C22.0878 16.5083 22.0118 16.5563 21.9487 16.6188C21.8253 16.7478 21.7555 16.9189 21.7532 17.0973C21.7516 17.2766 21.822 17.449 21.9487 17.5757C22.0141 17.6352 22.0895 17.683 22.1711 17.7172Z" fill="black"/>

</svg>
