<svg width="34" height="36" viewBox="0 0 34 36" fill="none" xmlns="http://www.w3.org/2000/svg">
<g clip-path="url(#clip0)">
<path d="M31.3691 29.082C30.9153 26.9941 29.0693 25.5039 26.9327 25.5011H21.5329L17.0001 30.0339L12.4672 25.5011H7.0675C4.93087 25.504 3.08483 26.9941 2.63101 29.082L1.70178 33.4335H32.2984L31.3691 29.082Z" fill="#F08AB7"/>
<path d="M10.2008 23.1892V23.1382C10.1612 23.1326 10.1215 23.1269 10.0875 23.1212C10.1215 23.1439 10.1612 23.1666 10.2008 23.1892Z" fill="#F9F5F2"/>
<path d="M26.06 9.40936C25.9349 4.40569 21.7771 0.450772 16.7734 0.576014C11.9459 0.696675 8.06072 4.58193 7.94006 9.40936C5.83171 10.6225 4.53307 12.8696 4.53479 15.302V16.4352C4.53366 19.7102 6.86806 22.5206 10.0875 23.1212C10.1215 23.1268 10.1612 23.1326 10.2008 23.1382V18.7017C8.94917 18.7017 7.93441 17.6869 7.93441 16.4353C7.93441 15.1837 8.94917 14.1689 10.2008 14.1689V13.6023H17.5666C19.9974 13.6041 22.2439 12.3077 23.4593 10.2027H23.7992V14.1689C25.0509 14.1689 26.0656 15.1837 26.0656 16.4353C26.0656 17.6869 25.0509 18.7017 23.7992 18.7017V23.1382C23.8389 23.1326 23.8786 23.1268 23.9125 23.1212C27.132 22.5206 29.4664 19.7102 29.4652 16.4352V15.302C29.4665 12.8696 28.1679 10.6225 26.06 9.40936Z" fill="#A05D35"/>
<path d="M23.7992 23.1892C23.8388 23.1666 23.8785 23.1439 23.9125 23.1212C23.8785 23.1269 23.8388 23.1326 23.7992 23.1382V23.1892Z" fill="#F9F5F2"/>
<path d="M7.93433 16.4353C7.93433 17.6869 8.94909 18.7017 10.2007 18.7017V14.1688C8.94856 14.1689 7.93433 15.1837 7.93433 16.4353Z" fill="#F9F5F2"/>
<path d="M26.0657 16.4353C26.0657 15.1837 25.0509 14.1689 23.7993 14.1689V18.7018C25.0509 18.7017 26.0657 17.687 26.0657 16.4353Z" fill="#F9F5F2"/>
<path d="M23.4593 10.2026C22.2439 12.3076 19.9973 13.604 17.5666 13.6023H10.2008V21.5347C10.2008 22.7864 11.2156 23.8011 12.4672 23.8011H21.5328C22.7845 23.8011 23.7992 22.7864 23.7992 21.5347V10.2026H23.4593Z" fill="#F9F5F2"/>
<path d="M21.5328 25.501V23.8011H12.4672V25.501L16.9999 30.0338L21.5328 25.501Z" fill="#F9F5F2"/>
<path d="M31.9227 28.9612C31.4037 26.6183 29.3322 24.9468 26.9327 24.9344H22.0995V24.3111C22.6004 24.2057 23.0633 23.966 23.4383 23.6175C23.4632 23.6402 23.4893 23.66 23.5177 23.6781C23.6038 23.728 23.7012 23.754 23.801 23.754C23.9001 23.7534 23.9982 23.7274 24.0843 23.6781L24.1262 23.6526C27.5632 22.9614 30.0347 19.9408 30.0319 16.4352V15.3021C30.0279 12.7818 28.7395 10.4372 26.6142 9.0825C26.515 7.25632 25.8946 5.49701 24.826 4.01309C21.7221 -0.307256 15.7036 -1.29373 11.3833 1.81012C9.02166 3.50707 7.55248 6.17974 7.38646 9.08303C5.26112 10.4378 3.9727 12.7818 3.96812 15.3021V16.4353C3.96639 19.9392 6.43625 22.9586 9.871 23.6516L9.91862 23.6811C9.99339 23.7236 10.0784 23.7451 10.1645 23.7445C10.2773 23.7428 10.3878 23.7117 10.4847 23.6539C10.5068 23.6392 10.5272 23.6228 10.5464 23.6046C10.9243 23.9599 11.3929 24.2047 11.9006 24.3112V24.9345H7.06745C4.66731 24.947 2.59522 26.6201 2.07679 28.9636L1.14756 33.3151C1.08241 33.621 1.27732 33.9219 1.58325 33.9876C1.62237 33.9961 1.66201 34.0001 1.70166 34.0001H32.2983C32.611 34.0001 32.8648 33.7462 32.8648 33.4335C32.8648 33.3939 32.8608 33.3542 32.8524 33.3151L31.9227 28.9612ZM13.0338 24.3678H20.9663V25.2664L17.0001 29.2326L13.0339 25.2664L13.0338 24.3678ZM24.5132 14.8981C24.5761 14.9276 24.6367 14.9605 24.6956 14.9973C24.7234 15.0143 24.7523 15.0313 24.7778 15.05C24.8446 15.0976 24.9081 15.1497 24.9676 15.2064C24.98 15.2183 24.9942 15.2285 25.0061 15.2404C25.0752 15.3106 25.1387 15.386 25.1947 15.467C25.21 15.4897 25.2231 15.5146 25.2378 15.5379C25.2763 15.5996 25.3114 15.6637 25.342 15.7294C25.3562 15.7605 25.3693 15.7923 25.3811 15.8246C25.4072 15.8908 25.4282 15.9594 25.4446 16.0286C25.4525 16.0597 25.4616 16.0897 25.4673 16.1215C25.5092 16.3271 25.5092 16.539 25.4673 16.7448C25.4616 16.7765 25.4525 16.8065 25.4446 16.8377C25.4282 16.9068 25.4066 16.9753 25.3811 17.0417C25.3687 17.0739 25.3562 17.1057 25.342 17.1363C25.3114 17.2026 25.2769 17.2666 25.2378 17.3283C25.223 17.3516 25.21 17.3765 25.1947 17.3992C25.1386 17.4802 25.0752 17.5556 25.0061 17.6258C24.9942 17.6377 24.98 17.648 24.9676 17.6598C24.9081 17.7165 24.8446 17.7686 24.7778 17.8162C24.7511 17.835 24.7211 17.852 24.6956 17.8689C24.6367 17.9057 24.5761 17.9385 24.5132 17.968C24.4826 17.9822 24.452 17.9969 24.4208 18.0094C24.4033 18.0162 24.384 18.0196 24.3642 18.0264V14.8398C24.3823 14.8466 24.401 14.85 24.4208 14.8568C24.452 14.8692 24.4826 14.8839 24.5132 14.8981ZM25.7773 9.9001C27.706 11.0163 28.8948 13.0742 28.8988 15.3021V16.4353C28.9021 19.2247 27.0499 21.6764 24.3659 22.4356V19.2116C24.3761 19.2116 24.3852 19.2049 24.3954 19.2025C24.5569 19.1674 24.7144 19.1187 24.8673 19.0558C24.9212 19.0337 24.9705 19.0042 25.0226 18.9787C25.1269 18.93 25.2277 18.8751 25.3252 18.8145C25.3818 18.7782 25.4323 18.7374 25.4855 18.6972C25.5705 18.6348 25.6521 18.568 25.7292 18.4966C25.7796 18.449 25.8267 18.3997 25.8737 18.3487C25.9439 18.2728 26.0097 18.193 26.0708 18.1096C26.1122 18.053 26.1519 17.9963 26.1892 17.9396C26.2454 17.849 26.2958 17.7561 26.3411 17.6597C26.3706 17.5997 26.4011 17.5407 26.4261 17.4784C26.468 17.3674 26.5031 17.254 26.5309 17.1385C26.5456 17.0818 26.5649 17.0286 26.5763 16.9713C26.6488 16.6161 26.6488 16.25 26.5763 15.8948C26.5649 15.8382 26.5456 15.7815 26.5309 15.7248C26.5025 15.6103 26.468 15.4976 26.4261 15.3877C26.4012 15.3253 26.3695 15.2664 26.3411 15.2064C26.2958 15.1101 26.2454 15.0171 26.1892 14.9265C26.1519 14.8698 26.1122 14.8132 26.0708 14.7565C26.0096 14.6732 25.9439 14.5933 25.8737 14.5174C25.8267 14.4663 25.7796 14.4171 25.7292 14.3695C25.6521 14.2981 25.5705 14.2312 25.4855 14.1689C25.4323 14.1287 25.3813 14.0879 25.3252 14.0516C25.2277 13.991 25.1269 13.936 25.0226 13.8874C24.9705 13.8619 24.9212 13.8307 24.8673 13.8103C24.7143 13.7474 24.5568 13.6987 24.3954 13.6636C24.3852 13.6636 24.3761 13.6568 24.3659 13.6545V10.2027C24.3648 10.1342 24.3512 10.0662 24.3257 10.0022C24.3178 9.98404 24.3087 9.96644 24.299 9.94944C24.2894 9.92507 24.2775 9.9013 24.2639 9.87858C24.286 9.83097 24.303 9.78223 24.3206 9.73408C24.3381 9.68594 24.3659 9.62584 24.388 9.57145C24.4905 9.32216 24.5795 9.06716 24.6537 8.80824C24.8373 8.15553 24.9308 7.48124 24.9325 6.80303V6.57638C25.2815 7.48688 25.4719 8.45071 25.494 9.42582C25.4997 9.62245 25.6068 9.80208 25.7773 9.9001ZM5.10134 16.4353V15.3021C5.10533 13.0742 6.29407 11.0163 8.22279 9.9001C8.39392 9.80149 8.50156 9.6202 8.50608 9.42244C8.62223 4.72982 12.5205 1.02028 17.2131 1.13642C19.8121 1.20104 22.2382 2.45094 23.7993 4.5304V6.80303C23.7987 7.37758 23.7199 7.94927 23.5647 8.50284C23.4265 8.99803 23.2259 9.47397 22.9687 9.91936C21.8508 11.8452 19.7934 13.0323 17.5667 13.0357H10.2008C9.88807 13.0357 9.63426 13.2895 9.63426 13.6023V13.6589C9.62404 13.6589 9.615 13.6657 9.60478 13.668C9.44328 13.7031 9.28576 13.7519 9.13283 13.8148C9.07897 13.8369 9.0297 13.8663 8.97757 13.8918C8.87331 13.9405 8.77244 13.9949 8.67502 14.0561C8.61837 14.0923 8.5679 14.1331 8.51412 14.1734C8.42971 14.2357 8.3481 14.3025 8.27107 14.3739C8.22066 14.4215 8.17358 14.4708 8.12657 14.5218C8.05631 14.5977 7.99056 14.6776 7.9294 14.7609C7.88803 14.8176 7.84839 14.8742 7.811 14.9309C7.75489 15.0216 7.70448 15.1145 7.65913 15.2108C7.62964 15.2709 7.5991 15.3298 7.57413 15.3921C7.53223 15.502 7.49763 15.6143 7.46934 15.7287C7.45519 15.7853 7.43534 15.8386 7.42398 15.8987C7.35147 16.2539 7.35147 16.62 7.42398 16.9752C7.43534 17.0318 7.45513 17.0885 7.46934 17.1452C7.49769 17.2597 7.53223 17.3718 7.57413 17.4817C7.59903 17.5441 7.63077 17.603 7.65913 17.663C7.70448 17.7594 7.75489 17.8523 7.811 17.9429C7.84839 17.9996 7.88803 18.0562 7.9294 18.1129C7.99056 18.1962 8.05631 18.2761 8.12657 18.3521C8.17358 18.4031 8.2206 18.4523 8.27107 18.5C8.3481 18.5713 8.42971 18.6382 8.51412 18.7005C8.56797 18.7407 8.6189 18.7815 8.67502 18.8178C8.7725 18.879 8.87331 18.9334 8.97757 18.9821C9.0297 19.0076 9.07897 19.0387 9.13283 19.0591C9.28583 19.122 9.44334 19.1707 9.60478 19.2059C9.615 19.2059 9.62404 19.2126 9.63426 19.215V22.4383C6.94851 21.6792 5.09623 19.2258 5.10134 16.4353ZM9.48744 17.9731C9.42455 17.9436 9.36332 17.9102 9.30442 17.8733C9.27666 17.8563 9.24778 17.8393 9.22228 17.8206C9.1554 17.773 9.09199 17.7209 9.03249 17.6642C9.02 17.6523 9.00586 17.6421 8.99397 17.6302C8.92484 17.56 8.86136 17.4846 8.80531 17.4036C8.79003 17.3809 8.77695 17.356 8.76228 17.3327C8.72316 17.271 8.68863 17.2069 8.65802 17.1407C8.64387 17.1101 8.63139 17.0783 8.6189 17.0466C8.5934 16.9798 8.57189 16.9112 8.55489 16.8421C8.54752 16.811 8.53849 16.7804 8.53277 16.7492C8.49087 16.5435 8.49087 16.3316 8.53277 16.1259C8.53842 16.0942 8.54752 16.0642 8.55542 16.033C8.57242 15.9634 8.5934 15.8954 8.6189 15.8285C8.63139 15.7967 8.64381 15.765 8.65802 15.7344C8.68863 15.6682 8.72316 15.6042 8.76228 15.5424C8.77702 15.5192 8.79003 15.4943 8.80531 15.4715C8.86142 15.3905 8.92484 15.3152 8.99397 15.2449C9.00586 15.233 9.02 15.2228 9.03249 15.2109C9.09199 15.1543 9.15547 15.1021 9.22228 15.0545C9.24891 15.0358 9.27892 15.0188 9.30442 15.0018C9.36332 14.9649 9.42395 14.9321 9.48684 14.9026C9.51745 14.8885 9.548 14.8738 9.57921 14.8613C9.59674 14.8545 9.61607 14.851 9.63586 14.8443V18.0354C9.61773 18.0286 9.59847 18.0251 9.57921 18.0178C9.54807 18.0014 9.51745 17.9867 9.48744 17.9731ZM10.7674 21.5347V14.1689H12.6248C12.5228 14.3406 12.4684 14.5361 12.4672 14.7355C12.4672 15.3616 12.9743 15.8687 13.6005 15.8687C14.2266 15.8687 14.7337 15.3616 14.7337 14.7355C14.7326 14.5361 14.6782 14.3406 14.5762 14.1689H17.5667C17.8126 14.1678 18.0585 14.1536 18.3033 14.1275C18.3469 14.123 18.3906 14.1196 18.4342 14.1145C18.6682 14.0862 18.8994 14.0471 19.1283 13.9967C19.1724 13.987 19.2155 13.9763 19.2597 13.966C19.411 13.9303 19.5589 13.8901 19.7039 13.8454C19.2155 14.2313 19.1327 14.94 19.5192 15.4284C19.905 15.9169 20.6138 15.9996 21.1022 15.6132C21.5906 15.2273 21.6734 14.5185 21.287 14.0301C21.0722 13.7587 20.7453 13.6012 20.3996 13.6023H20.3917C20.4739 13.5683 20.5532 13.5298 20.6337 13.4924C20.671 13.4754 20.7084 13.4596 20.747 13.442C20.9566 13.3412 21.1611 13.2307 21.36 13.1111C21.3985 13.0879 21.437 13.0635 21.4733 13.0397C21.6745 12.9134 21.87 12.7802 22.0603 12.6352C22.074 12.625 22.0864 12.6137 22.0995 12.6034C22.2807 12.4623 22.4541 12.3117 22.6213 12.1541C22.6502 12.1269 22.6779 12.1009 22.7085 12.0731C22.8785 11.9105 23.0343 11.7394 23.1862 11.5632C23.2003 11.5462 23.2173 11.5314 23.2316 11.5144V21.5348C23.2316 22.4737 22.4706 23.2346 21.5317 23.2346H12.4672C11.5284 23.2345 10.7674 22.4736 10.7674 21.5347ZM27.1122 32.8668L26.6244 29.9403L25.507 30.1273L25.9637 32.8668H8.03639L8.49306 30.1273L7.37571 29.9403L6.88788 32.8668H2.40205L3.18452 29.202C3.58853 27.3787 5.19996 26.0778 7.06745 26.0676H12.2326L16.5995 30.4344C16.8205 30.6554 17.1797 30.6554 17.4007 30.4344L21.7675 26.0676H26.9327C28.7996 26.0778 30.411 27.3776 30.8151 29.2003L31.5981 32.8668H27.1122Z" fill="#231F20"/>
</g>
<defs>
<clipPath id="clip0">
<rect width="34" height="34" fill="white"/>
</clipPath>
</defs>
</svg>
