<svg width="37" height="37" viewBox="0 0 37 37" fill="none" xmlns="http://www.w3.org/2000/svg">
<mask id="mask0" mask-type="alpha" maskUnits="userSpaceOnUse" x="0" y="0" width="37" height="37">
<circle cx="18.5" cy="18.5" r="18.5" fill="#C4C4C4"/>
</mask>
<g mask="url(#mask0)">
<g clip-path="url(#clip0)">
<path d="M23.6895 27.2072V25.4487H14.3107V27.2072L19.0001 31.8966L23.6895 27.2072Z" fill="#6D4A2F"/>
<path d="M33.8655 30.9119C33.396 28.7518 31.4862 27.2102 29.2758 27.2073H23.6895L19.0001 31.8967L14.3107 27.2073H8.72437C6.51391 27.2102 4.60413 28.7518 4.13464 30.9119L3.17334 35.4137H34.8269L33.8655 30.9119Z" fill="#24537E"/>
<path d="M9.62122 17.8285C9.62122 19.1234 10.671 20.1733 11.966 20.1733V15.4838C10.6704 15.4838 9.62122 16.5336 9.62122 17.8285Z" fill="#6D4A2F"/>
<path d="M28.3788 17.8285C28.3788 16.5336 27.329 15.4838 26.0341 15.4838V20.1732C27.3289 20.1732 28.3788 19.1233 28.3788 17.8285Z" fill="#6D4A2F"/>
<path d="M13.1382 13.1391C13.1376 12.7505 13.0409 12.3676 12.8568 12.0253C13.4073 11.5833 13.7267 10.9145 13.7244 10.2082C13.7256 10.1824 13.7232 10.1572 13.7185 10.1319C14.7566 9.86878 15.4829 8.93438 15.4829 7.86344C15.4841 7.58088 15.4319 7.30072 15.3305 7.03695C16.1406 6.64947 16.6565 5.83061 16.6553 4.9326C16.657 4.87164 16.6535 4.81068 16.6435 4.75092C16.5363 3.46011 15.4026 2.50114 14.1124 2.60898C13.0901 2.69398 12.2425 3.43375 12.0186 4.43436C11.8105 4.37512 11.596 4.34584 11.3796 4.34643C10.0848 4.34643 9.03489 5.39625 9.03489 6.69117C9.03369 6.97373 9.08589 7.2539 9.18729 7.51767C8.02492 8.07568 7.53484 9.47021 8.09232 10.6326C8.29047 11.0458 8.60637 11.3917 8.99969 11.6268C8.64508 12.0512 8.45045 12.5863 8.44865 13.1391C8.44865 14.4339 9.49847 15.4838 10.7934 15.4838C12.0884 15.4838 13.1382 14.4339 13.1382 13.1391Z" fill="#787D82"/>
<path d="M22.6694 7.03702C22.568 7.30079 22.5158 7.58102 22.517 7.86351C22.517 8.93445 23.2433 9.86885 24.2814 10.132C24.2767 10.1573 24.2744 10.1824 24.2756 10.2083C24.2732 10.9146 24.5927 11.5834 25.1431 12.0254C24.959 12.3677 24.8623 12.7505 24.8617 13.1392C24.8617 14.434 25.9116 15.4839 27.2065 15.4839C28.5013 15.4839 29.5512 14.4341 29.5512 13.1392C29.5495 12.5864 29.3548 12.0512 29.0002 11.6268C30.107 10.9656 30.468 9.53184 29.8068 8.42511C29.5717 8.03179 29.2259 7.71582 28.8126 7.51773C28.914 7.25397 28.9662 6.97373 28.965 6.69124C28.965 5.39639 27.9152 4.3465 26.6203 4.3465C26.404 4.34591 26.1895 4.37526 25.9813 4.43443C25.6988 3.17065 24.4456 2.37517 23.1818 2.65713C22.1806 2.88045 21.4414 3.72866 21.3564 4.75098C21.3465 4.81075 21.3429 4.87171 21.3447 4.93267C21.3435 5.83068 21.8588 6.64961 22.6694 7.03702Z" fill="#787D82"/>
<path d="M24.8618 13.1391C24.8624 12.7505 24.9591 12.3677 25.1431 12.0253C24.5927 11.5833 24.2733 10.9146 24.2756 10.2082C24.2744 10.1824 24.2768 10.1572 24.2815 10.132C23.2433 9.86879 22.517 8.93439 22.517 7.86346C22.5158 7.5809 22.568 7.30073 22.6694 7.03697C21.8594 6.64949 21.3435 5.83063 21.3447 4.93262C21.343 4.87166 21.3464 4.8107 21.3565 4.75093C20.5997 4.48424 19.8025 4.34705 19 4.34645C18.197 4.34473 17.3998 4.48185 16.6436 4.75093C16.6536 4.8107 16.6571 4.87166 16.6554 4.93262C16.6566 5.83063 16.1407 6.64955 15.3306 7.03697C15.432 7.30073 15.4842 7.58097 15.483 7.86346C15.483 8.93439 14.7567 9.86879 13.7186 10.132C13.7233 10.1572 13.7256 10.1824 13.7244 10.2082C13.7268 10.9146 13.4074 11.5833 12.8569 12.0253C13.041 12.3677 13.1377 12.7504 13.1383 13.1391C13.14 13.9768 12.6922 14.7505 11.9659 15.1673V23.1041C11.9659 24.3989 13.0158 25.4488 14.3107 25.4488H23.6895C24.9844 25.4488 26.0343 24.399 26.0343 23.1041V15.1673C25.3073 14.7505 24.86 13.9768 24.8618 13.1391Z" fill="#6D4A2F"/>
<path d="M34.4387 30.787C33.9012 28.3638 31.7582 26.6346 29.2757 26.6211H24.2756V25.9763C25.6391 25.6961 26.6186 24.4962 26.6204 23.104V20.7007C28.1995 20.3854 29.2242 18.8496 28.9088 17.2704C28.8056 16.7529 28.5636 16.2728 28.2089 15.8824C29.7241 15.3372 30.5102 13.6672 29.9651 12.1519C29.917 12.0177 29.8589 11.8876 29.7915 11.7615C30.9721 10.663 31.0377 8.8154 29.9392 7.63483C29.8055 7.49119 29.6579 7.3617 29.4984 7.24795C29.5341 7.06447 29.5517 6.87806 29.5511 6.69106C29.5494 5.07321 28.2381 3.76195 26.6202 3.76016C26.5394 3.76016 26.4596 3.76368 26.3799 3.77012C25.7439 2.28707 24.0258 1.60129 22.5434 2.23726C21.7749 2.5673 21.1846 3.21031 20.9214 4.0046C19.6605 3.67987 18.3387 3.67987 17.0779 4.0046C16.5708 2.47294 14.9178 1.64233 13.3861 2.14934C12.5924 2.41198 11.95 3.0022 11.62 3.77012C11.5403 3.76368 11.4606 3.76016 11.3797 3.76016C9.76182 3.76188 8.45056 5.07321 8.44876 6.69106C8.44876 6.87687 8.46636 7.06214 8.50149 7.24443C7.18844 8.18056 6.88244 10.0035 7.81804 11.3166C7.93292 11.4778 8.06367 11.6261 8.20844 11.7609C7.44756 13.18 7.9816 14.9474 9.4007 15.7082C9.52614 15.7756 9.65683 15.8337 9.7911 15.8818C8.70901 17.074 8.79813 18.9182 9.99039 20.0002C10.3814 20.3554 10.8614 20.5975 11.3796 20.7007V23.104C11.3813 24.4961 12.3609 25.6961 13.7243 25.9762V26.621H8.72428C6.24122 26.6345 4.09756 28.3649 3.56126 30.7894L2.5999 35.2912C2.5325 35.6078 2.73411 35.919 3.05067 35.987C3.09111 35.9958 3.13215 35.9999 3.17319 35.9999H34.8267C35.1503 35.9999 35.4129 35.7373 35.4129 35.4138C35.4129 35.3727 35.4088 35.3317 35.4 35.2912L34.4387 30.787ZM14.8967 26.0349H23.1032V26.9646L19 31.0679L14.8967 26.9646V26.0349ZM26.6202 19.4867V16.1702C27.5358 16.4932 28.0165 17.4978 27.6936 18.4134C27.5159 18.9152 27.1215 19.3097 26.6202 19.4867ZM23.6894 3.17406C24.5153 3.17758 25.2293 3.75206 25.4087 4.55863C25.4773 4.87519 25.7891 5.07567 26.1056 5.00707C26.1185 5.00415 26.1308 5.00122 26.1437 4.9977C26.2984 4.95374 26.4591 4.9315 26.6202 4.93263C27.5916 4.93263 28.3787 5.71987 28.3787 6.69113C28.3799 6.90157 28.3418 7.11022 28.2662 7.30658C28.156 7.59206 28.2838 7.91387 28.5593 8.04635C29.1643 8.33827 29.5494 8.9502 29.5511 9.62197C29.5553 10.238 29.2311 10.8096 28.7006 11.1231C28.4222 11.2878 28.3295 11.6472 28.4943 11.9262C28.5101 11.9532 28.5283 11.9784 28.5482 12.0024C28.8149 12.3213 28.9621 12.7234 28.965 13.139C28.965 14.1104 28.1777 14.8975 27.2065 14.8975C26.2351 14.8975 25.448 14.1103 25.448 13.139C25.4492 12.8471 25.5218 12.5593 25.6596 12.302C25.7933 12.0528 25.7299 11.744 25.5095 11.5675C25.101 11.2369 24.8635 10.7393 24.8647 10.2135C24.9064 9.91741 24.7188 9.63784 24.4292 9.564C23.6502 9.36763 23.1038 8.66711 23.1032 7.86347C23.102 7.65303 23.1402 7.44438 23.2158 7.24801C23.326 6.96253 23.1982 6.64073 22.9227 6.50825C22.3177 6.21633 21.9326 5.60439 21.9308 4.93263C21.9308 4.90859 21.9308 4.88222 21.9308 4.86403C21.9355 4.84059 21.9385 4.81715 21.9402 4.7937C22.0123 3.88035 22.7732 3.17578 23.6894 3.17406ZM9.03493 13.139C9.03726 12.7229 9.18441 12.3202 9.4517 12.0007C9.65862 11.7516 9.62462 11.3823 9.37546 11.1753C9.35142 11.1554 9.32626 11.1372 9.29923 11.1214C8.76931 10.8084 8.44518 10.2375 8.4487 9.62197C8.44989 8.9502 8.83439 8.3388 9.43935 8.04635C9.71487 7.91387 9.84263 7.59206 9.73246 7.30658C9.65742 7.11022 9.61931 6.90151 9.6211 6.69113C9.6211 5.71981 10.4083 4.93263 11.3796 4.93263C11.5408 4.93143 11.7014 4.95374 11.8561 4.9977C12.1674 5.08742 12.4921 4.90746 12.5818 4.59674C12.5853 4.58446 12.5889 4.57151 12.5912 4.55863C12.804 3.61081 13.7448 3.01521 14.6926 3.22798C15.4405 3.39619 15.9933 4.0293 16.059 4.79304C16.059 4.80181 16.066 4.84756 16.0672 4.85692C16.0695 4.88216 16.0701 4.90733 16.0689 4.93256C16.0678 5.60433 15.6833 6.21573 15.0783 6.50818C14.8028 6.64066 14.675 6.96247 14.7852 7.24795C14.8602 7.44431 14.8983 7.65303 14.8965 7.8634C14.8959 8.66585 14.3514 9.36578 13.5735 9.56333C13.2834 9.63718 13.0958 9.91794 13.138 10.214C13.1397 10.7398 12.9023 11.2374 12.4932 11.5675C12.2728 11.7439 12.2095 12.0528 12.3431 12.3019C12.4803 12.5598 12.5517 12.8471 12.5517 13.139C12.5511 13.7662 12.2159 14.3459 11.6725 14.659C10.8348 15.1466 9.76035 14.8624 9.27267 14.0247C9.11641 13.7563 9.0344 13.4503 9.03493 13.139ZM10.2073 17.8285C10.2085 17.0834 10.6774 16.4193 11.3797 16.1702V19.4867C10.6774 19.2376 10.2079 18.5735 10.2073 17.8285ZM12.552 23.104V15.4837L12.5638 15.4738C12.6007 15.4456 12.6341 15.4151 12.6693 15.3846C12.7279 15.3366 12.7865 15.288 12.8381 15.2358C12.8756 15.1994 12.9096 15.1607 12.9448 15.1221C12.9911 15.0717 13.0374 15.0213 13.0802 14.9673C13.113 14.9257 13.1441 14.8823 13.1752 14.839C13.2144 14.7845 13.2519 14.7287 13.2871 14.6713C13.3147 14.6255 13.341 14.5805 13.3663 14.5336C13.3991 14.4749 13.429 14.4123 13.4571 14.3501C13.4788 14.3026 13.4999 14.2557 13.5187 14.2077C13.545 14.1408 13.5674 14.0734 13.5884 14.0048C13.6031 13.958 13.6183 13.9122 13.6306 13.8647C13.6506 13.7874 13.6646 13.7088 13.6781 13.6303C13.6852 13.5892 13.6945 13.55 13.6998 13.5089C13.7591 13.0582 13.711 12.5998 13.558 12.1712C13.9648 11.7234 14.2209 11.1595 14.2907 10.5587C15.3705 10.0986 16.0703 9.037 16.0692 7.86347C16.0692 7.67766 16.0516 7.49239 16.0165 7.3101C16.1067 7.24503 16.1935 7.1753 16.2756 7.10026C16.3032 7.07562 16.3278 7.04753 16.3548 7.0217C16.407 6.9701 16.4591 6.9191 16.5072 6.86458C16.5364 6.83118 16.5629 6.79539 16.591 6.76086C16.632 6.70926 16.673 6.65766 16.7082 6.60374C16.7345 6.56562 16.7586 6.52578 16.7838 6.48653C16.8178 6.43261 16.8506 6.37809 16.8811 6.32238C16.9039 6.28014 16.9245 6.23797 16.9456 6.19461C16.9725 6.13597 16.9989 6.0774 17.0223 6.02169C17.0405 5.97773 17.0569 5.93317 17.0727 5.88801C17.0939 5.82938 17.1126 5.76669 17.1314 5.70513C17.1443 5.65938 17.156 5.61369 17.1666 5.5674C17.1813 5.50352 17.1923 5.43904 17.2023 5.37396C17.2093 5.32881 17.217 5.28312 17.2216 5.23736C17.2216 5.21744 17.2281 5.19812 17.2299 5.17873C18.3864 4.85161 19.6115 4.85161 20.7681 5.17873C20.7681 5.19865 20.7739 5.21797 20.7763 5.23736C20.781 5.28192 20.7886 5.32648 20.7956 5.37104C20.8056 5.43672 20.8167 5.50233 20.8313 5.56681C20.8419 5.61309 20.8542 5.65825 20.8665 5.7034C20.8835 5.76496 20.9023 5.82592 20.9252 5.88629C20.941 5.93144 20.958 5.97653 20.9756 6.02049C20.9996 6.07913 21.0254 6.1377 21.0523 6.19282C21.0735 6.23618 21.094 6.27901 21.1168 6.32058C21.1473 6.37922 21.1807 6.43082 21.2147 6.48474C21.2393 6.52399 21.2634 6.5639 21.2897 6.60195C21.3279 6.65647 21.3695 6.70866 21.4111 6.76019C21.4386 6.79419 21.4644 6.82939 21.4937 6.86219C21.5418 6.91731 21.5945 6.96891 21.6473 7.02044C21.6737 7.0462 21.6983 7.07376 21.7253 7.0984C21.808 7.17284 21.8941 7.24317 21.9844 7.30824C21.9487 7.49113 21.9311 7.67693 21.9311 7.86333C21.9311 9.03627 22.631 10.0955 23.7096 10.5556C23.7793 11.1565 24.0355 11.7204 24.4423 12.1682C24.2893 12.5967 24.2412 13.055 24.3005 13.5059C24.3057 13.5463 24.3151 13.5862 24.3222 13.6266C24.3357 13.7058 24.3497 13.7848 24.3697 13.8611C24.3819 13.908 24.3972 13.9537 24.4119 14C24.433 14.0686 24.4553 14.1366 24.4816 14.2034C24.5004 14.2515 24.5215 14.2984 24.5403 14.3452C24.569 14.408 24.5989 14.4695 24.6317 14.5299C24.6569 14.5762 24.6827 14.6214 24.7103 14.6665C24.746 14.7252 24.7841 14.7808 24.8239 14.8359C24.8544 14.8787 24.8826 14.9209 24.9172 14.962C24.9611 15.0171 25.0086 15.0698 25.0567 15.1214C25.0901 15.1577 25.1224 15.1952 25.1581 15.2298C25.2167 15.2885 25.2753 15.3377 25.3393 15.3893C25.3703 15.4151 25.3979 15.4432 25.4319 15.4678L25.4483 15.4837V23.104C25.4483 24.0753 24.6611 24.8625 23.6898 24.8625H14.3106C13.3393 24.8625 12.552 24.0754 12.552 23.104ZM29.4614 34.8276L28.9567 31.8006L27.8008 31.9928L28.2733 34.8276H9.72669L10.1992 31.9928L9.04323 31.8006L8.53855 34.8276H3.89768L4.70717 31.0368C5.12453 29.1505 6.79219 27.804 8.72422 27.7934H14.0678L18.5855 32.3111C18.8141 32.5398 19.1857 32.5398 19.4144 32.3111L23.932 27.7934H29.2756C31.2071 27.804 32.8742 29.1493 33.2927 31.0344L34.1022 34.8275H29.4614V34.8276Z" fill="#231F20"/>
<path d="M22.5158 17.8266C23.1633 17.8266 23.6882 17.3017 23.6882 16.6543C23.6882 16.0068 23.1633 15.4819 22.5158 15.4819C21.8684 15.4819 21.3435 16.0068 21.3435 16.6543C21.3435 17.3017 21.8684 17.8266 22.5158 17.8266Z" fill="#231F20"/>
<path d="M15.4817 17.8266C16.1291 17.8266 16.654 17.3017 16.654 16.6543C16.654 16.0068 16.1291 15.4819 15.4817 15.4819C14.8342 15.4819 14.3093 16.0068 14.3093 16.6543C14.3093 17.3017 14.8342 17.8266 15.4817 17.8266Z" fill="#231F20"/>
</g>
</g>
<defs>
<clipPath id="clip0">
<rect x="2" y="2" width="34" height="34" fill="white"/>
</clipPath>
</defs>
</svg>
