<svg width="34" height="35" viewBox="0 0 34 35" fill="none" xmlns="http://www.w3.org/2000/svg">

<path d="M28.6111 12.1891C27.8949 11.4705 27.025 10.9243 26.0668 10.5911V9.63342C26.0668 4.62579 22.0078 0.566772 17.0001 0.566772C11.9925 0.566772 7.93342 4.62579 7.93342 9.63342V10.5911C4.39403 11.8462 2.54216 15.733 3.79678 19.2724C4.7584 21.9845 7.32315 23.7978 10.2001 23.8001V18.7001C8.94837 18.7001 7.93349 17.6852 7.93349 16.4334C7.93349 15.1817 8.94837 14.1668 10.2001 14.1668V10.2001H12.5235C15.0089 14.1022 19.1875 16.6051 23.8001 16.9547C24.1741 16.9831 24.5538 17.0001 24.9335 17.0001H25.9931C25.7364 18.0013 24.8337 18.7007 23.8001 18.7001V23.8001C27.5577 23.7978 30.6024 20.7497 30.6001 16.9922C30.599 15.1907 29.8839 13.4635 28.6111 12.1891Z" fill="#FDCA6E"/>
<path d="M7.93335 16.4335C7.93335 17.6852 8.94824 18.7001 10.2 18.7001V14.1667C8.9483 14.1667 7.93335 15.1817 7.93335 16.4335Z" fill="#F9F5F2"/>
<path d="M25.993 17.0001H24.9334C24.5538 17.0001 24.174 16.9831 23.8 16.9547V18.7001C24.8336 18.7007 25.7363 18.0013 25.993 17.0001Z" fill="#F9F5F2"/>
<path d="M12.5233 10.2001H10.2V21.5334C10.2 22.7852 11.2148 23.8001 12.4666 23.8001H21.5332C22.785 23.8001 23.7999 22.7852 23.7999 21.5334V16.9548C19.1873 16.6051 15.0088 14.1022 12.5233 10.2001Z" fill="#F9F5F2"/>
<path d="M21.5333 25.5002V23.8002H12.4667V25.5002L17 30.0335L21.5333 25.5002Z" fill="#F9F5F2"/>
<path d="M31.3707 29.0814C30.9168 26.9932 29.0706 25.5029 26.9337 25.5H22.6933L21.5333 33.4334H32.3L31.3707 29.0814Z" fill="#787D82"/>
<path d="M21.5334 25.5L17.0001 30.0334L12.4667 25.5H11.3334L12.4667 33.4334H21.5334L22.6934 25.5H21.5334Z" fill="#F08AB7"/>
<path d="M11.3334 25.5H7.06643C4.92954 25.5029 3.08332 26.9931 2.62943 29.0814L1.70007 33.4334H12.4667L11.3334 25.5Z" fill="#787D82"/>
<path d="M13.6 15.8667C14.226 15.8667 14.7334 15.3593 14.7334 14.7333C14.7334 14.1074 14.226 13.6 13.6 13.6C12.9741 13.6 12.4667 14.1074 12.4667 14.7333C12.4667 15.3593 12.9741 15.8667 13.6 15.8667Z" fill="#231F20"/>
<path d="M31.9244 28.9606C31.4053 26.6175 29.3336 24.9458 26.9337 24.9334H22.1001V24.31C22.5126 24.2227 22.8997 24.0436 23.2334 23.7859V23.8C23.2334 24.1128 23.4873 24.3666 23.8001 24.3666C27.8687 24.3666 31.1667 21.0686 31.1667 17C31.1667 14.0261 29.3783 11.3441 26.6334 10.2V9.63336C26.6334 4.31289 22.3205 0 17.0001 0C11.6797 0 7.36672 4.31289 7.36672 9.63336V10.2068C3.61258 11.768 1.83495 16.0775 3.39609 19.8317C4.53908 22.5795 7.22395 24.3696 10.2001 24.3667C10.5129 24.3667 10.7667 24.1128 10.7667 23.8001V23.7853C11.1005 24.0432 11.4875 24.2222 11.9001 24.3095V24.9334H7.06643C4.66605 24.9458 2.59371 26.6192 2.07521 28.963L1.14585 33.315C1.08071 33.621 1.27561 33.9218 1.58161 33.9876C1.62072 33.9961 1.66037 34.0001 1.70001 34.0001H32.3C32.6128 34.0001 32.8667 33.7462 32.8667 33.4334C32.8667 33.3938 32.8627 33.3541 32.8542 33.315L31.9244 28.9606ZM12.2321 26.0666L16.5994 30.4339C16.8204 30.6549 17.1796 30.6549 17.4006 30.4339L21.7679 26.0666H22.0377L21.0438 32.8666H12.958L11.9867 26.0666H12.2321ZM20.9667 25.2654L17.0001 29.232L13.0334 25.2654V24.3666H20.9668L20.9667 25.2654ZM24.9334 17.5666H25.0682C24.9804 17.6635 24.8812 17.7503 24.773 17.8239C24.7384 17.8477 24.701 17.8658 24.6648 17.8874C24.5877 17.9344 24.5072 17.9746 24.4234 18.0081C24.4046 18.0155 24.3854 18.0206 24.3667 18.0274V17.5548C24.5605 17.5627 24.7486 17.5666 24.9334 17.5666ZM8.50008 9.63336C8.50008 4.9391 12.3058 1.13336 17.0001 1.13336C21.6943 1.13336 25.5001 4.9391 25.5001 9.63336V10.591C25.5001 10.833 25.6537 11.0477 25.882 11.1265C28.3747 12.002 30.0402 14.3582 30.0334 17C30.0294 20.2215 27.5746 22.9109 24.3667 23.2079V19.21C24.4681 19.1879 24.5679 19.1601 24.666 19.1267C24.6897 19.1194 24.7152 19.1148 24.7391 19.1069C24.8757 19.0587 25.0082 19.0004 25.1357 18.9324C25.1708 18.9136 25.2026 18.8904 25.2371 18.8706C25.3266 18.8185 25.4134 18.7618 25.4966 18.7006C25.538 18.6695 25.5765 18.6349 25.6168 18.602C25.687 18.5425 25.755 18.4813 25.8196 18.4156C25.8581 18.3765 25.895 18.3362 25.933 18.2949C25.9931 18.2263 26.0463 18.1543 26.103 18.0801C26.1347 18.0359 26.1665 17.9928 26.1954 17.947C26.2475 17.8626 26.2951 17.7752 26.3381 17.6857C26.3591 17.6438 26.3824 17.6041 26.401 17.5605C26.4605 17.4245 26.5093 17.2834 26.5466 17.1395C26.6237 16.8363 26.4401 16.528 26.1369 16.451C26.0899 16.4391 26.0417 16.4328 25.9929 16.4334H24.9333C24.5899 16.4334 24.2329 16.4192 23.8424 16.3897C19.4111 16.0418 15.3986 13.6386 13.001 9.89513C12.8967 9.7319 12.7171 9.63336 12.5232 9.63336H10.1999C9.94262 9.63508 9.68536 9.64976 9.42923 9.67811C9.35559 9.68548 9.28248 9.69624 9.20936 9.70587C9.01499 9.7325 8.82288 9.7665 8.63309 9.80787C8.58886 9.8175 8.54357 9.82089 8.49994 9.83164L8.50008 9.63336ZM9.48661 17.9713C9.42372 17.9418 9.3625 17.9084 9.30359 17.8715C9.27584 17.8545 9.24695 17.8375 9.22145 17.8188C9.15458 17.7712 9.09109 17.719 9.03159 17.6624C9.01911 17.6505 9.00496 17.6403 8.99308 17.6284C8.92395 17.5581 8.86046 17.4828 8.80435 17.4018C8.78908 17.3791 8.776 17.3541 8.76125 17.3309C8.72214 17.2691 8.68761 17.2051 8.657 17.1388C8.64285 17.1082 8.63037 17.0764 8.61788 17.0447C8.59238 16.9778 8.57087 16.9093 8.55387 16.8401C8.5465 16.8089 8.53746 16.7783 8.53175 16.7472C8.48985 16.5415 8.48985 16.3296 8.53175 16.1238C8.5374 16.0921 8.5465 16.0621 8.5544 16.0309C8.5714 15.9612 8.59238 15.8932 8.61788 15.8263C8.63037 15.7946 8.64278 15.7629 8.657 15.7322C8.68761 15.666 8.72214 15.6019 8.76125 15.5401C8.776 15.5169 8.78901 15.492 8.80435 15.4693C8.86046 15.3883 8.92395 15.3129 8.99308 15.2426C9.00496 15.2307 9.01918 15.2205 9.03159 15.2086C9.09109 15.152 9.15458 15.0999 9.22145 15.0522C9.24808 15.0335 9.27809 15.0165 9.30359 14.9995C9.3625 14.9627 9.42319 14.9298 9.48608 14.9004C9.51669 14.8862 9.54731 14.8715 9.57845 14.859C9.59605 14.8522 9.6153 14.8488 9.63509 14.842V18.0335C9.61696 18.0267 9.59771 18.0233 9.57845 18.0159C9.54724 17.9996 9.51662 17.9849 9.48661 17.9713ZM9.63337 23.2084C6.20501 22.8939 3.68111 19.86 3.99501 16.4316C4.21714 14.008 5.82988 11.9351 8.12488 11.1242C8.34077 11.0489 8.56064 10.9865 8.78337 10.9366C8.84001 10.9225 8.90064 10.91 8.95961 10.8981C9.16646 10.855 9.37551 10.8228 9.58575 10.8018L9.63337 10.7933V13.6566C9.62314 13.6566 9.61411 13.6634 9.60388 13.6657C9.44238 13.7009 9.28487 13.7496 9.13187 13.8125C9.07801 13.8346 9.02874 13.8641 8.97661 13.8896C8.87235 13.9383 8.77148 13.9927 8.674 14.054C8.61735 14.0902 8.56688 14.1311 8.51309 14.1712C8.42869 14.2336 8.34708 14.3005 8.26998 14.3718C8.21958 14.4195 8.1725 14.4687 8.12548 14.5197C8.05522 14.5956 7.98948 14.6756 7.92825 14.7589C7.88688 14.8155 7.84724 14.8722 7.80985 14.9289C7.75374 15.0195 7.70333 15.1125 7.65798 15.2088C7.6285 15.2689 7.59788 15.3278 7.57298 15.3901C7.53108 15.5 7.49648 15.6122 7.46812 15.7267C7.45398 15.7834 7.43412 15.8366 7.42277 15.8967C7.35025 16.252 7.35025 16.6181 7.42277 16.9734C7.43412 17.03 7.45391 17.0867 7.46812 17.1434C7.49648 17.2579 7.53101 17.37 7.57298 17.48C7.59788 17.5423 7.62962 17.6012 7.65798 17.6613C7.70333 17.7577 7.75374 17.8506 7.80985 17.9412C7.84724 17.9979 7.88695 18.0546 7.92825 18.1112C7.98948 18.1945 8.05516 18.2745 8.12548 18.3504C8.1725 18.4014 8.21958 18.4506 8.26998 18.4983C8.34708 18.5696 8.42862 18.6365 8.51309 18.6989C8.56695 18.7391 8.61795 18.7799 8.674 18.8161C8.77148 18.8774 8.87235 18.9318 8.97661 18.9805C9.02874 19.006 9.07801 19.0371 9.13187 19.0576C9.28487 19.1205 9.44238 19.1692 9.60388 19.2044C9.61411 19.2044 9.62314 19.2111 9.63337 19.2135V23.2124V23.2084ZM10.7667 21.5334V10.7666H12.2168C14.7266 14.5095 18.7556 16.9592 23.2334 17.4646V21.5333C23.2334 22.4723 22.4724 23.2333 21.5334 23.2333H12.4667C11.5277 23.2334 10.7667 22.4723 10.7667 21.5334ZM3.18299 29.2015C3.58701 27.378 5.19862 26.0769 7.06637 26.0667H10.8421L11.8134 32.8667H8.03537L8.49211 30.1269L7.37462 29.9399L6.88674 32.8667H2.40046L3.18299 29.2015ZM27.1134 32.8666L26.6255 29.9398L25.508 30.1268L25.9647 32.8666H22.189L23.1829 26.0666H26.9337C28.8008 26.0769 30.4124 27.3768 30.8164 29.1998L31.5996 32.8666H27.1134Z" fill="#231F20"/>


</svg>
