<svg width="37" height="37" viewBox="0 0 37 37" fill="none" xmlns="http://www.w3.org/2000/svg">
<mask id="mask0" mask-type="alpha" maskUnits="userSpaceOnUse" x="0" y="0" width="37" height="37">
<circle cx="18.5" cy="18.5" r="18.5" fill="#C4C4C4"/>
</mask>
<g mask="url(#mask0)">
<g clip-path="url(#clip0)">
<path d="M13.143 27.1219C12.8109 27.4237 12.3774 27.5906 11.9287 27.5895H13.143V27.1219Z" fill="#F9F5F2"/>
<path d="M22.8572 27.5895H24.0715C23.6228 27.5906 23.1893 27.4237 22.8572 27.1219V27.5895Z" fill="#F9F5F2"/>
<path d="M10.7143 21.5181V21.6274H10.7204C10.7155 21.5915 10.7137 21.5545 10.7143 21.5181Z" fill="#F9F5F2"/>
<path d="M25.2857 21.6274V21.5181C25.2869 21.5545 25.2845 21.5909 25.2797 21.6274H25.2857Z" fill="#F9F5F2"/>
<path d="M8.28577 17.8751C8.28577 19.2164 9.37317 20.3037 10.7143 20.3037V15.4465C9.37317 15.4465 8.28577 16.5339 8.28577 17.8751Z" fill="#F9F5F2"/>
<path d="M27.7143 17.8752C27.7143 16.534 26.6269 15.4467 25.2858 15.4467V20.3038C26.6269 20.3037 27.7143 19.2163 27.7143 17.8752Z" fill="#F9F5F2"/>
<path d="M14.685 11.1964H21.315C21.913 13.0877 23.3944 14.5691 25.2857 15.1671V11.1964C25.2911 7.17775 22.0381 3.91621 18.0194 3.91077C18.0127 3.91077 18.0066 3.91077 17.9999 3.91077C14.6776 3.91077 11.7755 6.15782 10.9449 9.37506C10.7907 9.97006 10.713 10.5821 10.7142 11.1965V15.1672C12.6062 14.5703 14.0882 13.0883 14.685 11.1964Z" fill="#787D82"/>
<path d="M21.6429 27.5892C21.4996 27.5886 21.3575 27.5722 21.2179 27.5407C20.8748 27.9578 20.3618 28.1988 19.8214 28.1964C19.5021 28.1958 19.1882 28.1125 18.9107 27.9535C18.3467 28.2771 17.6533 28.2771 17.0893 27.9535C16.8118 28.1125 16.4979 28.1958 16.1786 28.1964C15.6382 28.1988 15.1252 27.9578 14.7821 27.5407C14.6425 27.5722 14.5004 27.5886 14.3571 27.5892C13.9084 27.5904 13.4749 27.4235 13.1428 27.1217V28.8035C13.1471 30.1428 14.232 31.2278 15.5714 31.232H20.4285C21.7678 31.2278 22.8528 30.1428 22.857 28.8035V27.1217C22.525 27.4235 22.0921 27.5905 21.6429 27.5892Z" fill="#F9F5F2"/>
<path d="M28.6433 27.5891H27.7144V32.4463L28.3215 36.0891H34.393L33.3973 31.4263C32.9115 29.189 30.9328 27.5922 28.6433 27.5891Z" fill="#FDCA6E"/>
<path d="M27.7144 32.4463V27.5891H25.2858V32.4463H10.7144V27.5891H8.28586V32.4463L7.67871 36.0891H28.3215L27.7144 32.4463Z" fill="#24537E"/>
<path d="M25.2857 32.4463V27.5891H22.8572V28.8034C22.8529 30.1428 21.768 31.2277 20.4286 31.232H15.5714C14.2321 31.2277 13.1471 30.1428 13.1429 28.8034V27.5891H10.7144V32.4463H25.2857Z" fill="#FDCA6E"/>
<path d="M8.28577 27.5891H7.35682C5.06727 27.5922 3.08923 29.1889 2.60287 31.4263L1.60718 36.0891H7.67862L8.28577 32.4463V27.5891Z" fill="#FDCA6E"/>
<path d="M14.3572 27.5893C14.5005 27.5887 14.6425 27.5723 14.7822 27.5408C15.1252 27.9579 15.6382 28.199 16.1786 28.1965C16.498 28.1959 16.8119 28.1127 17.0893 27.9536C17.6534 28.2772 18.3467 28.2772 18.9108 27.9536C19.1882 28.1127 19.5021 28.1959 19.8215 28.1965C20.3618 28.199 20.8749 27.9579 21.2179 27.5408C21.3576 27.5723 21.4996 27.5887 21.6429 27.5893C22.0916 27.5905 22.5251 27.4236 22.8572 27.1218C23.1893 27.4236 23.6228 27.5905 24.0715 27.5893C25.08 27.5869 25.8954 26.7679 25.893 25.7594C25.8924 25.4497 25.8128 25.1456 25.6623 24.8754C26.508 24.3308 26.7527 23.204 26.2081 22.3582C25.9901 22.0194 25.6659 21.762 25.2858 21.6272H25.2798C25.2846 21.5908 25.2871 21.5544 25.2858 21.5179C25.2822 20.5119 24.4638 19.6995 23.4577 19.7032C22.7 19.7056 22.0237 20.1774 21.7583 20.8865C21.2508 20.3322 20.4505 20.1524 19.7548 20.4372C19.4961 19.4682 18.501 18.8919 17.5321 19.1506C16.9037 19.3181 16.4131 19.8087 16.2455 20.4372C15.5497 20.1524 14.7495 20.3321 14.242 20.8865C13.8898 19.9442 12.8401 19.4658 11.8978 19.8185C11.1886 20.0838 10.7175 20.7602 10.7145 21.5179C10.7133 21.5544 10.7157 21.5908 10.7205 21.6272H10.7145C9.76673 21.9636 9.27067 23.0048 9.60702 23.9531C9.74182 24.3332 9.99862 24.6575 10.338 24.8754C9.84748 25.7563 10.1638 26.868 11.0447 27.3586C11.3149 27.5091 11.6191 27.5887 11.9287 27.5893C12.3774 27.5905 12.8109 27.4235 13.143 27.1218C13.4756 27.4236 13.9085 27.5906 14.3572 27.5893Z" fill="#787D82"/>
<path d="M21.315 11.1965H14.685C14.0882 13.0884 12.6062 14.5704 10.7144 15.1672V21.5179C10.718 20.5119 11.5364 19.6995 12.5424 19.7032C13.3001 19.7056 13.9765 20.1774 14.2418 20.8865C14.7494 20.3322 15.5496 20.1524 16.2454 20.4372C16.504 19.4682 17.4991 18.892 18.4681 19.1506C19.0965 19.3181 19.5871 19.8088 19.7547 20.4372C20.4505 20.1524 21.2507 20.3321 21.7582 20.8865C22.1104 19.9442 23.1601 19.4658 24.1024 19.8185C24.8122 20.0838 25.2833 20.7602 25.2857 21.5179V15.1672C23.3945 14.5692 21.9131 13.0878 21.315 11.1965Z" fill="#F9F5F2"/>
<path d="M33.9903 31.2977C33.4348 28.7872 31.2145 26.9956 28.6432 26.9822H26.1624C26.381 26.6149 26.4976 26.1954 26.5 25.7679C26.5 25.5274 26.4648 25.2888 26.3955 25.0588C27.3427 24.1135 27.3445 22.5786 26.3992 21.6308C26.2486 21.4796 26.078 21.3491 25.8928 21.2429V20.8501C27.5358 20.5161 28.5976 18.9139 28.2637 17.271C28.0215 16.0767 27.0877 15.1429 25.8928 14.9001V11.1965C25.8928 6.83725 22.3593 3.30371 18 3.30371C13.6407 3.30371 10.1072 6.83725 10.1072 11.1965V14.9C8.46421 15.234 7.40238 16.8362 7.73627 18.4791C7.97911 19.6739 8.91232 20.6072 10.1072 20.85V21.2435C8.94692 21.9113 8.54801 23.3934 9.21646 24.553C9.32331 24.7382 9.45386 24.9082 9.6044 25.0593C9.53581 25.2894 9.50061 25.528 9.49995 25.7679C9.5024 26.1954 9.61895 26.6148 9.83749 26.9822H7.35682C4.78498 26.9956 2.56462 28.7885 2.00914 31.2996L1.01344 35.9624C0.94365 36.2903 1.1525 36.6127 1.48034 36.6831C1.52225 36.6922 1.56475 36.6965 1.60725 36.6965H34.3929C34.728 36.6965 35 36.4245 35 36.0893C35 36.0468 34.9958 36.0043 34.9867 35.9624L33.9903 31.2977ZM14.073 28.1746C14.1028 28.1782 14.1337 28.1849 14.1617 28.1873C14.2952 28.1989 14.4288 28.1989 14.5624 28.1873C15.2563 28.7951 16.2314 28.9645 17.0893 28.6257C17.674 28.8594 18.326 28.8594 18.9108 28.6257C19.0358 28.6749 19.1646 28.7131 19.2963 28.7398C19.357 28.7532 19.4129 28.7611 19.4724 28.7696C19.5319 28.7781 19.6072 28.7854 19.6752 28.7896C19.7244 28.7927 19.7723 28.8036 19.8214 28.8036C19.8506 28.8036 19.8785 28.7969 19.907 28.7957L19.9428 28.7926C20.1359 28.7823 20.3278 28.7495 20.5129 28.6943C20.5384 28.6864 20.5645 28.6809 20.59 28.6724C20.6665 28.6469 20.7412 28.6172 20.8147 28.5838C20.8681 28.5601 20.9203 28.5334 20.9719 28.5061C21.0235 28.4788 21.0806 28.4491 21.1322 28.4151C21.2397 28.3476 21.3411 28.2717 21.4358 28.1873C21.5687 28.1983 21.7029 28.1983 21.8359 28.1873C21.8668 28.1873 21.8966 28.1776 21.9269 28.174C22.0265 28.1637 22.1255 28.1467 22.2226 28.123C22.2311 28.123 22.2396 28.123 22.2481 28.1187V28.8036C22.2481 29.8096 21.4327 30.625 20.4267 30.625H15.5715C14.5654 30.625 13.75 29.8096 13.75 28.8036V28.1193C13.7591 28.1193 13.7682 28.1193 13.7773 28.1242C13.8751 28.1473 13.9735 28.1643 14.073 28.1746ZM24.6786 28.1964V31.8393H20.4286C22.1043 31.8375 23.4625 30.4793 23.4643 28.8036V28.1964H24.6786ZM12.5358 28.1964V28.8036C12.5376 30.4793 13.8958 31.8375 15.5715 31.8393H11.3215V28.1964H12.5358ZM10.1072 31.8393H8.89286V28.1964H10.1072V31.8393ZM8.80003 33.0536H27.2L27.605 35.4821H8.39501L8.80003 33.0536ZM27.1071 31.8393H25.8928V28.1964H27.1071V31.8393ZM24.2864 19.2375C24.1875 19.2017 24.0861 19.1725 23.9829 19.1494C23.9464 19.1415 23.9106 19.1336 23.8736 19.1276C23.0096 18.9709 22.1293 19.3012 21.5822 19.9879C21.4808 19.9344 21.3758 19.8876 21.2677 19.8488C21.2368 19.8372 21.207 19.8281 21.1724 19.8179C21.0935 19.7924 21.0134 19.7705 20.9296 19.7529C20.8925 19.7456 20.8561 19.7384 20.8191 19.7323C20.7353 19.7183 20.6503 19.7092 20.5653 19.705C20.5331 19.705 20.5015 19.6995 20.4693 19.6989C20.4554 19.6989 20.4426 19.6989 20.4286 19.6989C20.3229 19.6989 20.2173 19.7062 20.1123 19.7202C19.4566 18.5539 17.9794 18.1398 16.8125 18.7955C16.4252 19.0134 16.1052 19.3334 15.8878 19.7202C15.3827 19.6534 14.869 19.7481 14.4204 19.9904C13.8733 19.3037 12.993 18.9734 12.129 19.1301C12.092 19.1361 12.0562 19.144 12.0197 19.1519C11.9165 19.175 11.8151 19.2041 11.7162 19.24C11.6895 19.2497 11.6621 19.2576 11.6354 19.2679C11.528 19.3104 11.4241 19.3602 11.324 19.4179V15.5989C11.3847 15.5746 11.4454 15.5425 11.5061 15.5164C11.5978 15.4775 11.6883 15.4374 11.7763 15.3949C11.9184 15.3269 12.0568 15.2529 12.1934 15.1751C12.276 15.1278 12.358 15.0822 12.4363 15.0318C12.5802 14.9414 12.718 14.843 12.8552 14.7422C12.9208 14.6937 12.9882 14.6493 13.0519 14.5983C13.2486 14.4429 13.4369 14.2765 13.6147 14.0999C14.2674 13.446 14.778 12.664 15.1144 11.8037H20.8859C20.9751 12.0283 21.0765 12.2487 21.1894 12.4624C21.2265 12.5329 21.2696 12.5978 21.3109 12.6664C21.391 12.8067 21.4706 12.9469 21.5598 13.0805C21.612 13.1582 21.6703 13.2317 21.7262 13.3069C21.8118 13.4241 21.8968 13.5413 21.9897 13.6524C22.0504 13.7289 22.1226 13.8005 22.19 13.874C22.2835 13.9766 22.3776 14.0786 22.4772 14.1775C22.5513 14.2486 22.6284 14.3153 22.7055 14.3833C22.8075 14.4732 22.9107 14.5612 23.0182 14.645C23.1008 14.7094 23.1852 14.7695 23.2708 14.8302C23.3807 14.9079 23.4924 14.9826 23.6077 15.0537C23.6976 15.1095 23.7893 15.163 23.8822 15.2146C23.9994 15.2795 24.119 15.3403 24.2404 15.3967C24.3381 15.4435 24.4359 15.4884 24.5361 15.5303C24.5859 15.5515 24.6332 15.5776 24.6836 15.5971V19.416C24.5834 19.3583 24.4796 19.3086 24.3722 19.2661C24.3404 19.2551 24.3143 19.2472 24.2864 19.2375ZM27.1071 17.8751C27.1059 18.6468 26.6202 19.3346 25.8928 19.5927V16.1575C26.6202 16.4161 27.1065 17.1034 27.1071 17.8751ZM11.5334 9.52623C12.455 5.95504 16.0973 3.807 19.669 4.72859C22.6185 5.48993 24.6792 8.15043 24.6786 11.1965V14.2601C24.5802 14.2116 24.4831 14.1612 24.3884 14.1065C24.3386 14.078 24.287 14.0525 24.2385 14.0221C24.0654 13.9159 23.8991 13.7999 23.7387 13.6754C23.7169 13.6584 23.6974 13.6384 23.6781 13.6208C23.5427 13.5115 23.4121 13.3961 23.2882 13.2747C23.2403 13.228 23.1959 13.1776 23.1505 13.1296C23.057 13.0307 22.9683 12.9299 22.8797 12.8261C22.8323 12.7654 22.7873 12.7083 22.7425 12.6488C22.6642 12.5443 22.5895 12.4369 22.5184 12.3264C22.4784 12.2657 22.4377 12.2007 22.3969 12.1363C22.3265 12.0149 22.2627 11.8935 22.2014 11.766C22.1729 11.7053 22.1407 11.6512 22.1152 11.5917C22.0302 11.4041 21.9568 11.211 21.8943 11.0149C21.8147 10.7617 21.5803 10.5899 21.3151 10.5899H14.6851C14.4198 10.5899 14.1854 10.7617 14.1059 11.0149C13.8406 11.854 13.3779 12.6166 12.7562 13.2389C12.5667 13.4259 12.364 13.5983 12.149 13.7556C12.0883 13.8011 12.024 13.8424 11.9608 13.8855C11.7951 13.9985 11.6226 14.1023 11.4454 14.1964C11.4047 14.2176 11.364 14.2401 11.3239 14.2607V11.1965C11.3227 10.6331 11.3931 10.0721 11.5334 9.52623ZM8.89293 17.8751C8.89412 17.1034 9.37988 16.4155 10.1072 16.1575V19.5927C9.38042 19.3346 8.89412 18.6467 8.89293 17.8751ZM10.7143 25.7679C10.7131 25.5591 10.7659 25.3539 10.8679 25.1717C11.024 24.893 10.9365 24.5409 10.6688 24.3667C10.1035 24.0054 9.93836 23.2544 10.3002 22.6897C10.4422 22.4681 10.6524 22.2981 10.8989 22.2058C10.9159 22.1985 10.9323 22.1906 10.9487 22.1815C10.9663 22.1742 10.9833 22.1657 10.9997 22.1566C11.2365 22.0388 11.3676 21.7784 11.3215 21.5179C11.3239 20.847 11.8691 20.3055 12.54 20.3079C13.044 20.3097 13.4938 20.6218 13.6717 21.0929C13.7446 21.2921 13.9158 21.4384 14.124 21.4797C14.3317 21.5246 14.5472 21.4554 14.6899 21.2975C15.0274 20.9332 15.5538 20.8155 16.0147 21C16.3249 21.1275 16.6794 20.9788 16.8069 20.6685C16.8166 20.6442 16.8251 20.6193 16.8318 20.5945C17.0049 19.9491 17.6679 19.5666 18.3133 19.7396C18.7304 19.8513 19.0565 20.1774 19.1681 20.5945C19.2543 20.9187 19.5871 21.1112 19.9113 21.0249C19.9368 21.0182 19.9617 21.0097 19.9853 21C20.4461 20.8161 20.9725 20.9345 21.3101 21.2975C21.4528 21.4548 21.6683 21.524 21.876 21.4797C22.0842 21.4384 22.2554 21.2921 22.3283 21.0929C22.5651 20.4657 23.2657 20.1488 23.8935 20.3862C24.3646 20.5641 24.6773 21.0146 24.6785 21.5179V21.5422C24.6749 21.5987 24.6791 21.6558 24.6913 21.711C24.6919 21.7383 24.6937 21.7657 24.698 21.7924C24.7223 21.8762 24.7635 21.9533 24.8194 22.0201C24.8716 22.079 24.9348 22.1269 25.0058 22.1609C25.0216 22.1688 25.0362 22.1767 25.0526 22.1834C25.069 22.1901 25.0811 22.1998 25.0969 22.2046C25.7259 22.4372 26.0477 23.1354 25.8151 23.7644C25.7234 24.0127 25.5534 24.224 25.3306 24.3667C25.0629 24.5409 24.9754 24.8931 25.1315 25.1717C25.4593 25.757 25.2505 26.4971 24.6652 26.8244C24.2135 27.0776 23.6506 27.0162 23.2639 26.6714L23.2572 26.6677C23.2116 26.6264 23.1594 26.5924 23.103 26.5669C23.0969 26.5669 23.0902 26.5669 23.0848 26.5621C23.0653 26.5542 23.0459 26.5518 23.0241 26.5457C22.9798 26.5323 22.9336 26.5238 22.8875 26.5208C22.8632 26.5196 22.8395 26.5196 22.8152 26.5208C22.7715 26.5238 22.7278 26.5323 22.6859 26.5445C22.6635 26.5499 22.6417 26.5572 22.6204 26.5651C22.5572 26.59 22.4983 26.6258 22.4473 26.6702C22.2275 26.8705 21.9404 26.9816 21.6429 26.9822C21.5427 26.981 21.4432 26.9695 21.346 26.947C21.1232 26.8997 20.8924 26.9804 20.7479 27.1565C20.3654 27.6015 19.7212 27.7144 19.2106 27.4254C19.0248 27.3197 18.7966 27.3197 18.6108 27.4254C18.2325 27.6427 17.7675 27.6427 17.3893 27.4254C17.2035 27.3197 16.9752 27.3197 16.7894 27.4254C16.2788 27.715 15.634 27.6027 15.2521 27.1565C15.1076 26.981 14.8769 26.9003 14.6541 26.947C14.5569 26.9695 14.4574 26.981 14.3572 26.9822C14.0591 26.9828 13.7713 26.8717 13.5503 26.6714C13.4987 26.6264 13.4392 26.5906 13.3754 26.5651C13.3554 26.5578 13.3354 26.5512 13.3147 26.5463C13.2698 26.533 13.223 26.5245 13.1763 26.5214C13.1544 26.5214 13.1338 26.5214 13.1113 26.5214C13.0634 26.5245 13.0154 26.533 12.9693 26.5475C12.9505 26.553 12.9316 26.556 12.9134 26.5633C12.9074 26.5633 12.9007 26.5633 12.8946 26.5682C12.8382 26.5937 12.7859 26.6277 12.7404 26.669L12.7337 26.6726C12.5133 26.8724 12.2262 26.9823 11.9287 26.9823C11.2583 26.9822 10.7143 26.4388 10.7143 25.7679ZM3.19608 31.5552C3.62898 29.6014 5.35567 28.2074 7.35682 28.1965H7.67863V32.3967L7.16438 35.4822H2.35764L3.19608 31.5552ZM28.8357 35.4822L28.3214 32.3967V28.1965H28.6432C30.6438 28.2075 32.3705 29.6002 32.8034 31.5534L33.6424 35.4822H28.8357Z" fill="#231F20"/>
<path d="M21.6429 17.8751C22.3135 17.8751 22.8572 17.3315 22.8572 16.6608C22.8572 15.9902 22.3135 15.4465 21.6429 15.4465C20.9723 15.4465 20.4286 15.9902 20.4286 16.6608C20.4286 17.3315 20.9723 17.8751 21.6429 17.8751Z" fill="#231F20"/>
<path d="M14.3571 17.8751C15.0278 17.8751 15.5714 17.3315 15.5714 16.6608C15.5714 15.9902 15.0278 15.4465 14.3571 15.4465C13.6865 15.4465 13.1428 15.9902 13.1428 16.6608C13.1428 17.3315 13.6865 17.8751 14.3571 17.8751Z" fill="#231F20"/>
</g>
</g>
<defs>
<clipPath id="clip0">
<rect x="1" y="3" width="34" height="34" fill="white"/>
</clipPath>
</defs>
</svg>
