<svg width="34" height="34" viewBox="0 0 34 34" fill="none" xmlns="http://www.w3.org/2000/svg">
<g clip-path="url(#clip0)">
<path d="M17.6981 10.0643C17.5922 10.1227 17.4772 10.1635 17.3582 10.1845C17.4777 10.1629 17.5922 10.1227 17.6981 10.0643Z" fill="#F9F5F2"/>
<path d="M14.7334 28.9001H19.2667C20.5167 28.8961 21.5294 27.8835 21.5334 26.6335V23.8002H12.4667V26.6335C12.4707 27.8835 13.4834 28.8961 14.7334 28.9001Z" fill="#F9F5F2"/>
<path d="M31.3706 29.0814C30.9167 26.9933 29.0705 25.503 26.9336 25.5001H21.5334V26.6334C21.5294 27.8835 20.5167 28.8961 19.2667 28.9001H14.7334C13.4834 28.8961 12.4707 27.8835 12.4667 26.6334V25.5001H7.0665C4.92961 25.503 3.08344 26.9933 2.62955 29.0814L1.70026 33.4334H32.2998L31.3706 29.0814Z" fill="#FDCA6E"/>
<path d="M10.2002 14.167V11.3337C10.2002 10.7075 10.7073 10.2004 11.3335 10.2004H17.1701C17.233 10.2004 17.2959 10.1947 17.3576 10.1845C17.4766 10.1635 17.5916 10.1228 17.6976 10.0644C17.9679 9.91199 18.1691 9.66091 18.2586 9.36341C18.6564 8.07598 19.9053 7.24697 21.246 7.38011C22.7233 7.56372 23.8249 8.83129 23.8 10.3199V14.167C25.0517 14.167 26.0666 15.1819 26.0666 16.4336V9.88815C26.0666 5.00468 22.3119 0.804604 17.4341 0.577361C12.4328 0.337633 8.18395 4.19778 7.94429 9.19905C7.93752 9.34415 7.93353 9.48858 7.93353 9.63368V16.4336C7.93353 15.1819 8.94842 14.167 10.2002 14.167Z" fill="#A05D35"/>
<path d="M21.2466 7.38049C22.7245 7.56524 23.8249 8.834 23.8 10.3232V10.3198C23.8249 8.83174 22.7239 7.56411 21.2466 7.38049Z" fill="#F9F5F2"/>
<path d="M7.93353 16.4335C7.93353 17.6853 8.94842 18.7002 10.2002 18.7002V14.1669C8.94842 14.1669 7.93353 15.1818 7.93353 16.4335Z" fill="#F9F5F2"/>
<path d="M23.8 14.1669V18.7002C25.0518 18.7002 26.0666 17.6853 26.0666 16.4335C26.0666 15.1818 25.0523 14.1669 23.8 14.1669Z" fill="#F9F5F2"/>
<path d="M21.2466 7.38057C19.9059 7.24742 18.657 8.07644 18.2592 9.36386C18.1697 9.66136 17.9685 9.91238 17.6982 10.0649C17.5922 10.1232 17.4772 10.164 17.3582 10.185C17.2959 10.1952 17.233 10.2003 17.1701 10.2003H11.3335C10.7073 10.2003 10.2002 10.7074 10.2002 11.3335V21.5334C10.2002 22.7851 11.2151 23.8 12.4668 23.8H21.5334C22.7852 23.8 23.8 22.7851 23.8 21.5334V10.3232C23.8255 8.83407 22.7245 7.56531 21.2466 7.38057Z" fill="#F9F5F2"/>
<path d="M31.9247 28.9607C31.4051 26.6182 29.3334 24.9465 26.9336 24.9335H22.1V24.3102C23.4186 24.0399 24.3655 22.8799 24.3667 21.5335V19.2102C25.6847 18.9393 26.6316 17.7794 26.6333 16.4336V9.88806C26.712 4.67083 22.6689 0.317223 17.4602 0.0112219C12.1461 -0.243181 7.63202 3.85881 7.37815 9.173C7.37077 9.32653 7.36679 9.48013 7.36679 9.63366V16.4336C7.36852 17.7793 8.31541 18.9393 9.63344 19.2102V21.5335C9.63517 22.8793 10.5821 24.0393 11.9001 24.3102V24.9335H7.0665C4.6661 24.9465 2.59389 26.6193 2.07539 28.9631L1.14609 33.315C1.08095 33.621 1.27585 33.9219 1.58185 33.9876C1.62097 33.9956 1.66061 34.0001 1.70026 34.0001H32.2998C32.6126 34.0001 32.8665 33.7463 32.8665 33.4335C32.8665 33.3938 32.8625 33.3541 32.854 33.3151L31.9247 28.9607ZM13.0334 24.3668H20.9666V26.6335C20.9666 27.5724 20.2056 28.3335 19.2666 28.3335H14.7333C13.7944 28.3335 13.0333 27.5724 13.0333 26.6335V24.3668H13.0334ZM24.3666 18.0367V14.8379C24.3847 14.8446 24.4034 14.8481 24.4232 14.8549C24.4544 14.8674 24.485 14.8821 24.5156 14.8962C24.5785 14.9257 24.6391 14.9586 24.6981 14.9954C24.7258 15.0124 24.7547 15.0294 24.7802 15.0481C24.8471 15.0957 24.9106 15.1479 24.9701 15.2045C24.9826 15.2164 24.9967 15.2266 25.0086 15.2385C25.0777 15.3088 25.1412 15.3841 25.1973 15.4651C25.2126 15.4878 25.2257 15.5128 25.2404 15.536C25.2789 15.5978 25.3141 15.6618 25.3447 15.7275C25.3588 15.7587 25.3719 15.7904 25.3838 15.8227C25.4099 15.889 25.4308 15.9576 25.4473 16.0267C25.4552 16.0579 25.4643 16.088 25.4699 16.1196C25.4903 16.2228 25.4999 16.3282 25.4999 16.4336C25.4993 17.1538 25.0455 17.7953 24.3666 18.0367ZM8.50015 9.63366C8.50015 4.93945 12.3052 1.13376 17 1.13376C17.136 1.13376 17.2721 1.13714 17.4075 1.14339C22.0104 1.42329 25.577 5.27719 25.4999 9.88806V14.1669C25.4727 14.147 25.4432 14.13 25.4155 14.1103C25.3877 14.0905 25.3673 14.0774 25.3424 14.061C25.2092 13.9737 25.0692 13.8978 24.923 13.8343C24.902 13.8252 24.8799 13.8179 24.8579 13.8094C24.702 13.7448 24.5411 13.6944 24.3762 13.6593L24.3666 13.657V10.3194C24.3853 8.54127 23.0656 7.03338 21.3009 6.81576C19.6939 6.66223 18.1996 7.65501 17.718 9.19571C17.6506 9.44559 17.429 9.62356 17.17 9.63373H11.3334C10.3945 9.63373 9.63338 10.3947 9.63338 11.3337V13.657H9.62547C9.46059 13.6922 9.29962 13.7426 9.14383 13.8072C9.12172 13.8157 9.0996 13.823 9.07868 13.8321C8.93246 13.8956 8.79254 13.9715 8.65933 14.0587C8.63442 14.0751 8.61005 14.091 8.58621 14.108C8.56244 14.125 8.52957 14.1443 8.50181 14.1646L8.50015 9.63366ZM8.50015 16.4336C8.50075 16.3287 8.5115 16.2239 8.53189 16.1213C8.53754 16.0896 8.54663 16.0595 8.55454 16.0284C8.57154 15.9587 8.59252 15.8907 8.61802 15.8239C8.63051 15.7921 8.64292 15.7604 8.65713 15.7298C8.68775 15.6635 8.72228 15.5994 8.76139 15.5377C8.77614 15.5144 8.78915 15.4895 8.80449 15.4668C8.8606 15.3858 8.92409 15.3104 8.99322 15.2402C9.00511 15.2283 9.01932 15.218 9.03173 15.2062C9.09123 15.1495 9.15472 15.0974 9.22159 15.0498C9.24822 15.031 9.27823 15.014 9.30373 14.997C9.36264 14.9602 9.42333 14.9273 9.48622 14.8979C9.51683 14.8838 9.54745 14.869 9.57859 14.8565C9.59619 14.8498 9.61545 14.8463 9.63524 14.8395V18.0383C8.95576 17.7975 8.50068 17.1549 8.50015 16.4336ZM10.7668 21.5335V11.3337C10.7668 11.0209 11.0207 10.767 11.3334 10.767H17.17C17.9271 10.7596 18.5907 10.2576 18.8026 9.53059C19.125 8.50322 20.1223 7.84141 21.1945 7.94394C22.3811 8.10259 23.2594 9.12711 23.2344 10.3239V21.5336C23.2344 22.4726 22.4734 23.2336 21.5344 23.2336H12.4667C11.5284 23.2335 10.7668 22.4725 10.7668 21.5335ZM27.1132 32.8667L26.6253 29.9399L25.5079 30.1269L25.9647 32.8667H8.03557L8.49231 30.1269L7.37489 29.9399L6.887 32.8667H2.40065L3.18318 29.2015C3.5872 27.378 5.19882 26.077 7.0665 26.0667H11.9001V26.6334C11.9018 28.1974 13.1694 29.465 14.7334 29.4667H19.2667C20.8307 29.465 22.0983 28.1974 22.1 26.6334V26.0667H26.9336C28.8008 26.077 30.4123 27.3774 30.8169 29.1998L31.5995 32.8666H27.1132V32.8667Z" fill="#231F20"/>
<path d="M20.4 15.8663C21.0259 15.8663 21.5333 15.3589 21.5333 14.733C21.5333 14.1071 21.0259 13.5997 20.4 13.5997C19.7741 13.5997 19.2667 14.1071 19.2667 14.733C19.2667 15.3589 19.7741 15.8663 20.4 15.8663Z" fill="#231F20"/>
<path d="M13.6001 15.8663C14.226 15.8663 14.7334 15.3589 14.7334 14.733C14.7334 14.1071 14.226 13.5997 13.6001 13.5997C12.9742 13.5997 12.4668 14.1071 12.4668 14.733C12.4668 15.3589 12.9742 15.8663 13.6001 15.8663Z" fill="#231F20"/>
</g>
<defs>
<clipPath id="clip0">
<rect width="34" height="34" fill="white"/>
</clipPath>
</defs>
</svg>
