<svg width="34" height="34" viewBox="0 0 34 34" fill="none" xmlns="http://www.w3.org/2000/svg">
<g clip-path="url(#clip0)">
<path d="M12.4687 23.8043V26.6365C12.4727 27.886 13.4848 28.8982 14.7344 28.9022H19.2658C20.5154 28.8982 21.5275 27.886 21.5315 26.6365V23.8043H12.4687Z" fill="#F9F5F2"/>
<path d="M31.3646 29.0834C30.9109 26.9961 29.0655 25.5063 26.9295 25.5035H21.5314V26.6364C21.5274 27.886 20.5153 28.8981 19.2657 28.9021H14.7343C13.4847 28.8981 12.4726 27.886 12.4686 26.6364V25.5035H7.0705C4.93448 25.5064 3.08906 26.9961 2.63537 29.0834L1.70642 33.4335H32.2936L31.3646 29.0834Z" fill="#F08AB7"/>
<path d="M12.4686 23.8043C11.2174 23.8043 10.2029 22.7899 10.2029 21.5386V13.6086H17.5665C19.9965 13.6104 22.2423 12.3143 23.4573 10.21H23.7972V21.5386C23.7972 22.7899 22.7827 23.8043 21.5315 23.8043V25.5036H26.0629V9.64366C26.0629 9.45109 26.0573 9.26415 26.0459 9.07722C25.7145 4.08303 21.3978 0.302135 16.4036 0.633501C11.8704 0.933723 8.25999 4.54415 7.95984 9.07722C7.94284 9.26415 7.93719 9.45109 7.93719 9.64366V25.5037H12.4686V23.8043Z" fill="#FDCA6E"/>
<path d="M7.93713 9.07764V9.64407C7.93713 9.45149 7.94278 9.26457 7.95978 9.07764H7.93713Z" fill="#F9F5F2"/>
<path d="M26.0628 9.07715H26.0458C26.0572 9.26408 26.0628 9.45101 26.0628 9.64358V9.07715Z" fill="#F9F5F2"/>
<path d="M23.4573 10.2101C22.2423 12.3144 19.9964 13.6103 17.5664 13.6087H10.2029V21.5387C10.2029 22.7899 11.2174 23.8044 12.4686 23.8044H21.5314C22.7827 23.8044 23.7972 22.7899 23.7972 21.5387V10.2101H23.4573Z" fill="#F9F5F2"/>
<path d="M31.9187 28.9628C31.3992 26.6211 29.3284 24.9502 26.9296 24.9372H26.6294V9.07715C26.626 9.03352 26.6169 8.99102 26.6022 8.94971C26.2306 3.64852 21.6318 -0.347655 16.3306 0.0239533C11.5726 0.357577 7.77749 4.12605 7.40994 8.88178C7.38504 8.94407 7.37142 9.01034 7.37029 9.07721V24.9372H7.07007C4.67069 24.9502 2.59982 26.6223 2.08152 28.9651L1.15257 33.3152C1.08742 33.6211 1.28226 33.9218 1.58812 33.9876C1.62724 33.9961 1.66688 34 1.70653 34H32.2937C32.6063 34 32.8601 33.7463 32.8601 33.4336C32.8601 33.394 32.8561 33.3543 32.8476 33.3152L31.9187 28.9628ZM8.50364 9.64359C8.50364 9.46854 8.50876 9.29921 8.52516 9.11115C8.63393 7.22608 9.37423 5.43219 10.6278 4.02007C13.7313 0.500283 19.1004 0.163273 22.6196 3.26676C24.311 4.75817 25.3402 6.86131 25.4807 9.11175C25.4914 9.28732 25.4965 9.4629 25.4965 9.64306V24.9372H22.0979V24.3141C22.1082 24.3141 22.1172 24.3074 22.1274 24.3051C22.2889 24.27 22.4463 24.2213 22.5992 24.1584C22.6559 24.1363 22.7034 24.1063 22.7562 24.0808C22.8592 24.032 22.9595 23.9777 23.0564 23.9171C23.113 23.8808 23.1646 23.8395 23.2178 23.7998C23.3022 23.7375 23.3832 23.6707 23.4608 23.5993C23.5112 23.5517 23.5582 23.5024 23.6052 23.4515C23.6755 23.3756 23.7412 23.2957 23.8023 23.2124C23.8437 23.1557 23.8833 23.0991 23.9207 23.0425C23.9768 22.9507 24.0272 22.8561 24.0731 22.7592C24.102 22.6992 24.1298 22.6408 24.1575 22.5785C24.1994 22.4675 24.2346 22.3542 24.2623 22.2387C24.2771 22.182 24.2963 22.1288 24.3076 22.0716C24.3433 21.896 24.362 21.7176 24.3637 21.5386V10.21C24.3637 9.8974 24.1099 9.64359 23.7972 9.64359H23.4573C23.2551 9.64359 23.0682 9.75177 22.9674 9.92681C21.8499 11.8521 19.7931 13.0388 17.5665 13.0422H10.203C9.89034 13.0422 9.63653 13.2959 9.63653 13.6086V21.5386C9.63826 21.7193 9.65692 21.8994 9.69318 22.0767C9.70453 22.1334 9.72379 22.19 9.73846 22.2438C9.76622 22.3593 9.80135 22.4726 9.84325 22.5837C9.86815 22.6459 9.8999 22.7043 9.92819 22.7649C9.97347 22.8612 10.0239 22.9541 10.08 23.0448C10.1174 23.1014 10.157 23.1581 10.1984 23.2147C10.2596 23.298 10.3253 23.3779 10.3955 23.4538C10.4425 23.5048 10.4895 23.5541 10.5399 23.6016C10.6169 23.6724 10.698 23.7393 10.7824 23.8021C10.839 23.8418 10.8878 23.8832 10.9444 23.9194C11.0413 23.98 11.1415 24.0344 11.2446 24.0831C11.2973 24.1086 11.3471 24.1398 11.4015 24.1607C11.5545 24.2236 11.7119 24.2723 11.8734 24.3074C11.8836 24.3074 11.8926 24.3142 11.9028 24.3165V24.9373H8.50371L8.50364 9.64359ZM13.6015 15.8743C14.2274 15.8743 14.7344 15.3673 14.7344 14.7414C14.7333 14.542 14.6789 14.3466 14.5769 14.1749H17.5665C18.2967 14.1721 19.0223 14.0599 19.719 13.8424C19.2262 14.222 19.1339 14.9294 19.5139 15.4222C19.8934 15.915 20.6009 16.0073 21.0937 15.6273C21.5865 15.2478 21.6788 14.5403 21.2988 14.0475C21.0841 13.7683 20.7504 13.6057 20.3987 13.6085C20.3834 13.6085 20.3692 13.6125 20.3539 13.613C21.4692 13.1599 22.4565 12.4411 23.2308 11.5195V21.5385C23.2308 22.4771 22.4701 23.2378 21.5316 23.2378H12.4687C11.5301 23.2378 10.7694 22.4771 10.7694 21.5385V14.175H12.6262C12.5243 14.3467 12.4699 14.542 12.4687 14.7414C12.4687 15.3668 12.9756 15.8743 13.6015 15.8743ZM13.0351 24.3707H20.9651V26.6364C20.9651 27.575 20.2044 28.3357 19.2658 28.3357H14.7344C13.7958 28.3357 13.0351 27.575 13.0351 26.6364V24.3707H13.0351ZM27.1091 32.8672L26.6215 29.9421L25.5044 30.1279L25.961 32.8672H8.0392L8.49574 30.1279L7.37873 29.9421L6.89104 32.8672H2.40664L3.18891 29.2041C3.59219 27.3813 5.20366 26.0802 7.07067 26.07H11.9023V26.6365C11.904 28.1998 13.1711 29.4669 14.7345 29.4686H19.2659C20.8292 29.4669 22.0963 28.1998 22.098 26.6365V26.07H26.9296C28.7961 26.0803 30.4069 27.3802 30.8114 29.2018L31.5937 32.8672H27.1091Z" fill="#231F20"/>
</g>
<defs>
<clipPath id="clip0">
<rect width="34" height="34" fill="white"/>
</clipPath>
</defs>
</svg>
