<svg width="37" height="37" viewBox="0 0 37 37" fill="none" xmlns="http://www.w3.org/2000/svg">
<mask id="mask0" mask-type="alpha" maskUnits="userSpaceOnUse" x="0" y="0" width="37" height="37">
<circle cx="18.5" cy="18.5" r="18.5" fill="#C4C4C4"/>
</mask>
<g mask="url(#mask0)">
<g clip-path="url(#clip0)">
<path d="M14.5715 31.2322H19.4286C20.768 31.2279 21.8529 30.143 21.8572 28.8036V25.7679H12.1429V28.8036C12.1472 30.1435 13.2321 31.2285 14.5715 31.2322Z" fill="#F9F5F2"/>
<path d="M32.3972 31.4264C31.9109 29.1891 29.9328 27.5923 27.6432 27.5892H21.8572V28.8035C21.8529 30.1429 20.768 31.2278 19.4287 31.2321H14.5715C13.2322 31.2278 12.1472 30.1429 12.143 28.8035V27.5892H6.35688C4.06733 27.5923 2.08929 29.189 1.60293 31.4264L0.607239 36.0892H33.3929L32.3972 31.4264Z" fill="#24537E"/>
<path d="M8.20256 15.9747C7.15282 16.8102 6.97916 18.3377 7.81462 19.3875C8.27541 19.9661 8.97487 20.3037 9.71437 20.3037V15.4465C9.16552 15.4477 8.63307 15.6341 8.20256 15.9747Z" fill="#F9F5F2"/>
<path d="M26.7143 17.8751C26.7143 16.5339 25.6269 15.4465 24.2858 15.4465V20.3037C25.6269 20.3036 26.7143 19.2162 26.7143 17.8751Z" fill="#F9F5F2"/>
<path d="M12.1429 8.76791C12.1399 9.62156 12.3664 10.46 12.7986 11.1964C13.2163 11.9384 13.8296 12.5516 14.5715 12.9693C15.3079 13.4016 16.1464 13.628 17 13.625H20.6428C24.6633 13.6286 27.9249 10.3719 27.9285 6.35146C27.9285 6.34721 27.9285 6.34355 27.9285 6.3393V3.91077H17C14.3176 3.91077 12.1429 6.08557 12.1429 8.76791Z" fill="#A05D35"/>
<path d="M9.71433 11.1964H12.7986C12.3663 10.4599 12.1399 9.62143 12.1429 8.76784C12.1411 7.37325 12.741 6.04539 13.7883 5.125H11.5358C9.52375 5.125 7.89294 6.7558 7.89294 8.76784V15.4464C7.89414 15.6649 8.01254 15.8665 8.2026 15.9746C8.63304 15.634 9.16555 15.4476 9.7144 15.4464V11.1964H9.71433Z" fill="#A05D35"/>
<path d="M24.2858 12.6536V15.4464H25.5001C25.8352 15.4464 26.1072 15.1744 26.1072 14.8393V11.1964H26.0769C25.5614 11.7744 24.9567 12.2662 24.2858 12.6536Z" fill="#A05D35"/>
<path d="M20.6429 13.6251H17.0001C16.1464 13.6281 15.308 13.4016 14.5716 12.9694C13.8296 12.5517 13.2164 11.9384 12.7987 11.1965H9.71442V23.3394C9.71442 24.6806 10.8018 25.7679 12.143 25.7679H21.8572C23.1984 25.7679 24.2858 24.6805 24.2858 23.3394V12.6536C23.1789 13.2936 21.9215 13.6287 20.6429 13.6251Z" fill="#F9F5F2"/>
<path d="M32.991 31.2971C32.4342 28.7871 30.2145 26.9961 27.6433 26.9822H22.4643V26.3143C23.8765 26.0241 24.8911 24.7813 24.8929 23.3393V20.85C26.5316 20.5197 27.5922 18.9236 27.2619 17.2855C27.1381 16.6717 26.8272 16.1113 26.3719 15.6814C26.5917 15.4562 26.7143 15.1538 26.7143 14.8393V11.375C27.8916 9.96093 28.5358 8.17899 28.5358 6.33934V3.91074C28.5358 3.57559 28.2638 3.30359 27.9286 3.30359H17.0001C15.7536 3.30605 14.5454 3.73463 13.5758 4.51789H11.5358C9.18977 4.52035 7.28823 6.42189 7.28577 8.76788V15.4464C7.28942 15.6104 7.32581 15.7719 7.39448 15.9212C6.31378 17.1999 6.47402 19.113 7.75267 20.1943C8.14188 20.5233 8.60752 20.7485 9.10722 20.8499V23.3392C9.10902 24.7812 10.1236 26.024 11.5358 26.3142V26.9821H6.35688C3.78504 26.996 1.56468 28.7883 1.0092 31.2995L0.0135039 35.9624C-0.0562889 36.2902 0.152558 36.6126 0.480405 36.6831C0.522308 36.6922 0.564808 36.6964 0.607307 36.6964H33.3929C33.7281 36.6964 34.0001 36.4244 34.0001 36.0893C34.0001 36.0468 33.9958 36.0043 33.9867 35.9624L32.991 31.2971ZM12.7501 26.375H21.25V28.8035C21.25 29.8096 20.4346 30.625 19.4286 30.625H14.5715C13.5655 30.625 12.7501 29.8096 12.7501 28.8035V26.375ZM25.3592 12.6645C25.4053 12.6305 25.4545 12.6008 25.5 12.565V14.8393H24.8929V12.9948C24.9263 12.9735 24.9536 12.948 24.99 12.9262C25.1157 12.843 25.2384 12.755 25.3592 12.6645ZM24.893 19.5926V16.1574C25.8413 16.492 26.3391 17.5326 26.0047 18.481C25.8212 19.0007 25.4126 19.4093 24.893 19.5926ZM27.3215 4.51789V6.33934C27.3233 7.9823 26.718 9.56814 25.6215 10.7915C25.5 10.9251 25.3762 11.0532 25.2493 11.1758L25.2353 11.188C23.9974 12.3664 22.3527 13.0222 20.6429 13.0179H17.0001C16.2496 13.0191 15.5132 12.8194 14.8666 12.4387C14.2194 12.0732 13.6845 11.5366 13.3214 10.8881C12.9449 10.2452 12.7476 9.51289 12.7501 8.76795C12.7501 6.42076 14.6529 4.51796 17.0001 4.51796H27.3215V4.51789ZM8.50007 8.76788C8.50187 7.09219 9.86007 5.73399 11.5358 5.73219H12.4568C12.4362 5.76254 12.4222 5.79654 12.4022 5.82749C12.2977 5.99078 12.2018 6.15958 12.1156 6.33324C12.0938 6.37753 12.0683 6.42003 12.0476 6.46498C11.9481 6.67994 11.8624 6.90154 11.7914 7.12739C11.7744 7.18084 11.7623 7.23543 11.7471 7.28948C11.6961 7.47164 11.6542 7.65678 11.6221 7.84318C11.6105 7.90998 11.599 7.97612 11.5899 8.04352C11.5559 8.28332 11.5377 8.52557 11.5358 8.76782C11.537 8.98211 11.551 9.19587 11.5777 9.40837C11.5838 9.45937 11.5899 9.50977 11.5972 9.56017C11.6263 9.76477 11.667 9.96758 11.7186 10.1673C11.7265 10.1971 11.7374 10.228 11.7453 10.2548C11.7775 10.3665 11.8091 10.4782 11.8479 10.5869H9.71444C9.37929 10.5869 9.10729 10.8589 9.10729 11.194V14.8976C9.06658 14.9055 9.0296 14.9249 8.98949 14.9346C8.85408 14.968 8.72114 15.0099 8.59118 15.0615C8.56143 15.0737 8.53049 15.0779 8.50014 15.0907V8.76788H8.50007ZM7.89299 17.875C7.89053 17.3213 8.14254 16.7973 8.57664 16.4531C8.65799 16.3893 8.74485 16.3316 8.83529 16.2819C8.87049 16.2624 8.90754 16.2497 8.94333 16.2327C8.99799 16.2072 9.05138 16.1799 9.10729 16.1598V19.5926C8.38048 19.3346 7.89418 18.6467 7.89299 17.875ZM10.3215 23.3392V11.8036H12.4575C12.5 11.8679 12.5498 11.9286 12.5947 11.9912C12.6323 12.0428 12.6681 12.0944 12.7076 12.1448C12.8394 12.3166 12.9808 12.4799 13.1326 12.6341C13.4672 12.9711 13.8472 13.2595 14.2613 13.492C15.0919 13.979 16.0372 14.2346 17.0001 14.2321H20.643C20.9557 14.2303 21.2677 14.2103 21.578 14.1714C21.6697 14.1611 21.7601 14.1453 21.8506 14.1314C22.0776 14.0968 22.3022 14.0524 22.5251 13.9978C22.615 13.976 22.7073 13.9559 22.7929 13.931C23.0813 13.8509 23.3654 13.755 23.6429 13.6426C23.6514 13.639 23.6605 13.6366 23.6684 13.6335L23.6786 13.6299V23.3393C23.6786 24.3454 22.8633 25.1608 21.8572 25.1608H12.143C11.1369 25.1607 10.3215 24.3453 10.3215 23.3392ZM27.8357 35.4821L27.313 32.3462L26.1157 32.5466L26.605 35.4821H7.39507L7.88442 32.5466L6.68712 32.3462L6.16437 35.4821H1.3577L2.19614 31.5551C2.62904 29.6013 4.35573 28.2073 6.35688 28.1965H11.5358V28.8036C11.5376 30.4793 12.8958 31.8375 14.5715 31.8393H19.4287C21.1044 31.8375 22.4626 30.4793 22.4643 28.8036V28.1965H27.6433C29.6438 28.2074 31.3705 29.6007 31.804 31.5533L32.6425 35.4821H27.8357Z" fill="#231F20"/>
<path d="M20.643 17.2678C21.3136 17.2678 21.8573 16.7242 21.8573 16.0535C21.8573 15.3829 21.3136 14.8392 20.643 14.8392C19.9723 14.8392 19.4286 15.3829 19.4286 16.0535C19.4286 16.7242 19.9723 17.2678 20.643 17.2678Z" fill="#231F20"/>
<path d="M13.3572 17.2678C14.0278 17.2678 14.5715 16.7242 14.5715 16.0535C14.5715 15.3829 14.0278 14.8392 13.3572 14.8392C12.6865 14.8392 12.1429 15.3829 12.1429 16.0535C12.1429 16.7242 12.6865 17.2678 13.3572 17.2678Z" fill="#231F20"/>
<path d="M23.0715 33.6606H19.4286V34.8749H23.0715V33.6606Z" fill="#231F20"/>
<path d="M25.5001 33.6606H24.2858V34.8749H25.5001V33.6606Z" fill="#231F20"/>
</g>
</g>
<defs>
<clipPath id="clip0">
<rect y="3" width="34" height="34" fill="white"/>
</clipPath>
</defs>
</svg>
