<svg width="37" height="37" viewBox="0 0 37 37" fill="none" xmlns="http://www.w3.org/2000/svg">
<mask id="mask0" mask-type="alpha" maskUnits="userSpaceOnUse" x="0" y="0" width="37" height="37">
<circle cx="18.5" cy="18.5" r="18.5" fill="#C4C4C4"/>
</mask>
<g mask="url(#mask0)">
<g clip-path="url(#clip0)">
<path d="M22.8572 26.5892V24.7678H13.1429V26.5892L18 31.4464L22.8572 26.5892Z" fill="#F9F5F2"/>
<path d="M33.3972 30.4265C32.9109 28.1892 30.9328 26.5924 28.6432 26.5894H22.8572L18.0001 31.4465L13.1429 26.5894H7.35688C5.06733 26.5924 3.08929 28.1891 2.60293 30.4265L1.60724 35.0893H34.3929L33.3972 30.4265Z" fill="#24537E"/>
<path d="M8.28577 16.875C8.28577 18.2162 9.37317 19.3036 10.7143 19.3036V14.4464C9.37317 14.4464 8.28577 15.5338 8.28577 16.875Z" fill="#F9F5F2"/>
<path d="M27.7142 16.8751C27.7142 15.5339 26.6268 14.4465 25.2857 14.4465V19.3037C26.6268 19.3036 27.7142 18.2162 27.7142 16.8751Z" fill="#F9F5F2"/>
<path d="M25.2857 7.76791V6.55361C25.2857 4.54157 23.6549 2.91077 21.6429 2.91077H7.07147V6.55361C7.07147 8.56565 8.70227 10.1964 10.7143 10.1964H25.2857V7.76791Z" fill="#FDCA6E"/>
<path d="M25.2858 13.8393C26.627 13.8393 27.7143 12.7519 27.7143 11.4108V8.98225C27.7143 8.31135 27.1709 7.76794 26.5 7.76794H25.2857V13.8393H25.2858Z" fill="#FDCA6E"/>
<path d="M8.89294 10.1964V12.6249C8.89294 13.2959 9.43635 13.8393 10.1072 13.8393H10.7144V10.1964H8.89294Z" fill="#FDCA6E"/>
<path d="M10.7144 10.1964V22.3392C10.7144 23.6804 11.8018 24.7678 13.1429 24.7678H22.8572C24.1984 24.7678 25.2857 23.6804 25.2857 22.3392V10.1964H10.7144Z" fill="#F9F5F2"/>
<path d="M33.991 30.2971C33.4342 27.7871 31.2146 25.9961 28.6433 25.9822H23.4644V25.3143C24.8765 25.0241 25.8911 23.7813 25.8929 22.3393V19.85C27.5322 19.5197 28.5928 17.923 28.2626 16.2837C28.0738 15.345 27.4514 14.5509 26.585 14.1429C27.6421 13.6432 28.3178 12.5801 28.3215 11.4107V8.98219C28.3215 7.97613 27.5061 7.16073 26.5 7.16073H25.8929V6.55358C25.8904 4.20759 23.9889 2.30605 21.6429 2.30359H7.07154C6.73638 2.30359 6.46439 2.57559 6.46439 2.91074V6.55358C6.46558 7.95488 7.15713 9.26567 8.31373 10.0574C8.29852 10.1023 8.28942 10.1491 8.28577 10.1964V12.625C8.28757 13.2977 8.66157 13.9145 9.25723 14.2272C7.78979 15.0244 7.24638 16.8604 8.04352 18.3285C8.47158 19.1165 9.22748 19.6739 10.1072 19.8499V22.3392C10.109 23.7812 11.1236 25.024 12.5358 25.3142V25.9821H7.35688C4.78504 25.996 2.56468 27.7883 2.0092 30.2995L1.0135 34.9624C0.943711 35.2902 1.15256 35.6126 1.48041 35.6831C1.52231 35.6922 1.56481 35.6964 1.60731 35.6964H34.3929C34.7281 35.6964 35.0001 35.4244 35.0001 35.0893C35.0001 35.0468 34.9958 35.0043 34.9868 34.9624L33.991 30.2971ZM13.7501 25.375H22.2501V26.338L18.0001 30.588L13.7501 26.338V25.375ZM27.1072 16.875C27.106 17.6467 26.6202 18.3346 25.8929 18.5926V15.1574C26.6203 15.416 27.1066 16.1033 27.1072 16.875ZM26.5 8.37504C26.8352 8.37504 27.1072 8.64703 27.1072 8.98219V11.4107C27.106 12.1824 26.6202 12.8703 25.8929 13.1283V8.37504H26.5ZM7.67869 6.55358V3.51789H21.643C23.3187 3.51968 24.6769 4.87789 24.6787 6.55358V9.58927H10.7144C9.03869 9.58748 7.68108 8.22927 7.67869 6.55358ZM10.1072 13.2322C9.77207 13.2322 9.50008 12.9602 9.50008 12.625V10.8036H10.1072V13.2322ZM8.89299 16.875C8.89419 16.1033 9.37995 15.4155 10.1073 15.1574V18.5926C9.38048 18.3346 8.89419 17.6467 8.89299 16.875ZM11.3215 22.3392V10.8036H24.6787V22.3392C24.6787 23.3453 23.8633 24.1607 22.8572 24.1607H13.143C12.1369 24.1607 11.3215 23.3453 11.3215 22.3392ZM28.8358 34.4821L28.313 31.3462L27.1157 31.5466L27.605 34.4821H8.39508L8.88442 31.5466L7.68712 31.3462L7.16437 34.4821H2.3577L3.19614 30.5551C3.62904 28.6013 5.35573 27.2073 7.35688 27.1965H12.8916L17.5708 31.8757C17.8076 32.1125 18.1925 32.1125 18.4293 31.8757L23.1086 27.1965H28.6432C30.6438 27.2074 32.3705 28.6007 32.804 30.5534L33.6424 34.4821H28.8358Z" fill="#231F20"/>
<path d="M21.643 16.2678C22.3136 16.2678 22.8573 15.7242 22.8573 15.0535C22.8573 14.3829 22.3136 13.8392 21.643 13.8392C20.9723 13.8392 20.4286 14.3829 20.4286 15.0535C20.4286 15.7242 20.9723 16.2678 21.643 16.2678Z" fill="#231F20"/>
<path d="M14.3572 16.2678C15.0279 16.2678 15.5715 15.7242 15.5715 15.0535C15.5715 14.3829 15.0279 13.8392 14.3572 13.8392C13.6866 13.8392 13.1429 14.3829 13.1429 15.0535C13.1429 15.7242 13.6866 16.2678 14.3572 16.2678Z" fill="#231F20"/>
<path d="M24.6786 32.0536H21.0358V33.2679H24.6786V32.0536Z" fill="#231F20"/>
<path d="M26.5001 32.0536H25.2858V33.2679H26.5001V32.0536Z" fill="#231F20"/>
</g>
</g>
<defs>
<clipPath id="clip0">
<rect x="1" y="2" width="34" height="34" fill="white"/>
</clipPath>
</defs>
</svg>
