<svg width="34" height="34" viewBox="0 0 34 34" fill="none" xmlns="http://www.w3.org/2000/svg">
<g clip-path="url(#clip0)">
<path d="M15.5834 13.6009C18.6642 13.6508 21.6272 12.4195 23.7657 10.2011H23.7997V14.1676C23.8076 14.1676 23.8145 14.1676 23.8224 14.1676C25.562 12.7963 26.5938 10.7162 26.6329 8.50117C26.6329 7.50215 26.4125 6.51508 25.9869 5.61129C25.5789 4.73014 25.0077 3.93459 24.304 3.26541C22.3979 1.49694 19.8831 0.531389 17.2834 0.568178C14.478 0.517178 11.7813 1.65047 9.85476 3.69041C7.95082 3.15212 6.48894 2.37583 5.71258 1.47483C5.30804 2.44376 5.10005 3.48415 5.10065 4.53471C5.14487 7.16673 6.39657 9.63167 8.49482 11.221C8.89937 12.1412 9.4785 12.9748 10.2004 13.6746V12.3146C11.8657 13.1686 13.7124 13.61 15.5834 13.6009Z" fill="#010101"/>
<path d="M14.7334 28.9004H19.2666C20.5166 28.8964 21.5292 27.8838 21.5331 26.6338V23.8005H12.4669V26.6338C12.4708 27.8838 13.4834 28.8964 14.7334 28.9004Z" fill="#6D4A2F"/>
<path d="M7.93378 16.4351C7.93378 17.6868 8.9486 18.7017 10.2004 18.7017V14.1686C8.9486 14.1685 7.93378 15.1834 7.93378 16.4351Z" fill="#6D4A2F"/>
<path d="M23.7997 18.7007C25.0514 18.707 26.0713 17.6972 26.0776 16.4455C26.0838 15.1938 25.074 14.1738 23.8223 14.1676C23.8144 14.1738 23.8076 14.1817 23.7997 14.188V18.7007Z" fill="#6D4A2F"/>
<path d="M23.7997 14.1902C23.8076 14.1839 23.8144 14.176 23.8223 14.1698C23.8144 14.1698 23.8076 14.1698 23.7997 14.1698V14.1902Z" fill="#F9F5F2"/>
<path d="M31.3701 29.0815C30.9162 26.9935 29.0701 25.5032 26.9332 25.5004H21.5331V26.6337C21.5291 27.8837 20.5166 28.8963 19.2665 28.9002H14.7334C13.4834 28.8963 12.4708 27.8837 12.4668 26.6337V25.5004H7.06673C4.92991 25.5032 3.0838 26.9935 2.62992 29.0815L1.70062 33.4334H32.2992L31.3701 29.0815Z" fill="#43ADDC"/>
<path d="M23.7657 10.2012C21.6272 12.4195 18.6642 13.6509 15.5834 13.601C13.7118 13.6101 11.8657 13.1692 10.2003 12.3147V21.5339C10.2003 22.7856 11.2151 23.8005 12.4669 23.8005H21.5332C22.7849 23.8005 23.7998 22.7857 23.7998 21.5339V10.2012H23.7657Z" fill="#6D4A2F"/>
<path d="M31.9236 28.9609C31.4046 26.6178 29.333 24.9462 26.9332 24.9338H22.0998V24.3105C23.4178 24.0396 24.3646 22.8797 24.3664 21.534V19.2108C25.8974 18.9008 26.8867 17.4083 26.5762 15.8772C26.3961 14.9876 25.7993 14.2385 24.9726 13.8634C26.3847 12.4343 27.1837 10.5106 27.1995 8.50126C27.2007 7.42069 26.9621 6.35314 26.502 5.37563C26.0657 4.42934 25.4532 3.57482 24.6973 2.8575C22.6828 0.991477 20.0292 -0.0307175 17.2833 0.00155602C14.4422 -0.0471864 11.7013 1.05098 9.67956 3.04782C8.0431 2.54692 6.7942 1.8624 6.14149 1.10483C6.01399 0.954688 5.81736 0.883301 5.62298 0.915575C5.42921 0.946188 5.26545 1.07482 5.18948 1.25558C4.75545 2.29424 4.53219 3.40881 4.53385 4.53473C4.58259 7.28801 5.86656 9.87361 8.03175 11.5752C8.39386 12.3589 8.87717 13.0808 9.46367 13.7143C7.95697 14.12 7.06454 15.6704 7.47021 17.1771C7.74846 18.21 8.58591 18.9971 9.63367 19.2108V21.534C9.6354 22.8798 10.5822 24.0397 11.9003 24.3105V24.9338H7.06679C4.66653 24.9463 2.59432 26.6195 2.07581 28.9632L1.14652 33.315C1.08138 33.621 1.27628 33.9219 1.58228 33.9877C1.62139 33.9962 1.66104 34.0002 1.70068 34.0002H32.2993C32.6121 34.0002 32.8659 33.7463 32.8659 33.4335C32.8659 33.3939 32.8619 33.3542 32.8534 33.3151L31.9236 28.9609ZM13.0335 24.3671H20.9665V26.6337C20.9665 27.5726 20.2055 28.3336 19.2665 28.3336H14.7334C13.7945 28.3336 13.0335 27.5726 13.0335 26.6337V24.3671ZM25.4996 16.4342C25.4985 17.1544 25.0452 17.7964 24.3663 18.0372V14.8312C25.0452 15.072 25.4991 15.7139 25.4996 16.4342ZM8.84828 10.7785C6.87866 9.30185 5.704 6.99622 5.66714 4.53473C5.66655 3.84118 5.76403 3.15102 5.95668 2.48463C7.07974 3.30455 8.3513 3.89895 9.70048 4.23557C9.90846 4.29334 10.1311 4.22879 10.2762 4.06895C12.0922 2.14463 14.6376 1.0782 17.2832 1.13492C19.7368 1.10151 22.1093 2.01035 23.9129 3.67403C24.5668 4.29454 25.0966 5.03338 25.4751 5.85164C25.8655 6.68006 26.0673 7.58498 26.0662 8.50126C26.0543 10.1128 25.4491 11.6637 24.3662 12.8576V10.2012C24.3503 9.88218 24.0852 9.63229 23.7656 9.63455C23.6075 9.63455 23.4562 9.70082 23.3491 9.81703C21.3194 11.921 18.506 13.0866 15.5833 13.0344C13.8029 13.0418 12.0464 12.623 10.4614 11.8122C10.3844 11.7731 10.2999 11.7527 10.2138 11.7516C10.2093 11.7516 10.2047 11.7482 10.2002 11.7482H10.1911C10.1577 11.7499 10.1242 11.7544 10.0913 11.7618C10.0761 11.7618 10.0602 11.7652 10.0449 11.7692C9.93496 11.7987 9.83747 11.8638 9.76721 11.9539C9.75699 11.9664 9.74736 11.9794 9.73833 11.993C9.70772 12.0361 9.68394 12.0837 9.66634 12.1336C9.66634 12.1403 9.65897 12.146 9.65672 12.1528C9.4057 11.7884 9.19034 11.4009 9.01529 10.9946C8.97864 10.9094 8.9214 10.8352 8.84828 10.7785ZM8.50038 16.4342C8.50151 15.714 8.9548 15.072 9.63367 14.8311V18.0372C8.9554 17.7958 8.50151 17.1544 8.50038 16.4342ZM10.767 21.5339V13.2043C11.4498 13.4888 12.1569 13.7097 12.88 13.8644C12.3977 14.2633 12.3298 14.9773 12.7281 15.4601C13.1264 15.9429 13.841 16.0103 14.3238 15.612C14.7697 15.2431 14.8666 14.5977 14.5482 14.1149C14.8915 14.1433 15.2361 14.1659 15.5834 14.1659C18.3679 14.1977 21.0753 13.2508 23.2331 11.4903V21.5345C23.2331 22.4734 22.472 23.2345 21.5331 23.2345H12.4668C11.5285 23.2339 10.767 22.4728 10.767 21.5339ZM27.1128 32.8667L26.6249 29.9401L25.5075 30.1271L25.9642 32.8668H8.03573L8.49248 30.1271L7.37505 29.9401L6.88716 32.8667H2.40107L3.18361 29.2017C3.58762 27.3782 5.19918 26.0773 7.06679 26.067H11.9003V26.6337C11.902 28.1976 13.1696 29.4652 14.7335 29.4669H19.2666C20.8305 29.4652 22.0981 28.1976 22.0998 26.6337V26.067H26.9333C28.8004 26.0773 30.4119 27.3771 30.8159 29.2L31.599 32.8667H27.1128V32.8667Z" fill="#231F20"/>
<path d="M20.3992 15.8658C21.0251 15.8658 21.5325 15.3584 21.5325 14.7325C21.5325 14.1066 21.0251 13.5992 20.3992 13.5992C19.7733 13.5992 19.2659 14.1066 19.2659 14.7325C19.2659 15.3584 19.7733 15.8658 20.3992 15.8658Z" fill="#231F20"/>
</g>
<defs>
<clipPath id="clip0">
<rect width="34" height="34" fill="white"/>
</clipPath>
</defs>
</svg>
