<svg width="34" height="34" viewBox="0 0 34 34" fill="none" xmlns="http://www.w3.org/2000/svg">
<g clip-path="url(#clip0)">
<path d="M14.7333 28.9H19.2667C20.5168 28.8961 21.5294 27.8834 21.5333 26.6334V23.8H12.4667V26.6334C12.4707 27.8834 13.4833 28.8961 14.7333 28.9Z" fill="#F9F5F2"/>
<path d="M31.3707 29.0814C30.9168 26.9932 29.0705 25.5029 26.9337 25.5H21.5333V26.6334C21.5293 27.8835 20.5167 28.8961 19.2667 28.9H14.7333C13.4832 28.896 12.4706 27.8834 12.4667 26.6334V25.5H7.06631C4.92942 25.5029 3.08319 26.9931 2.62931 29.0814L1.69995 33.4334H32.2999L31.3707 29.0814Z" fill="#43ADDC"/>
<path d="M10.2001 14.1666V10.251C11.3107 11.883 13.9401 13.0334 17.0001 13.0334C20.0601 13.0334 22.6894 11.883 23.8001 10.251V14.1666C25.0518 14.1666 26.0667 15.1815 26.0667 16.4333V9.63329C26.0667 4.62567 22.0077 0.56665 17.0001 0.56665C11.9924 0.56665 7.93335 4.62573 7.93335 9.63336V16.4334C7.93335 15.1816 8.9483 14.1666 10.2001 14.1666Z" fill="#A05D35"/>
<path d="M7.93335 16.4335C7.93335 17.6852 8.94824 18.7001 10.2 18.7001V14.1667C8.9483 14.1667 7.93335 15.1817 7.93335 16.4335Z" fill="#F9F5F2"/>
<path d="M23.8 14.1667V18.7001C25.0518 18.7001 26.0667 17.6852 26.0667 16.4335C26.0667 15.1817 25.0518 14.1667 23.8 14.1667Z" fill="#F9F5F2"/>
<path d="M17 13.0335C13.94 13.0335 11.3107 11.8831 10.2 10.2511V21.5335C10.2 22.7852 11.2149 23.8001 12.4667 23.8001H21.5333C22.7851 23.8001 23.7999 22.7852 23.7999 21.5335V10.2511C22.6893 11.8831 20.06 13.0335 17 13.0335Z" fill="#F9F5F2"/>
<path d="M31.925 28.9606C31.4053 26.618 29.3336 24.9464 26.9337 24.9334H22.1001V24.31C23.4182 24.0391 24.3651 22.8791 24.3667 21.5334V19.21C25.6848 18.9391 26.6317 17.7791 26.6334 16.4334V9.63336C26.6334 4.31289 22.3205 0 17.0001 0C11.6797 0 7.36673 4.31289 7.36673 9.63336V16.4334C7.36845 17.7792 8.31534 18.9391 9.63337 19.21V21.5334C9.6351 22.8792 10.582 24.0391 11.9 24.31V24.9334H7.06637C4.66598 24.9464 2.59364 26.6192 2.07514 28.963L1.14579 33.315C1.08064 33.621 1.27555 33.9218 1.58155 33.9876C1.62066 33.9961 1.6603 34.0001 1.69995 34.0001H32.2999C32.6127 34.0001 32.8666 33.7462 32.8666 33.4334C32.8666 33.3938 32.8626 33.3541 32.8541 33.315L31.925 28.9606ZM13.0334 24.3666H20.9667V26.6333C20.9667 27.5723 20.2057 28.3333 19.2667 28.3333H14.7334C13.7944 28.3333 13.0334 27.5723 13.0334 26.6333V24.3666ZM24.3667 18.0364V14.8375C24.3849 14.8443 24.4036 14.8478 24.4234 14.8545C24.4545 14.867 24.4851 14.8818 24.5157 14.8959C24.5786 14.9254 24.6393 14.9583 24.6982 14.9951C24.726 15.0121 24.7549 15.0291 24.7804 15.0478C24.8472 15.0954 24.9107 15.1475 24.9702 15.2042C24.9827 15.2161 24.9969 15.2263 25.0087 15.2382C25.0779 15.3084 25.1414 15.3838 25.1975 15.4648C25.2127 15.4875 25.2258 15.5124 25.2406 15.5357C25.2791 15.5974 25.3142 15.6614 25.3448 15.7272C25.359 15.7583 25.3721 15.7901 25.3839 15.8224C25.41 15.8887 25.431 15.9573 25.4474 16.0264C25.4553 16.0576 25.4644 16.0876 25.4701 16.1193C25.4899 16.223 25.5001 16.3278 25.5001 16.4332C25.4995 17.1536 25.0456 17.7956 24.3667 18.0364ZM8.50008 9.63336C8.50008 4.9391 12.3058 1.13336 17.0001 1.13336C21.6943 1.13336 25.5001 4.9391 25.5001 9.63336V14.1667C25.4729 14.1469 25.4434 14.1299 25.4157 14.1101C25.3879 14.0902 25.3675 14.0772 25.3426 14.0608C25.2094 13.9735 25.0694 13.8976 24.9232 13.8341C24.9022 13.8251 24.8801 13.8177 24.8581 13.8092C24.7022 13.7446 24.5413 13.6942 24.3764 13.6591L24.3668 13.6568V10.2512C24.3668 9.93843 24.1135 9.68455 23.8007 9.68396C23.6131 9.68396 23.4374 9.77686 23.3315 9.93218C22.3001 11.4469 19.7552 12.4669 17.0001 12.4669C14.245 12.4669 11.7001 11.4469 10.6687 9.93218C10.4931 9.6732 10.1406 9.60633 9.8816 9.78204C9.72634 9.88802 9.63337 10.0637 9.63337 10.2513V13.6569H9.62547C9.46058 13.692 9.29961 13.7425 9.14382 13.8071C9.12171 13.8156 9.0996 13.8229 9.07868 13.832C8.93245 13.8954 8.79254 13.9713 8.65932 14.0586C8.63442 14.075 8.61005 14.0909 8.58621 14.1079C8.56237 14.1249 8.52957 14.1441 8.50181 14.1645L8.50008 9.63336ZM8.50008 16.4334C8.50068 16.3285 8.51144 16.2237 8.53182 16.1211C8.53747 16.0894 8.54657 16.0594 8.55447 16.0282C8.57147 15.9585 8.59245 15.8905 8.61795 15.8236C8.63044 15.7919 8.64286 15.7601 8.65707 15.7295C8.68768 15.6632 8.72221 15.5992 8.76132 15.5374C8.77607 15.5142 8.78908 15.4893 8.80442 15.4665C8.86054 15.3855 8.92402 15.3102 8.99315 15.2399C9.00503 15.228 9.01925 15.2178 9.03166 15.2059C9.09116 15.1493 9.15465 15.0971 9.22152 15.0495C9.24815 15.0308 9.27816 15.0138 9.30366 14.9968C9.36257 14.9599 9.42326 14.9271 9.48615 14.8976C9.51676 14.8835 9.54737 14.8688 9.57852 14.8563C9.59612 14.8495 9.61537 14.846 9.63516 14.8393V18.0381C8.9551 17.7973 8.50061 17.1547 8.50008 16.4334ZM10.7667 21.5334V11.6761C11.8167 12.4814 13.0351 13.039 14.3311 13.307C16.0889 13.6974 17.9113 13.6974 19.6691 13.307C20.9651 13.039 22.1834 12.4814 23.2334 11.6761V21.5333C23.2334 22.4723 22.4724 23.2333 21.5334 23.2333H12.4667C11.5277 23.2334 10.7667 22.4723 10.7667 21.5334ZM27.1134 32.8666L26.6255 29.9398L25.508 30.1268L25.9647 32.8666H8.03537L8.49211 30.1268L7.37463 29.9398L6.88674 32.8666H2.40047L3.18307 29.2014C3.58708 27.3779 5.1987 26.0768 7.06644 26.0666H11.9001V26.6333C11.9018 28.1973 13.1694 29.4649 14.7334 29.4666H19.2668C20.8308 29.4649 22.0984 28.1973 22.1001 26.6333V26.0666H26.9338C28.8009 26.0769 30.4125 27.3774 30.8172 29.1998L31.5998 32.8666H27.1134Z" fill="#231F20"/>
<path d="M20.4001 15.8667C21.026 15.8667 21.5334 15.3593 21.5334 14.7333C21.5334 14.1074 21.026 13.6 20.4001 13.6C19.7741 13.6 19.2667 14.1074 19.2667 14.7333C19.2667 15.3593 19.7741 15.8667 20.4001 15.8667Z" fill="#231F20"/>
<path d="M13.6 15.8667C14.226 15.8667 14.7334 15.3593 14.7334 14.7333C14.7334 14.1074 14.226 13.6 13.6 13.6C12.9741 13.6 12.4667 14.1074 12.4667 14.7333C12.4667 15.3593 12.9741 15.8667 13.6 15.8667Z" fill="#231F20"/>
</g>
<defs>
<clipPath id="clip0">
<rect width="34" height="34" fill="white"/>
</clipPath>
</defs>
</svg>
