<svg width="34" height="34" viewBox="0 0 34 34" fill="none" xmlns="http://www.w3.org/2000/svg">
<g clip-path="url(#clip0)">
<path d="M5.89756 25.653C5.99617 25.6253 6.09645 25.602 6.19791 25.585C6.35656 25.551 6.51753 25.5284 6.67956 25.517C6.8042 25.5057 6.93455 25.5 7.06491 25.5H12.4652V23.8001C11.2151 23.8018 10.2003 22.7892 10.1986 21.5391C10.1986 21.5373 10.1986 21.5351 10.1986 21.5334V10.2001H12.5219C15.0073 14.1022 19.1859 16.6051 23.7985 16.9547V21.5334C23.7985 22.7851 22.7836 23.8 21.5319 23.8V25.5H26.9322C27.0626 25.5 27.1929 25.5056 27.3176 25.517C27.4797 25.5283 27.6406 25.551 27.7992 25.585C27.9006 25.602 28.0009 25.6252 28.0996 25.653C28.2186 25.687 28.3432 25.721 28.4622 25.7663C28.7433 25.8661 29.013 25.9952 29.2668 26.1517C30.2273 25.517 30.7033 24.3605 30.4682 23.2333L27.2552 8.57943C26.2306 3.89941 22.0843 0.564638 17.2931 0.566896H16.7038C11.9127 0.564638 7.76695 3.89941 6.74184 8.5795L3.52886 23.2334C3.29372 24.3605 3.76972 25.517 4.73021 26.1518C4.98408 25.9954 5.25382 25.8661 5.53485 25.7664C5.65385 25.721 5.77856 25.687 5.89756 25.653Z" fill="#A05D35"/>
<path d="M12.5218 10.2001H10.1984V21.5334C10.1967 22.7835 11.2093 23.7983 12.4594 23.8C12.4611 23.8 12.4634 23.8 12.4651 23.8H21.5316C22.7834 23.8 23.7983 22.7851 23.7983 21.5334V16.9547C19.1857 16.6051 15.0072 14.1021 12.5218 10.2001Z" fill="#F9F5F2"/>
<path d="M12.4651 23.7999V25.4999L16.9984 30.0333L21.5317 25.4999V23.7999H12.4651Z" fill="#F9F5F2"/>
<path d="M21.5317 25.5L16.9985 30.0333L12.4651 25.5H11.3318L12.4651 33.4333H21.5317L22.6934 25.5H21.5317Z" fill="#F08AB7"/>
<path d="M7.06481 25.5C6.93446 25.5 6.80417 25.5056 6.67946 25.517C6.51736 25.5284 6.35646 25.551 6.19782 25.585C6.09641 25.602 5.99607 25.6252 5.89746 25.653C5.77846 25.687 5.65382 25.721 5.53482 25.7664C5.25372 25.8661 4.98405 25.9953 4.73018 26.1517C3.65467 26.7954 2.89359 27.8562 2.62784 29.0813L1.69849 33.4333H12.4651L11.3317 25.5H7.06481Z" fill="#C84339"/>
<path d="M31.369 29.0813C31.1033 27.8562 30.3423 26.7954 29.2667 26.1517C29.0128 25.9953 28.7431 25.8661 28.462 25.7664C28.3431 25.721 28.2184 25.687 28.0994 25.653C28.0008 25.6252 27.9005 25.602 27.7991 25.585C27.6404 25.551 27.4794 25.5284 27.3174 25.517C27.1928 25.5056 27.0624 25.5 26.9321 25.5H22.6934L21.5318 33.4333H32.2984L31.369 29.0813Z" fill="#C84339"/>
<path d="M13.5986 15.8668C14.2245 15.8668 14.7319 15.3594 14.7319 14.7334C14.7319 14.1075 14.2245 13.6001 13.5986 13.6001C12.9726 13.6001 12.4652 14.1075 12.4652 14.7334C12.4652 15.3594 12.9726 15.8668 13.5986 15.8668Z" fill="#231F20"/>
<path d="M31.9233 28.9612C31.6768 27.8421 31.0614 26.838 30.1763 26.1098C30.9322 25.309 31.2479 24.1894 31.0212 23.1121L27.8082 8.45821C26.7496 3.50387 22.3598 -0.0269975 17.2932 0.000162484H16.7038C11.6379 -0.0275952 7.24738 3.50387 6.18887 8.45821L2.97416 23.12C2.7503 24.1961 3.06766 25.3141 3.82415 26.112C2.93843 26.8402 2.32305 27.8449 2.07655 28.9646L1.1472 33.3166C1.08259 33.6226 1.27868 33.9235 1.58521 33.9881C1.6226 33.996 1.66058 34 1.69857 34H32.2984C32.6112 34 32.865 33.7461 32.865 33.4333C32.865 33.3937 32.861 33.354 32.8525 33.3149L31.9233 28.9612ZM4.08254 23.3546L7.29552 8.70073C8.24353 4.26827 12.1716 1.10914 16.7038 1.13351H17.2932C21.8254 1.10974 25.7524 4.26886 26.6998 8.70073L29.9128 23.3467C30.0782 24.1287 29.8136 24.9396 29.2186 25.4735C29.2061 25.4672 29.1914 25.4627 29.1784 25.4559C29.0106 25.3727 28.8384 25.2984 28.6621 25.2343C28.5414 25.189 28.4162 25.1527 28.2519 25.1057C28.142 25.074 28.0309 25.0485 27.9181 25.0292C27.7374 24.9901 27.5538 24.9641 27.369 24.951C27.2279 24.938 27.0794 24.9317 26.9321 24.9317H22.0985V24.3101C22.1087 24.3101 22.1178 24.3033 22.128 24.301C22.2895 24.2659 22.447 24.2171 22.6 24.1542C22.6539 24.1321 22.7031 24.1026 22.7553 24.0771C22.8595 24.0284 22.9604 23.9734 23.0579 23.9128C23.1145 23.8765 23.165 23.8357 23.2183 23.7955C23.3032 23.7332 23.3849 23.6663 23.4619 23.5949C23.5123 23.5473 23.5594 23.498 23.6064 23.447C23.6766 23.3711 23.7424 23.2912 23.8036 23.2079C23.845 23.1512 23.8846 23.0945 23.922 23.0379C23.9781 22.9472 24.0285 22.8543 24.0739 22.758C24.1034 22.6979 24.134 22.639 24.1589 22.5766C24.2008 22.4655 24.236 22.3522 24.2637 22.2366C24.2785 22.18 24.2977 22.1267 24.3091 22.0695C24.3448 21.8932 24.3635 21.7136 24.3652 21.5334V16.9548C24.3658 16.6579 24.1374 16.4102 23.8411 16.3881C19.4097 16.0408 15.3972 13.6375 12.9991 9.8953C12.8949 9.73207 12.7152 9.63353 12.522 9.63353H10.1987C9.88588 9.63353 9.63201 9.8874 9.63201 10.2002V21.5335C9.63261 22.2866 9.93177 23.0079 10.4639 23.5406C10.5851 23.6579 10.716 23.7644 10.8555 23.8591C10.8957 23.8868 10.9371 23.9112 10.9785 23.9367C11.0838 24.0018 11.1932 24.0602 11.3066 24.1112C11.3491 24.1305 11.391 24.1509 11.4347 24.1679C11.5848 24.2285 11.7401 24.2761 11.8988 24.3101V24.9334H7.06516C6.9178 24.9334 6.76939 24.9397 6.64076 24.9516C6.46053 24.9635 6.2815 24.9884 6.10466 25.0263C5.96866 25.0496 5.83439 25.0807 5.70231 25.1198C5.58105 25.1544 5.45581 25.1907 5.34305 25.2332C5.16396 25.2989 4.98944 25.3743 4.81891 25.4598C4.8059 25.4666 4.79116 25.4712 4.77867 25.4774C4.18401 24.9453 3.91878 24.1361 4.08254 23.3546ZM11.9852 26.0667H12.2306L16.5979 30.434C16.8189 30.655 17.1781 30.655 17.3991 30.434L21.7664 26.0667H22.0378L21.0421 32.8667H12.9571L11.9852 26.0667ZM23.2318 21.5334C23.2318 22.4724 22.4708 23.2334 21.5318 23.2334H12.4652C11.528 23.2351 10.767 22.4775 10.7652 21.5402C10.7652 21.5379 10.7652 21.5357 10.7652 21.5334V10.7668H12.2153C14.7239 14.5113 18.7529 16.9633 23.2319 17.471V21.5334H23.2318ZM13.0319 24.3667H20.9652V25.2655L16.9985 29.2321L13.0319 25.2655L13.0319 24.3667ZM8.03389 32.8667L8.49063 30.1268L7.37315 29.9398L6.88526 32.8667H2.39902L3.18161 29.201C3.41788 28.1271 4.08659 27.1983 5.02949 26.6334C5.25161 26.4962 5.48789 26.3835 5.73438 26.2968C5.82563 26.2628 5.92079 26.2361 6.05061 26.1993C6.13846 26.1744 6.22738 26.1545 6.31696 26.1392C6.45356 26.1103 6.59182 26.0916 6.7312 26.0825C6.83885 26.0723 6.9522 26.0678 7.06496 26.0678H10.8401L11.8119 32.8677L8.03389 32.8667ZM27.1118 32.8667L26.6239 29.9398L25.5064 30.1268L25.9631 32.8667H22.1874L23.1831 26.0667H26.9321C27.0455 26.0667 27.1588 26.0712 27.2784 26.082C27.4223 26.0928 27.5651 26.1131 27.7056 26.1438C27.7997 26.1602 27.8926 26.1823 27.9844 26.2095C28.0762 26.2356 28.1714 26.2622 28.2705 26.2996C28.517 26.3875 28.7533 26.5014 28.9754 26.6396C29.9149 27.2046 30.5802 28.1311 30.8154 29.2021L31.598 32.8667H27.1118Z" fill="#231F20"/>
</g>
<defs>
<clipPath id="clip0">
<rect width="34" height="34" fill="white"/>
</clipPath>
</defs>
</svg>
