<svg width="35" height="34" viewBox="0 0 35 34" fill="none" xmlns="http://www.w3.org/2000/svg">
<g clip-path="url(#clip0)">
<path d="M15.7333 28.8999H20.2667C21.5168 28.896 22.5294 27.8833 22.5333 26.6333V23.7999H13.4667V26.6333C13.4707 27.8833 14.4833 28.896 15.7333 28.8999Z" fill="#F9F5F2"/>
<path d="M32.3707 29.0814C31.9168 26.9932 30.0706 25.5029 27.9337 25.5H22.5334V26.6334C22.5294 27.8835 21.5168 28.8961 20.2667 28.9H15.7334C14.4833 28.896 13.4706 27.8834 13.4667 26.6334V25.5H8.06637C5.92948 25.5029 4.08325 26.9931 3.62937 29.0814L2.70001 33.4334H33.3L32.3707 29.0814Z" fill="#C84339"/>
<path d="M24.8 21.5334V10.2001H11.2V21.5334C11.2 22.7852 12.2149 23.8001 13.4667 23.8001H22.5333C23.7851 23.8001 24.8 22.7852 24.8 21.5334ZM14.6 15.3001C14.2872 15.3001 14.0334 15.0462 14.0334 14.7334C14.0334 14.4207 14.2872 14.1668 14.6 14.1668C14.9128 14.1668 15.1667 14.4207 15.1667 14.7334C15.1667 15.0462 14.9128 15.3001 14.6 15.3001ZM21.4 15.3001C21.0872 15.3001 20.8334 15.0462 20.8334 14.7334C20.8334 14.4207 21.0872 14.1668 21.4 14.1668C21.7128 14.1668 21.9667 14.4207 21.9667 14.7334C21.9667 15.0462 21.7128 15.3001 21.4 15.3001Z" fill="#F9F5F2"/>
<path d="M24.8 14.1667V18.7001C24.8872 18.7001 24.9745 18.6945 25.0606 18.6831C26.067 18.5686 26.874 17.7968 27.0326 16.7961C27.0553 16.6765 27.0666 16.5552 27.0666 16.4335C27.0666 15.1817 26.0517 14.1667 24.8 14.1667Z" fill="#F9F5F2"/>
<path d="M8.93329 16.4335C8.93329 16.5553 8.94464 16.6766 8.96729 16.7961C9.12593 17.7968 9.9329 18.5686 10.9393 18.6831C11.026 18.6945 11.1127 18.7001 11.1999 18.7001V14.1667C9.94824 14.1667 8.93329 15.1817 8.93329 16.4335Z" fill="#F9F5F2"/>
<path d="M27.0668 16.4334V9.63342C27.0668 4.62579 23.0077 0.566772 18.0001 0.566772C12.9925 0.566772 8.93341 4.62579 8.93341 9.63342V16.4334C8.93341 15.1817 9.9483 14.1668 11.2001 14.1668V10.2001H24.8001V14.1667C26.0519 14.1667 27.0668 15.1817 27.0668 16.4334Z" fill="#A05D35"/>
<path d="M27.0327 16.7961C26.8741 17.7969 26.0671 18.5687 25.0607 18.6831L27.0667 24.3668L30.4667 23.2334L27.0327 16.7961Z" fill="#A05D35"/>
<path d="M8.96739 16.7961L5.53339 23.2335L8.93339 24.3669L10.9394 18.6832C9.933 18.5687 9.1261 17.7969 8.96739 16.7961Z" fill="#A05D35"/>
<path d="M21.4 15.2999C21.713 15.2999 21.9667 15.0462 21.9667 14.7333C21.9667 14.4203 21.713 14.1666 21.4 14.1666C21.0871 14.1666 20.8334 14.4203 20.8334 14.7333C20.8334 15.0462 21.0871 15.2999 21.4 15.2999Z" fill="#F9F5F2"/>
<path d="M14.6 15.2999C14.913 15.2999 15.1667 15.0462 15.1667 14.7333C15.1667 14.4203 14.913 14.1666 14.6 14.1666C14.2871 14.1666 14.0334 14.4203 14.0334 14.7333C14.0334 15.0462 14.2871 15.2999 14.6 15.2999Z" fill="#F9F5F2"/>
<path d="M32.9249 28.9606C32.4053 26.618 30.3336 24.9464 27.9337 24.9334H23.1001V24.31C24.4182 24.0391 25.3651 22.8791 25.3667 21.5334V21.2535L26.5323 24.5554C26.6355 24.8467 26.9528 25.0014 27.2458 24.9039L30.6458 23.7706C30.9427 23.672 31.1036 23.3512 31.0045 23.0543C30.9942 23.0243 30.9818 22.9948 30.9671 22.9665L27.6107 16.6765C27.6226 16.596 27.63 16.515 27.6334 16.4334V9.63336C27.6334 4.31289 23.3205 0 18.0001 0C12.6797 0 8.36672 4.31289 8.36672 9.63336V16.4334C8.37011 16.5144 8.37748 16.5955 8.38883 16.6759L5.03306 22.9659C4.88571 23.2419 4.99056 23.5852 5.26655 23.7326C5.2949 23.7473 5.32379 23.7604 5.3544 23.77L8.7544 24.9033C9.04738 25.0008 9.36467 24.8461 9.4678 24.5548L10.6334 21.2535V21.5334C10.6352 22.8792 11.582 24.0391 12.9001 24.31V24.9334H8.06643C5.66604 24.9464 3.59371 26.6192 3.07521 28.963L2.14585 33.315C2.08071 33.621 2.27561 33.9218 2.58161 33.9876C2.62072 33.9961 2.66037 34.0001 2.70001 34.0001H33.3C33.6128 34.0001 33.8667 33.7462 33.8667 33.4334C33.8667 33.3938 33.8627 33.3541 33.8542 33.315L32.9249 28.9606ZM14.0334 24.3666H21.9667V26.6333C21.9667 27.5723 21.2057 28.3333 20.2667 28.3333H15.7334C14.7944 28.3333 14.0334 27.5723 14.0334 26.6333V24.3666ZM25.5118 14.8949C25.5758 14.9243 25.6382 14.9583 25.6977 14.9957C25.7249 15.0127 25.7543 15.0291 25.7782 15.0473C25.8456 15.0955 25.9097 15.1482 25.9697 15.2054C25.9816 15.2168 25.9952 15.2264 26.0071 15.2383C26.0762 15.3086 26.1391 15.3845 26.1958 15.465C26.2111 15.4876 26.2242 15.5126 26.2389 15.5358C26.2774 15.5976 26.3125 15.6616 26.3432 15.7273C26.3573 15.7585 26.3704 15.7902 26.3823 15.8226C26.4084 15.8888 26.4293 15.9574 26.4458 16.0266C26.4537 16.0577 26.4628 16.0878 26.4684 16.1195C26.4888 16.2226 26.4995 16.328 26.5001 16.4334C26.5001 16.5251 26.491 16.6164 26.4735 16.7065C26.4503 16.8431 26.4095 16.9768 26.3528 17.1031C26.3432 17.1258 26.3347 17.149 26.3239 17.1711C26.2667 17.2901 26.1958 17.4018 26.1125 17.5044C26.0995 17.5196 26.0853 17.5338 26.0723 17.5491C25.8875 17.7588 25.6541 17.9197 25.3923 18.0177L25.3639 18.0285V14.8376C25.3827 14.8444 25.4024 14.8484 25.4206 14.8552C25.4534 14.8671 25.4829 14.8812 25.5118 14.8949ZM27.4158 23.6526L25.8025 19.0819C25.8394 19.0678 25.8734 19.0473 25.9097 19.032C25.9714 19.0054 26.032 18.9754 26.0921 18.947C26.1522 18.9187 26.2259 18.8728 26.2905 18.8337C26.3551 18.7946 26.4072 18.7612 26.4605 18.7203C26.5138 18.6795 26.5739 18.6308 26.6305 18.5837C26.6871 18.5367 26.7439 18.4908 26.7931 18.4398C26.8424 18.3888 26.8787 18.3452 26.9206 18.297C26.9745 18.2358 27.0289 18.1769 27.077 18.1118L27.0855 18.1015L29.6503 22.9092L27.4158 23.6526ZM9.50008 9.63336C9.50008 4.9391 13.3058 1.13336 18.0001 1.13336C22.6943 1.13336 26.5001 4.9391 26.5001 9.63336V14.1667C26.4723 14.1457 26.4434 14.1287 26.4139 14.1101C26.3845 14.0913 26.3681 14.0789 26.3448 14.0636C26.2105 13.9763 26.0694 13.9004 25.9227 13.8369C25.9017 13.8278 25.8808 13.8205 25.8598 13.812C25.7034 13.7474 25.5419 13.697 25.3764 13.6619L25.3668 13.6568V7.93342H24.2334V9.63342H21.9668V6.8H20.8334V9.63336H18.5668V5.66664H17.4334V9.63329H15.1668V6.8H14.0334V9.63336H11.7668V7.93336H10.6334V13.6567H10.6255C10.46 13.6918 10.2985 13.7423 10.1422 13.8069C10.1212 13.8154 10.1003 13.8227 10.0793 13.8318C9.93251 13.8952 9.7914 13.9711 9.65713 14.0584C9.63388 14.0737 9.61064 14.089 9.588 14.1049C9.56535 14.1208 9.53135 14.1417 9.50187 14.1615L9.50008 9.63336ZM9.91996 17.5411C9.91146 17.5309 9.90183 17.5213 9.89333 17.5111C9.80322 17.4018 9.72732 17.2816 9.66669 17.1535C9.66045 17.141 9.65593 17.128 9.65029 17.1155C9.58906 16.9795 9.54603 16.8362 9.52166 16.6894C9.50638 16.605 9.49901 16.5194 9.50014 16.4333C9.50074 16.3284 9.5115 16.2236 9.53188 16.121C9.53753 16.0893 9.54663 16.0593 9.55453 16.0281C9.57153 15.9584 9.59251 15.8904 9.61801 15.8235C9.6305 15.7918 9.64292 15.7601 9.65713 15.7294C9.68774 15.6632 9.72227 15.5991 9.76138 15.5373C9.77613 15.5141 9.78914 15.4892 9.80448 15.4665C9.86113 15.386 9.92408 15.3101 9.99321 15.2398C10.0051 15.2279 10.0187 15.2183 10.0306 15.207C10.0907 15.1497 10.1547 15.0971 10.2221 15.0489C10.2482 15.0307 10.2754 15.0143 10.302 14.9973C10.3621 14.9599 10.4244 14.9259 10.4884 14.8964C10.5173 14.8828 10.545 14.8686 10.5768 14.8567C10.5949 14.85 10.6148 14.846 10.6334 14.8391V18.0306C10.6198 18.0261 10.6062 18.021 10.5932 18.0154C10.3331 17.9157 10.1018 17.7525 9.91996 17.5411ZM8.58433 23.6526L6.34883 22.908L8.91358 18.1004C8.91809 18.1067 8.9238 18.1118 8.92832 18.118C8.9663 18.1696 9.00993 18.2149 9.0513 18.2636C9.1023 18.3237 9.15217 18.3844 9.20829 18.4399C9.2644 18.4954 9.3148 18.5362 9.36979 18.5833C9.42477 18.6303 9.47464 18.6739 9.53069 18.7147C9.5868 18.7555 9.65819 18.8015 9.72446 18.8422C9.78111 18.8762 9.83383 18.9091 9.89108 18.9391C9.96133 18.976 10.0338 19.0089 10.1076 19.0394C10.1382 19.0524 10.1642 19.07 10.1977 19.0819L8.58433 23.6526ZM11.7667 21.5334V10.7666H24.2334V21.5333C24.2334 22.4723 23.4723 23.2333 22.5334 23.2333H13.4667C12.5277 23.2334 11.7667 22.4723 11.7667 21.5334ZM28.1133 32.8666L27.6255 29.9404L26.508 30.1263L26.9647 32.8666H9.03536L9.49211 30.1263L8.37462 29.9404L7.88674 32.8666H3.40046L4.18306 29.202C4.58654 27.3785 6.19869 26.0769 8.06643 26.0666H12.9001V26.6333C12.9018 28.1973 14.1694 29.4649 15.7334 29.4666H20.2668C21.8308 29.4649 23.0984 28.1973 23.1001 26.6333V26.0666H27.9338C29.8009 26.0769 31.4125 27.3774 31.8172 29.1998L32.5998 32.8666H28.1133Z" fill="#231F20"/>
<path d="M21.4001 15.8667C22.026 15.8667 22.5334 15.3593 22.5334 14.7333C22.5334 14.1074 22.026 13.6 21.4001 13.6C20.7741 13.6 20.2667 14.1074 20.2667 14.7333C20.2667 15.3593 20.7741 15.8667 21.4001 15.8667Z" fill="#231F20"/>
<path d="M14.6001 15.8667C15.226 15.8667 15.7334 15.3593 15.7334 14.7333C15.7334 14.1074 15.226 13.6 14.6001 13.6C13.9742 13.6 13.4667 14.1074 13.4667 14.7333C13.4667 15.3593 13.9742 15.8667 14.6001 15.8667Z" fill="#231F20"/>
</g>
<defs>
<clipPath id="clip0">
<rect x="1" width="34" height="34" fill="white"/>
</clipPath>
</defs>
</svg>
