<svg width="34" height="34" viewBox="0 0 34 34" fill="none" xmlns="http://www.w3.org/2000/svg">
<path d="M14.7705 28.9837H19.2296C20.4592 28.9798 21.4552 27.9837 21.4591 26.7542V23.9673H12.541V26.7542C12.5449 27.9837 13.541 28.9798 14.7705 28.9837Z" fill="#F9F5F2"/>
<path d="M31.1351 29.1619C30.6887 27.108 28.8727 25.6421 26.7708 25.6393H21.459V26.754C21.4551 27.9836 20.459 28.9797 19.2295 28.9836H14.7704C13.5408 28.9797 12.5448 27.9836 12.5409 26.754V25.6393H7.22905C5.12716 25.6421 3.31121 27.108 2.86477 29.1619L1.95068 33.4426H32.0491L31.1351 29.1619Z" fill="#24537E"/>
<path d="M10.3115 18.9507V14.4917C9.08026 14.4917 8.08197 15.49 8.08197 16.7212C8.08197 17.9525 9.08026 18.9507 10.3115 18.9507Z" fill="#F9F5F2"/>
<path d="M24.4467 5.9305C23.5086 4.98687 22.2322 4.45735 20.9018 4.45901H20.2942C20.3282 4.27506 20.3449 4.08833 20.3443 3.90166C20.3443 2.0545 18.8472 0.557373 17.0001 0.557373C15.1529 0.557373 13.6558 2.0545 13.6558 3.90166C13.6552 4.08839 13.6719 4.27513 13.7059 4.45901H13.0984C10.3276 4.45901 8.08197 6.70467 8.08197 9.4754V16.7213C8.08197 15.4901 9.08026 14.4918 10.3115 14.4918V10.5902H23.6886V14.4918C24.9198 14.4918 25.9181 15.4901 25.9181 16.7213V9.47547C25.9198 8.14495 25.3903 6.86856 24.4467 5.9305Z" fill="#FDCA6E"/>
<path d="M9.34342 22.6145C9.55632 22.8397 9.91086 22.8497 10.136 22.6368C10.2469 22.532 10.3104 22.386 10.3116 22.2332V18.9508C9.08032 18.9508 8.08204 17.9526 8.08204 16.7213V19.5082C8.08038 20.6687 8.533 21.784 9.34342 22.6145Z" fill="#FDCA6E"/>
<path d="M23.6886 18.9508V22.2332C23.6909 22.5431 23.9439 22.7923 24.2533 22.79C24.406 22.7889 24.552 22.7254 24.6568 22.6145C25.4672 21.784 25.9198 20.6686 25.9181 19.5082V16.7213C25.9181 17.9526 24.9198 18.9508 23.6886 18.9508Z" fill="#FDCA6E"/>
<path d="M23.6886 14.4917V18.9507C24.9198 18.9507 25.9181 17.9525 25.9181 16.7212C25.9181 15.49 24.9198 14.4917 23.6886 14.4917Z" fill="#F9F5F2"/>
<path d="M10.3115 10.5901V21.7376C10.3115 22.9689 11.3098 23.9672 12.541 23.9672H21.4591C22.6903 23.9672 23.6886 22.9689 23.6886 21.7376V10.5901H10.3115Z" fill="#F9F5F2"/>
<path d="M31.6797 29.0432C31.1692 26.7385 29.1314 25.0942 26.7709 25.082H22.0165V24.4688C22.7494 24.3172 23.3904 23.8769 23.7951 23.2476C23.8051 23.2521 23.813 23.2599 23.823 23.2638C24.2483 23.4377 24.7371 23.3351 25.0559 23.0041C25.9694 22.0699 26.4788 20.8147 26.4755 19.5082V9.47544C26.4705 6.3993 23.9779 3.90668 20.9018 3.9017C20.9017 1.74682 19.1549 0 17.0001 0C14.8453 0 13.0984 1.74682 13.0984 3.90163C10.0217 3.90495 7.52803 6.39871 7.52471 9.47538V19.5082C7.52139 20.8141 8.03139 22.0699 8.94434 23.0035C9.26316 23.3346 9.75198 23.4371 10.1772 23.2632C10.1873 23.2593 10.1951 23.2515 10.2051 23.247C10.6098 23.8769 11.2508 24.3166 11.9837 24.4688V25.0819H7.22927C4.86819 25.0942 2.82992 26.7401 2.31992 29.0454L1.40584 33.3261C1.34176 33.6271 1.53347 33.923 1.83449 33.9877C1.87294 33.9961 1.91199 34 1.95097 34H32.0493C32.357 34 32.6067 33.7503 32.6067 33.4427C32.6067 33.4036 32.6028 33.3646 32.5944 33.3262L31.6797 29.0432ZM13.0984 24.5246H20.9017V26.7541C20.9017 27.6777 20.1532 28.4262 19.2296 28.4262H14.7706C13.847 28.4262 13.0984 27.6777 13.0984 26.7541V24.5246ZM24.2459 15.1445C25.1166 15.4516 25.5736 16.4069 25.2665 17.2776C25.0981 17.7547 24.723 18.1298 24.2459 18.2981V15.1445ZM24.2459 22.2332V19.4524C24.6517 19.3666 25.0324 19.1905 25.3607 18.9369V19.5082C25.363 20.5282 24.9627 21.5075 24.2459 22.2332ZM25.3607 12.8197V14.5057C25.0324 14.2521 24.6517 14.076 24.2459 13.9901V13.9344C24.2911 13.901 24.3284 13.8597 24.3724 13.8229C24.4923 13.727 24.6071 13.6273 24.718 13.523C24.7893 13.4562 24.8601 13.3887 24.9276 13.3179C25.0357 13.2064 25.136 13.0866 25.2341 12.9656C25.2743 12.9161 25.3222 12.8715 25.3607 12.8197ZM15.0325 1.93076C16.1228 0.843891 17.8869 0.84668 18.9737 1.93687C19.4938 2.45856 19.7864 3.16479 19.787 3.90163H14.2132C14.2098 3.16147 14.5053 2.45079 15.0325 1.93076ZM13.0984 5.01639H20.9017C23.3625 5.02084 25.3562 7.01456 25.3608 9.47544C25.3596 9.64152 25.3496 9.8076 25.3301 9.97262C25.3245 10.0206 25.3173 10.0674 25.3106 10.1147C25.2927 10.2379 25.2699 10.36 25.242 10.4798C25.232 10.5239 25.2231 10.5685 25.2113 10.6119C25.1706 10.7686 25.1216 10.923 25.0642 11.0746C25.057 11.0935 25.0481 11.1108 25.0402 11.1303C24.9873 11.2635 24.9287 11.3928 24.8619 11.5204C24.8395 11.5633 24.8162 11.6052 24.7927 11.6475C24.732 11.759 24.6662 11.8621 24.5966 11.9652C24.5737 11.9997 24.5519 12.0349 24.528 12.0683C24.44 12.191 24.3457 12.3086 24.246 12.4212V10.5902C24.246 10.2825 23.9963 10.0329 23.6887 10.0329H10.3115C10.0039 10.0329 9.75417 10.2825 9.75417 10.5902V12.4145C9.7363 12.3939 9.71685 12.3744 9.69845 12.3538C9.65834 12.3069 9.62042 12.259 9.58251 12.211C9.53343 12.1481 9.48555 12.0845 9.4398 12.0193C9.40467 11.9692 9.37067 11.9185 9.3378 11.8672C9.2949 11.8003 9.25419 11.7323 9.21515 11.6632C9.18506 11.6108 9.15604 11.5579 9.12822 11.5044C9.09196 11.433 9.05796 11.3611 9.02569 11.2881C9.00119 11.2324 8.97721 11.1766 8.9549 11.1242C8.92482 11.0483 8.89919 10.972 8.87295 10.8945C8.85456 10.8388 8.83451 10.783 8.81724 10.7273C8.7938 10.6454 8.77434 10.5601 8.75535 10.4793C8.74306 10.4264 8.72919 10.3734 8.71856 10.3199C8.70129 10.2268 8.68901 10.1331 8.67732 10.0412C8.67121 9.99487 8.66285 9.94972 8.6584 9.9029C8.64671 9.76132 8.63947 9.61921 8.63947 9.47538C8.64219 7.01403 10.637 5.01918 13.0984 5.01639ZM9.74806 18.2953C8.87913 17.9832 8.4271 17.0256 8.73921 16.1566C8.90868 15.6846 9.28155 15.3133 9.75417 15.1455L9.74806 18.2953ZM9.15445 13.4093C9.26595 13.5208 9.38295 13.6278 9.5078 13.7332C9.54406 13.7639 9.58138 13.7934 9.61929 13.8229C9.65721 13.8525 9.70682 13.8965 9.75417 13.9344V13.9901C9.34842 14.076 8.96772 14.2521 8.6394 14.5057V12.8197C8.65614 12.842 8.67732 12.8609 8.69512 12.8826C8.8373 13.0677 8.99056 13.2439 9.15445 13.4093ZM8.6394 19.5082V18.9363C8.96546 19.1882 9.34391 19.3638 9.74633 19.4502L9.74241 22.2254C9.03293 21.4992 8.63661 20.5237 8.6394 19.5082ZM10.8689 21.7377V11.1476H23.1312V21.7377C23.1312 22.6613 22.3827 23.4098 21.4591 23.4098H12.541C11.6175 23.4099 10.8689 22.6613 10.8689 21.7377ZM26.9475 32.8852L26.4676 30.0064L25.3685 30.1903L25.8177 32.8852H8.18233L8.63157 30.1903L7.53241 30.0064L7.05249 32.8852H2.6398L3.40951 29.2801C3.80696 27.4865 5.39207 26.2068 7.2292 26.1967H11.9836V26.754C11.9853 28.2924 13.2321 29.5392 14.7705 29.5409H19.2295C20.7679 29.5392 22.0147 28.2924 22.0164 26.754V26.1967H26.7708C28.6074 26.2067 30.1925 27.4853 30.59 29.2784L31.3603 32.8852H26.9475V32.8852Z" fill="#231F20"/>
<path d="M20.3443 16.164C20.96 16.164 21.4591 15.6649 21.4591 15.0492C21.4591 14.4335 20.96 13.9344 20.3443 13.9344C19.7286 13.9344 19.2296 14.4335 19.2296 15.0492C19.2296 15.6649 19.7286 16.164 20.3443 16.164Z" fill="#231F20"/>
<path d="M13.6558 16.164C14.2715 16.164 14.7706 15.6649 14.7706 15.0492C14.7706 14.4335 14.2715 13.9344 13.6558 13.9344C13.0402 13.9344 12.5411 14.4335 12.5411 15.0492C12.5411 15.6649 13.0402 16.164 13.6558 16.164Z" fill="#231F20"/>
</svg>
